SplineFontDB: 3.0
FontName: JockeyOne-Regular
FullName: Jockey One Regular
FamilyName: Jockey One
Weight: Regular
Copyright: Copyright (c) 2011, Copyright (c) 2011, TypeTogether (www.type-together.com), with Reserved Font Names "Jockey" and "Jockey One"
Version: 001.001
ItalicAngle: 0
UnderlinePosition: -50
UnderlineWidth: 50
Ascent: 800
Descent: 200
sfntRevision: 0x00010042
LayerCount: 2
Layer: 0 1 "Back"  1
Layer: 1 1 "Fore"  0
XUID: [1021 288 713564382 7204139]
FSType: 0
OS2Version: 2
OS2_WeightWidthSlopeOnly: 0
OS2_UseTypoMetrics: 1
CreationTime: 1318855275
ModificationTime: 1318866129
PfmFamily: 33
TTFWeight: 400
TTFWidth: 5
LineGap: 0
VLineGap: 0
Panose: 2 0 5 6 0 0 0 2 0 4
OS2TypoAscent: 899
OS2TypoAOffset: 0
OS2TypoDescent: -319
OS2TypoDOffset: 0
OS2TypoLinegap: 0
OS2WinAscent: 899
OS2WinAOffset: 0
OS2WinDescent: 319
OS2WinDOffset: 0
HheadAscent: 899
HheadAOffset: 0
HheadDescent: -319
HheadDOffset: 0
OS2SubXSize: 700
OS2SubYSize: 650
OS2SubXOff: 0
OS2SubYOff: 140
OS2SupXSize: 700
OS2SupYSize: 650
OS2SupXOff: 0
OS2SupYOff: 477
OS2StrikeYSize: 50
OS2StrikeYPos: 250
OS2Vendor: 'TT  '
OS2CodePages: 00000002.00000000
OS2UnicodeRanges: a000002f.4000004a.00000000.00000000
Lookup: 4 0 1 "'liga' Standard Ligatures in Latin lookup 0"  {"'liga' Standard Ligatures in Latin lookup 0 subtable"  } ['liga' ('latn' <'dflt' > ) ]
Lookup: 258 0 0 "'kern' Horizontal Kerning in Latin lookup 0"  {"'kern' Horizontal Kerning in Latin lookup 0 per glyph data 0"  "'kern' Horizontal Kerning in Latin lookup 0 per glyph data 1"  "'kern' Horizontal Kerning in Latin lookup 0 kerning class 2"  } ['kern' ('latn' <'dflt' > ) ]
MarkAttachClasses: 1
DEI: 91125
KernClass2: 36+ 29 "'kern' Horizontal Kerning in Latin lookup 0 kerning class 2" 
 84 A Aacute Abreve Acircumflex Adieresis Agrave Amacron Aogonek Aring Atilde Aringacute
 47 C Cacute Ccaron Ccedilla Ccircumflex Cdotaccent
 92 E AE OE Eacute Ebreve Ecaron Ecircumflex Edieresis Edotaccent Egrave Emacron Eogonek AEacute

StartChar: quotesingle
Encoding: 39 39 4
Width: 181
Flags: MW
HStem: 479 221<45 45 45 136>
VStem: 35 111<700 700>
LayerCount: 2
Fore
SplineSet
45 479 m 1,0,-1
 35 700 l 1,1,-1
 146 700 l 1,2,-1
 136 479 l 1,3,-1
 45 479 l 1,0,-1
EndSplineSet
EndChar

StartChar: quotedbl
Encoding: 34 34 5
Width: 351
Flags: MW
HStem: 479 221<62 62 62 153 198 289 198 198>
VStem: 52 111<700 700> 188 111<700 700>
LayerCount: 2
Fore
SplineSet
62 479 m 1,0,-1
 52 700 l 1,1,-1
 163 700 l 1,2,-1
 153 479 l 1,3,-1
 62 479 l 1,0,-1
198 479 m 1,4,-1
 188 700 l 1,5,-1
 299 700 l 1,6,-1
 289 479 l 1,7,-1
 198 479 l 1,4,-1
EndSplineSet
EndChar

StartChar: numbersign
Encoding: 35 35 6
Width: 625
Flags: MW
HStem: 0 198<114 151 47 189 114 114 320 357 320 320> 124 74<47 137 34 151 226 343 47 212 432 531> 332 74<85 177 72 191 266 383 85 252 472 569>
VStem: 34 548<124 406>
LayerCount: 2
Fore
SplineSet
320 0 m 1,0,-1
 343 124 l 1,1,-1
 212 124 l 1,2,-1
 189 0 l 1,3,-1
 114 0 l 1,4,-1
 137 124 l 1,5,-1
 34 124 l 1,6,-1
 47 198 l 1,7,-1
 151 198 l 1,8,-1
 177 332 l 1,9,-1
 72 332 l 1,10,-1
 85 406 l 1,11,-1
 191 406 l 1,12,-1
 215 529 l 1,13,-1
 290 529 l 1,14,-1
 266 406 l 1,15,-1
 397 406 l 1,16,-1
 421 529 l 1,17,-1
 496 529 l 1,18,-1
 472 406 l 1,19,-1
 582 406 l 1,20,-1
 569 332 l 1,21,-1
 458 332 l 1,22,-1
 432 198 l 1,23,-1
 544 198 l 1,24,-1
 531 124 l 1,25,-1
 418 124 l 1,26,-1
 395 0 l 1,27,-1
 320 0 l 1,0,-1
252 332 m 1,28,-1
 226 198 l 1,29,-1
 357 198 l 1,30,-1
 383 332 l 1,31,-1
 252 332 l 1,28,-1
EndSplineSet
EndChar

StartChar: ampersand
Encoding: 38 38 7
Width: 465
Flags: MW
HStem: 0 655<198 359 198 430 152 359>
VStem: 30 400<0 238.5>
LayerCount: 2
Fore
SplineSet
161 421 m 1,0,-1
 148 451 l 1,1,2
 127 492 127 492 127 539 c 0,3,4
 127 625 127 625 198 655 c 1,5,-1
 359 655 l 1,6,-1
 359 535 l 1,7,-1
 256 535 l 1,8,-1
 254 529 l 1,9,-1
 430 111 l 1,10,-1
 430 0 l 1,11,-1
 152 0 l 1,12,13
 95 22 95 22 62.5 76 c 128,-1,14
 30 130 30 130 30 196 c 128,-1,15
 30 262 30 262 63 321.5 c 128,-1,16
 96 381 96 381 161 421 c 1,0,-1
155 206 m 0,17,18
 155 144 155 144 194 111 c 1,19,-1
 299 111 l 1,20,-1
 210 314 l 1,21,22
 155 267 155 267 155 206 c 0,17,18
EndSplineSet
EndChar

StartChar: asterisk
Encoding: 42 42 8
Width: 376
Flags: MW
HStem: 435 297<124 188 154 252>
VStem: 151 72
LayerCount: 2
Fore
SplineSet
188 732 m 1,0,-1
 222 732 l 1,1,-1
 226 629 l 1,2,-1
 316 655 l 1,3,-1
 336 592 l 1,4,-1
 249 560 l 1,5,-1
 305 474 l 1,6,-1
 252 435 l 1,7,-1
 188 516 l 1,8,-1
 124 435 l 1,9,-1
 71 474 l 1,10,-1
 128 558 l 1,11,-1
 40 592 l 1,12,-1
 60 655 l 1,13,-1
 149 629 l 1,14,-1
 154 732 l 1,15,-1
 188 732 l 1,0,-1
EndSplineSet
EndChar

StartChar: comma
Encoding: 44 44 9
Width: 224
Flags: MW
HStem: -149 21G<99 99> 0 148<40 184 40 99>
VStem: 40 144<38 89 89 148 38 148>
LayerCount: 2
Fore
SplineSet
40 0 m 1,0,-1
 40 148 l 1,1,-1
 184 148 l 1,2,-1
 184 89 l 2,3,4
 184 14 184 14 167 -32 c 128,-1,5
 150 -78 150 -78 99 -149 c 1,6,-1
 41 -121 l 1,7,8
 89 -47 89 -47 99 0 c 1,9,-1
 40 0 l 1,0,-1
EndSplineSet
EndChar

StartChar: hyphen
Encoding: 45 45 10
Width: 256
Flags: MW
HStem: 231 114<25 231 25 231>
VStem: 25 206<231 345 231 345>
LayerCount: 2
Fore
SplineSet
25 231 m 1,0,-1
 25 345 l 1,1,-1
 231 345 l 1,2,-1
 231 231 l 1,3,-1
 25 231 l 1,0,-1
EndSplineSet
EndChar

StartChar: period
Encoding: 46 46 11
Width: 224
Flags: MW
HStem: 0 148<40 184 40 184>
VStem: 40 144<0 148 0 148>
LayerCount: 2
Fore
SplineSet
40 148 m 1,0,-1
 184 148 l 1,1,-1
 184 0 l 1,2,-1
 40 0 l 1,3,-1
 40 148 l 1,0,-1
EndSplineSet
EndChar

StartChar: semicolon
Encoding: 59 59 13
Width: 224
Flags: MW
HStem: -149 21G<99 99> 0 148<40 184 40 99> 296 148<40 184 40 184>
VStem: 40 144<38 89 89 148 38 148 296 444>
LayerCount: 2
Fore
SplineSet
40 444 m 1,0,-1
 184 444 l 1,1,-1
 184 296 l 1,2,-1
 40 296 l 1,3,-1
 40 444 l 1,0,-1
40 0 m 1,4,-1
 40 148 l 1,5,-1
 184 148 l 1,6,-1
 184 89 l 2,7,8
 184 14 184 14 167 -32 c 128,-1,9
 150 -78 150 -78 99 -149 c 1,10,-1
 41 -121 l 1,11,12
 89 -47 89 -47 99 0 c 1,13,-1
 40 0 l 1,4,-1
EndSplineSet
EndChar

StartChar: question
Encoding: 63 63 14
Width: 309
Flags: MW
HStem: 0 135<67 189 67 189> 576 124<30 116 30 197>
VStem: 67 122<0 135 0 135 241 282> 135 146<553 563.5>
LayerCount: 2
Fore
SplineSet
67 135 m 1,0,-1
 189 135 l 1,1,-1
 189 0 l 1,2,-1
 67 0 l 1,3,-1
 67 135 l 1,0,-1
67 241 m 1,4,-1
 67 286 l 2,5,6
 67 322 67 322 75 362.5 c 128,-1,7
 83 403 83 403 89.5 424 c 128,-1,8
 96 445 96 445 111 482.5 c 128,-1,9
 126 520 126 520 126 521 c 0,10,11
 135 544 135 544 135 558 c 0,12,13
 135 576 135 576 116 576 c 2,14,-1
 30 576 l 1,15,-1
 30 700 l 1,16,-1
 197 700 l 1,17,18
 243 681 243 681 262 644 c 128,-1,19
 281 607 281 607 281 570 c 0,20,21
 281 550 281 550 274.5 527.5 c 128,-1,22
 268 505 268 505 262 492.5 c 128,-1,23
 256 480 256 480 241 453.5 c 128,-1,24
 226 427 226 427 222 420 c 2,25,-1
 218 412 l 2,26,27
 189 354 189 354 189 282 c 2,28,-1
 189 241 l 1,29,-1
 67 241 l 1,4,-1
EndSplineSet
EndChar

StartChar: exclam
Encoding: 33 33 15
Width: 222
Flags: MW
HStem: 0 135<55 167 55 167>
VStem: 55 112<0 135 0 135 241 380>
LayerCount: 2
Fore
SplineSet
55 135 m 1,0,-1
 167 135 l 1,1,-1
 167 0 l 1,2,-1
 55 0 l 1,3,-1
 55 135 l 1,0,-1
182 700 m 1,4,-1
 167 380 l 1,5,-1
 167 241 l 1,6,-1
 55 241 l 1,7,-1
 55 380 l 1,8,-1
 40 700 l 1,9,-1
 182 700 l 1,4,-1
EndSplineSet
EndChar

StartChar: exclamdown
Encoding: 161 161 16
Width: 222
Flags: MW
HStem: 376 135<55 167 55 167>
VStem: 55 112<131 270 131 270 376 511>
LayerCount: 2
Fore
SplineSet
167 376 m 1,0,-1
 55 376 l 1,1,-1
 55 511 l 1,2,-1
 167 511 l 1,3,-1
 167 376 l 1,0,-1
55 131 m 1,4,-1
 40 -189 l 1,5,-1
 182 -189 l 1,6,-1
 167 131 l 1,7,-1
 167 270 l 1,8,-1
 55 270 l 1,9,-1
 55 131 l 1,4,-1
EndSplineSet
EndChar

StartChar: questiondown
Encoding: 191 191 17
Width: 309
Flags: MW
HStem: -189 124<193 279 193 279 112 279> 376 135<120 242 120 242>
VStem: 28 146<-52.5 -42 -52.5 -30> 120 122<229 270 173 270 376 511>
LayerCount: 2
Fore
SplineSet
242 376 m 1,0,-1
 120 376 l 1,1,-1
 120 511 l 1,2,-1
 242 511 l 1,3,-1
 242 376 l 1,0,-1
242 270 m 1,4,-1
 242 225 l 2,5,6
 242 189 242 189 234 148.5 c 128,-1,7
 226 108 226 108 219.5 87 c 128,-1,8
 213 66 213 66 198 28.5 c 128,-1,9
 183 -9 183 -9 183 -10 c 0,10,11
 174 -33 174 -33 174 -47 c 0,12,13
 174 -65 174 -65 193 -65 c 2,14,-1
 279 -65 l 1,15,-1
 279 -189 l 1,16,-1
 112 -189 l 1,17,18
 66 -170 66 -170 47 -133 c 128,-1,19
 28 -96 28 -96 28 -59 c 0,20,21
 28 -39 28 -39 34.5 -16.5 c 128,-1,22
 41 6 41 6 47 18.5 c 128,-1,23
 53 31 53 31 68 57.5 c 128,-1,24
 83 84 83 84 87 91 c 2,25,-1
 91 99 l 2,26,27
 120 157 120 157 120 229 c 2,28,-1
 120 270 l 1,29,-1
 242 270 l 1,4,-1
EndSplineSet
EndChar

StartChar: at
Encoding: 64 64 18
Width: 722
Flags: MW
HStem: -140 105<272 501 272 501 236 501> 20 100<279 394 279 394 341 423 341 580> 250 98<287 394 287 344> 406 105<260 511 260 260>
VStem: 25 115<120.5 250 120.5 263.5> 206 117<173.5 199 173.5 213> 394 115<120 250 250 250> 581 115<222.5 292>
LayerCount: 2
Fore
SplineSet
341 120 m 1,0,-1
 394 120 l 1,1,-1
 394 250 l 1,2,-1
 344 250 l 1,3,4
 323 220 323 220 323 185 c 128,-1,5
 323 150 323 150 341 120 c 1,0,-1
325 20 m 2,6,-1
 279 20 l 1,7,8
 206 87 206 87 206 182 c 0,9,10
 206 282 206 282 287 348 c 1,11,-1
 325 348 l 2,12,13
 376 348 376 348 404 325 c 1,14,-1
 409 348 l 1,15,-1
 509 348 l 1,16,-1
 509 116 l 1,17,-1
 530 116 l 1,18,19
 559 146 559 146 570 176 c 128,-1,20
 581 206 581 206 581 260 c 0,21,22
 581 306 581 306 564 338.5 c 128,-1,23
 547 371 547 371 511 406 c 1,24,-1
 260 406 l 1,25,26
 140 325 140 325 140 190 c 0,27,28
 140 150 140 150 149 116 c 128,-1,29
 158 82 158 82 170.5 59.5 c 128,-1,30
 183 37 183 37 203 17.5 c 128,-1,31
 223 -2 223 -2 237.5 -12.5 c 128,-1,32
 252 -23 252 -23 272 -35 c 1,33,-1
 501 -35 l 1,34,-1
 501 -140 l 1,35,-1
 236 -140 l 1,36,37
 134 -87 134 -87 79.5 -11 c 128,-1,38
 25 65 25 65 25 190 c 0,39,40
 25 381 25 381 225 511 c 1,41,-1
 557 511 l 1,42,43
 696 407 696 407 696 260 c 0,44,45
 696 184 696 184 668.5 132.5 c 128,-1,46
 641 81 641 81 580 20 c 1,47,-1
 423 20 l 1,48,-1
 410 46 l 1,49,50
 395 29 395 29 377.5 24.5 c 128,-1,51
 360 20 360 20 325 20 c 2,6,-1
EndSplineSet
EndChar

StartChar: A
Encoding: 65 65 19
Width: 490
Flags: MW
HStem: 0 21G<10 146 10 10 346 480 346 346> 111 107<183 308 183 325 167 308> 570 130<244 244 244 246> 680 20G<145 352 352 352>
VStem: 10 470<0 0>
LayerCount: 2
Fore
SplineSet
346 0 m 1,0,-1
 325 111 l 1,1,-1
 167 111 l 1,2,-1
 146 0 l 1,3,-1
 10 0 l 1,4,-1
 145 700 l 1,5,-1
 352 700 l 1,6,-1
 480 0 l 1,7,-1
 346 0 l 1,0,-1
244 570 m 1,8,-1
 205 337 l 1,9,-1
 183 218 l 1,10,-1
 308 218 l 1,11,-1
 285 337 l 1,12,-1
 246 570 l 1,13,-1
 244 570 l 1,8,-1
EndSplineSet
EndChar

StartChar: B
Encoding: 66 66 20
Width: 501
Flags: MW
HStem: 116 182<184 287 287 287> 411 169<184 283 283 283>
VStem: 184 143<411 519.5 475.5 519.5 475.5 580> 184 150<116 232.5 193.5 232.5 193.5 298>
LayerCount: 2
Fore
SplineSet
48 0 m 1,0,-1
 48 700 l 1,1,-1
 333 700 l 1,2,3
 382 682 382 682 420 637 c 128,-1,4
 458 592 458 592 458 528 c 0,5,6
 458 415 458 415 384 370 c 1,7,-1
 384 366 l 1,8,9
 476 315 476 315 476 206 c 0,10,11
 476 81 476 81 349 0 c 1,12,-1
 48 0 l 1,0,-1
184 411 m 1,13,-1
 283 411 l 1,14,15
 327 438 327 438 327 497 c 0,16,17
 327 548 327 548 286 580 c 1,18,-1
 184 580 l 1,19,-1
 184 411 l 1,13,-1
184 116 m 1,20,-1
 287 116 l 1,21,22
 305 129 305 129 319.5 157 c 128,-1,23
 334 185 334 185 334 215 c 0,24,25
 334 241 334 241 322 264 c 128,-1,26
 310 287 310 287 292 298 c 1,27,-1
 184 298 l 1,28,-1
 184 116 l 1,20,-1
EndSplineSet
EndChar

StartChar: C
Encoding: 67 67 21
Width: 443
Flags: MW
HStem: 0 116<242 418 242 418 164 418> 580 120<242 418 242 242>
VStem: 30 146<306.5 389.5 306.5 415>
LayerCount: 2
Fore
SplineSet
242 116 m 1,0,-1
 418 116 l 1,1,-1
 418 0 l 1,2,-1
 164 0 l 1,3,4
 98 62 98 62 64 157 c 128,-1,5
 30 252 30 252 30 345 c 0,6,7
 30 453 30 453 68 546 c 128,-1,8
 106 639 106 639 181 700 c 1,9,-1
 418 700 l 1,10,-1
 418 580 l 1,11,-1
 242 580 l 1,12,13
 215 549 215 549 195.5 480 c 128,-1,14
 176 411 176 411 176 348 c 128,-1,15
 176 285 176 285 195.5 216 c 128,-1,16
 215 147 215 147 242 116 c 1,0,-1
EndSplineSet
EndChar

StartChar: D
Encoding: 68 68 22
Width: 510
Flags: MW
HStem: 0 700<48 338 48 338 48 347>
VStem: 184 151<309 392 309 580>
LayerCount: 2
Fore
SplineSet
184 116 m 1,0,-1
 274 116 l 1,1,2
 302 151 302 151 318.5 218 c 128,-1,3
 335 285 335 285 335 351 c 0,4,5
 335 508 335 508 276 580 c 1,6,-1
 184 580 l 1,7,-1
 184 116 l 1,0,-1
48 0 m 1,8,-1
 48 700 l 1,9,-1
 338 700 l 1,10,11
 480 574 480 574 480 351 c 0,12,13
 480 143 480 143 347 0 c 1,14,-1
 48 0 l 1,8,-1
EndSplineSet
EndChar

StartChar: E
Encoding: 69 69 23
Width: 440
Flags: MW
HStem: 116 181<185 383 185 411 185 411> 413 167<185 383 383 383>
VStem: 48 363<0 116 0 700>
LayerCount: 2
Fore
SplineSet
48 0 m 1,0,-1
 48 700 l 1,1,-1
 407 700 l 1,2,-1
 407 580 l 1,3,-1
 185 580 l 1,4,-1
 185 413 l 1,5,-1
 383 413 l 1,6,-1
 383 297 l 1,7,-1
 185 297 l 1,8,-1
 185 116 l 1,9,-1
 411 116 l 1,10,-1
 411 0 l 1,11,-1
 48 0 l 1,0,-1
EndSplineSet
EndChar

StartChar: F
Encoding: 70 70 24
Width: 423
Flags: MW
HStem: 405 175<185 383 383 383>
VStem: 48 365<580 700 580 700 580 700>
LayerCount: 2
Fore
SplineSet
48 0 m 1,0,-1
 48 700 l 1,1,-1
 413 700 l 1,2,-1
 413 580 l 1,3,-1
 185 580 l 1,4,-1
 185 405 l 1,5,-1
 383 405 l 1,6,-1
 383 289 l 1,7,-1
 185 289 l 1,8,-1
 185 0 l 1,9,-1
 48 0 l 1,0,-1
EndSplineSet
EndChar

StartChar: G
Encoding: 71 71 25
Width: 494
Flags: MW
HStem: 0 116<236 332 236 380 168 332> 580 120<239 425 239 239>
VStem: 30 145<299 399 299 410> 332 132<170.5 220 220 388>
LayerCount: 2
Fore
SplineSet
380 0 m 1,0,-1
 168 0 l 1,1,2
 96 66 96 66 63 157 c 128,-1,3
 30 248 30 248 30 340 c 0,4,5
 30 447 30 447 70 544 c 128,-1,6
 110 641 110 641 182 700 c 1,7,-1
 425 700 l 1,8,-1
 425 580 l 1,9,-1
 239 580 l 1,10,11
 213 550 213 550 194 485.5 c 128,-1,12
 175 421 175 421 175 349 c 0,13,14
 175 276 175 276 192.5 210.5 c 128,-1,15
 210 145 210 145 236 116 c 1,16,-1
 332 116 l 1,17,-1
 332 388 l 1,18,-1
 464 388 l 1,19,-1
 464 220 l 2,20,21
 464 82 464 82 380 0 c 1,0,-1
EndSplineSet
EndChar

StartChar: H
Encoding: 72 72 26
Width: 530
Flags: MW
HStem: 0 700<48 185 48 185 48 345 345 482>
VStem: 185 160<0 290 0 290 0 418 418 700>
LayerCount: 2
Fore
SplineSet
185 0 m 1,0,-1
 48 0 l 1,1,-1
 48 700 l 1,2,-1
 185 700 l 1,3,-1
 185 418 l 1,4,-1
 345 418 l 1,5,-1
 345 700 l 1,6,-1
 482 700 l 1,7,-1
 482 0 l 1,8,-1
 345 0 l 1,9,-1
 345 290 l 1,10,-1
 185 290 l 1,11,-1
 185 0 l 1,0,-1
EndSplineSet
EndChar

StartChar: I
Encoding: 73 73 27
Width: 233
Flags: MW
HStem: 0 700<48 185 48 185>
VStem: 48 137<0 700 0 700>
LayerCount: 2
Fore
SplineSet
48 0 m 1,0,-1
 48 700 l 1,1,-1
 185 700 l 1,2,-1
 185 0 l 1,3,-1
 48 0 l 1,0,-1
EndSplineSet
EndChar

StartChar: J
Encoding: 74 74 28
Width: 326
Flags: MW
HStem: 0 116<16 119 16 174 16 119> 680 20G<147 284 284 284>
VStem: 147 137<293 340 340 700>
LayerCount: 2
Fore
SplineSet
16 116 m 1,0,-1
 119 116 l 1,1,2
 137 139 137 139 142 169.5 c 128,-1,3
 147 200 147 200 147 293 c 2,4,-1
 147 700 l 1,5,-1
 284 700 l 1,6,-1
 284 340 l 2,7,8
 284 273 284 273 281.5 236 c 128,-1,9
 279 199 279 199 269 151.5 c 128,-1,10
 259 104 259 104 236 68 c 128,-1,11
 213 32 213 32 174 0 c 1,12,-1
 16 0 l 1,13,-1
 16 116 l 1,0,-1
EndSplineSet
EndChar

StartChar: K
Encoding: 75 75 29
Width: 463
Flags: MW
HStem: 0 700<48 185 48 185 48 311 315 456 48 463>
VStem: 185 7<0 306> 185 130<405 700>
LayerCount: 2
Fore
SplineSet
48 0 m 1,0,-1
 48 700 l 1,1,-1
 185 700 l 1,2,-1
 185 405 l 1,3,-1
 190 405 l 1,4,-1
 315 700 l 1,5,-1
 456 700 l 1,6,-1
 310 366 l 1,7,-1
 463 0 l 1,8,-1
 311 0 l 1,9,-1
 192 306 l 1,10,-1
 185 306 l 1,11,-1
 185 0 l 1,12,-1
 48 0 l 1,0,-1
EndSplineSet
EndChar

StartChar: L
Encoding: 76 76 30
Width: 413
Flags: MW
HStem: 0 700<48 185 48 185 48 393>
VStem: 48 345<0 116 0 700>
LayerCount: 2
Fore
SplineSet
48 0 m 1,0,-1
 48 700 l 1,1,-1
 185 700 l 1,2,-1
 185 116 l 1,3,-1
 393 116 l 1,4,-1
 393 0 l 1,5,-1
 48 0 l 1,0,-1
EndSplineSet
EndChar

StartChar: M
Encoding: 77 77 31
Width: 602
Flags: MW
HStem: 0 21G<33 164 33 33 438 569 438 438> 680 20G<78 203 203 203 399 524 524 524>
VStem: 33 536<0 0>
LayerCount: 2
Fore
SplineSet
303 320 m 1,0,-1
 299 320 l 1,1,-1
 303 320 l 1,2,-1
 356 539 l 1,3,-1
 399 700 l 1,4,-1
 524 700 l 1,5,-1
 569 0 l 1,6,-1
 438 0 l 1,7,-1
 419 382 l 1,8,-1
 414 382 l 1,9,-1
 342 100 l 1,10,-1
 260 100 l 1,11,-1
 188 382 l 1,12,-1
 183 382 l 1,13,-1
 164 0 l 1,14,-1
 33 0 l 1,15,-1
 78 700 l 1,16,-1
 203 700 l 1,17,-1
 246 539 l 1,18,-1
 299 320 l 1,19,-1
 303 320 l 1,0,-1
EndSplineSet
EndChar

StartChar: N
Encoding: 78 78 32
Width: 501
Flags: MW
HStem: 0 21G<48 174 48 48 360 453 360 360> 680 20G<48 149 149 149 327 453 453 453>
VStem: 48 126<0 267 0 700> 327 126<423 700 0 700>
LayerCount: 2
Fore
SplineSet
360 0 m 1,0,-1
 173 387 l 1,1,-1
 168 385 l 1,2,-1
 174 267 l 1,3,-1
 174 0 l 1,4,-1
 48 0 l 1,5,-1
 48 700 l 1,6,-1
 149 700 l 1,7,-1
 333 298 l 1,8,-1
 338 300 l 1,9,-1
 327 423 l 1,10,-1
 327 700 l 1,11,-1
 453 700 l 1,12,-1
 453 0 l 1,13,-1
 360 0 l 1,0,-1
EndSplineSet
EndChar

StartChar: O
Encoding: 79 79 33
Width: 542
Flags: MW
HStem: 0 116<235 307 235 374 168 307> 580 120<235 308 235 235>
VStem: 30 145<299 399 299 410> 367 145<299 399>
LayerCount: 2
Fore
SplineSet
374 700 m 1,0,1
 444 643 444 643 478 547 c 128,-1,2
 512 451 512 451 512 340 c 0,3,4
 512 248 512 248 479 157 c 128,-1,5
 446 66 446 66 374 0 c 1,6,-1
 168 0 l 1,7,8
 96 66 96 66 63 157 c 128,-1,9
 30 248 30 248 30 340 c 0,10,11
 30 451 30 451 64 547 c 128,-1,12
 98 643 98 643 168 700 c 1,13,-1
 374 700 l 1,0,1
235 116 m 1,14,-1
 307 116 l 1,15,16
 332 145 332 145 349.5 210.5 c 128,-1,17
 367 276 367 276 367 349 c 128,-1,18
 367 422 367 422 350 486.5 c 128,-1,19
 333 551 333 551 308 580 c 1,20,-1
 235 580 l 1,21,22
 210 551 210 551 192.5 486.5 c 128,-1,23
 175 422 175 422 175 349 c 128,-1,24
 175 276 175 276 192.5 210.5 c 128,-1,25
 210 145 210 145 235 116 c 1,14,-1
EndSplineSet
EndChar

StartChar: P
Encoding: 80 80 34
Width: 491
Flags: MW
HStem: 330 250<183 272 272 272>
VStem: 183 144<434 488 434 580 330 488>
LayerCount: 2
Fore
SplineSet
183 580 m 1,0,-1
 183 330 l 1,1,-1
 272 330 l 1,2,3
 327 375 327 375 327 462 c 0,4,5
 327 499 327 499 312.5 532 c 128,-1,6
 298 565 298 565 278 580 c 1,7,-1
 183 580 l 1,0,-1
48 0 m 1,8,-1
 48 700 l 1,9,-1
 319 700 l 1,10,11
 387 670 387 670 426.5 608 c 128,-1,12
 466 546 466 546 466 465 c 0,13,14
 466 381 466 381 425 311 c 128,-1,15
 384 241 384 241 304 212 c 1,16,-1
 183 212 l 1,17,-1
 183 0 l 1,18,-1
 48 0 l 1,8,-1
EndSplineSet
EndChar

StartChar: Q
Encoding: 81 81 35
Width: 542
Flags: MW
HStem: 0 116<168 307 168 307 235 374 235 341> 580 120<235 308 235 235>
VStem: 30 145<299 399 299 410> 367 145<299 399>
LayerCount: 2
Fore
SplineSet
374 700 m 1,0,1
 444 643 444 643 478 547 c 128,-1,2
 512 451 512 451 512 340 c 0,3,4
 512 248 512 248 479 157 c 128,-1,5
 446 66 446 66 374 0 c 1,6,-1
 341 0 l 1,7,-1
 372 -113 l 1,8,-1
 244 -113 l 1,9,-1
 213 0 l 1,10,-1
 168 0 l 1,11,12
 96 66 96 66 63 157 c 128,-1,13
 30 248 30 248 30 340 c 0,14,15
 30 451 30 451 64 547 c 128,-1,16
 98 643 98 643 168 700 c 1,17,-1
 374 700 l 1,0,1
235 116 m 1,18,-1
 307 116 l 1,19,20
 332 145 332 145 349.5 210.5 c 128,-1,21
 367 276 367 276 367 349 c 128,-1,22
 367 422 367 422 350 486.5 c 128,-1,23
 333 551 333 551 308 580 c 1,24,-1
 235 580 l 1,25,26
 210 551 210 551 192.5 486.5 c 128,-1,27
 175 422 175 422 175 349 c 128,-1,28
 175 276 175 276 192.5 210.5 c 128,-1,29
 210 145 210 145 235 116 c 1,18,-1
EndSplineSet
EndChar

StartChar: R
Encoding: 82 82 36
Width: 490
Flags: MW
HStem: 367 213<183 269 269 269>
VStem: 183 144<367 504 443 504 443 580>
LayerCount: 2
Fore
SplineSet
48 700 m 1,0,-1
 314 700 l 1,1,2
 377 679 377 679 421.5 622.5 c 128,-1,3
 466 566 466 566 466 484 c 0,4,5
 466 350 466 350 360 287 c 1,6,-1
 461 0 l 1,7,-1
 321 0 l 1,8,-1
 236 255 l 1,9,-1
 183 255 l 1,10,-1
 183 0 l 1,11,-1
 48 0 l 1,12,-1
 48 700 l 1,0,-1
183 580 m 1,13,-1
 183 367 l 1,14,-1
 269 367 l 1,15,16
 286 371 286 371 306.5 401.5 c 128,-1,17
 327 432 327 432 327 476 c 0,18,19
 327 514 327 514 309.5 545 c 128,-1,20
 292 576 292 576 275 580 c 1,21,-1
 183 580 l 1,13,-1
EndSplineSet
EndChar

StartChar: S
Encoding: 83 83 37
Width: 388
Flags: MW
HStem: 0 116<34 241 34 299 34 241> 580 120<160 352 160 160>
VStem: 25 341
LayerCount: 2
Fore
SplineSet
112 700 m 1,0,-1
 352 700 l 1,1,-1
 352 580 l 1,2,-1
 160 580 l 1,3,-1
 157 574 l 1,4,-1
 317 282 l 2,5,6
 366 194 366 194 366 148 c 0,7,8
 366 47 366 47 299 0 c 1,9,-1
 34 0 l 1,10,-1
 34 116 l 1,11,-1
 241 116 l 1,12,-1
 244 122 l 1,13,-1
 64 445 l 2,14,15
 25 515 25 515 25 559 c 0,16,17
 25 663 25 663 112 700 c 1,0,-1
EndSplineSet
EndChar

StartChar: T
Encoding: 84 84 38
Width: 458
Flags: MW
HStem: 0 21G<161 297 161 161> 580 120<10 161 10 448 297 297 297 448>
VStem: 161 136<0 580 0 580>
LayerCount: 2
Fore
SplineSet
161 580 m 1,0,-1
 10 580 l 1,1,-1
 10 700 l 1,2,-1
 448 700 l 1,3,-1
 448 580 l 1,4,-1
 297 580 l 1,5,-1
 297 0 l 1,6,-1
 161 0 l 1,7,-1
 161 580 l 1,0,-1
EndSplineSet
EndChar

StartChar: U
Encoding: 85 85 39
Width: 526
Flags: MW
HStem: 0 116<221 305 221 374 152 305> 680 20G<43 180 180 180 346 483 483 483>
VStem: 43 137<287 700> 346 137<237 287 287 700>
LayerCount: 2
Fore
SplineSet
221 116 m 1,0,-1
 305 116 l 1,1,2
 327 140 327 140 336.5 164.5 c 128,-1,3
 346 189 346 189 346 237 c 2,4,-1
 346 700 l 1,5,-1
 483 700 l 1,6,-1
 483 287 l 2,7,8
 483 236 483 236 480.5 207.5 c 128,-1,9
 478 179 478 179 468.5 138.5 c 128,-1,10
 459 98 459 98 435.5 65 c 128,-1,11
 412 32 412 32 374 0 c 1,12,-1
 152 0 l 1,13,14
 114 31 114 31 90.5 64 c 128,-1,15
 67 97 67 97 57.5 137.5 c 128,-1,16
 48 178 48 178 45.5 207.5 c 128,-1,17
 43 237 43 237 43 287 c 2,18,-1
 43 700 l 1,19,-1
 180 700 l 1,20,-1
 180 237 l 2,21,22
 180 189 180 189 189.5 164.5 c 128,-1,23
 199 140 199 140 221 116 c 1,0,-1
EndSplineSet
EndChar

StartChar: V
Encoding: 86 86 40
Width: 482
Flags: MW
HStem: 0 21G<147 335 147 147> 0 166<238 244 238 335 147 244> 680 20G<5 149 149 149 333 477 477 477>
VStem: 5 472<700 700>
LayerCount: 2
Fore
SplineSet
477 700 m 1,0,-1
 335 0 l 1,1,-1
 147 0 l 1,2,-1
 5 700 l 1,3,-1
 149 700 l 1,4,-1
 204 376 l 1,5,-1
 238 166 l 1,6,-1
 244 166 l 1,7,-1
 278 376 l 1,8,-1
 333 700 l 1,9,-1
 477 700 l 1,0,-1
EndSplineSet
EndChar

StartChar: W
Encoding: 87 87 41
Width: 644
Flags: MW
HStem: 0 21G<107 247 107 107 393 537 393 393> 680 20G<10 144 144 144 266 379 379 379 500 634 634 634>
VStem: 10 624<700 700>
LayerCount: 2
Fore
SplineSet
393 0 m 1,0,-1
 323 413 l 1,1,-1
 319 413 l 1,2,-1
 247 0 l 1,3,-1
 107 0 l 1,4,-1
 10 700 l 1,5,-1
 144 700 l 1,6,-1
 172 494 l 1,7,-1
 193 262 l 1,8,-1
 198 262 l 1,9,-1
 235 493 l 1,10,-1
 266 700 l 1,11,-1
 379 700 l 1,12,-1
 409 493 l 1,13,-1
 447 262 l 1,14,-1
 452 262 l 1,15,-1
 472 494 l 1,16,-1
 500 700 l 1,17,-1
 634 700 l 1,18,-1
 537 0 l 1,19,-1
 393 0 l 1,0,-1
EndSplineSet
EndChar

StartChar: X
Encoding: 88 88 42
Width: 462
Flags: MW
HStem: 0 700<20 155 13 158 307 442 20 449 307 307>
VStem: 13 436<0 0>
LayerCount: 2
Fore
SplineSet
158 700 m 1,0,-1
 229 415 l 1,1,-1
 233 415 l 1,2,-1
 304 700 l 1,3,-1
 442 700 l 1,4,-1
 346 366 l 1,5,-1
 449 0 l 1,6,-1
 307 0 l 1,7,-1
 233 300 l 1,8,-1
 229 300 l 1,9,-1
 155 0 l 1,10,-1
 13 0 l 1,11,-1
 116 366 l 1,12,-1
 20 700 l 1,13,-1
 158 700 l 1,0,-1
EndSplineSet
EndChar

StartChar: Y
Encoding: 89 89 43
Width: 442
Flags: MW
HStem: 0 21G<148 294 148 148> 680 20G<0 136 136 136 306 442 442 442>
VStem: 148 146<0 233>
LayerCount: 2
Fore
SplineSet
294 0 m 1,0,-1
 148 0 l 1,1,-1
 148 233 l 1,2,-1
 0 700 l 1,3,-1
 136 700 l 1,4,-1
 198 487 l 1,5,-1
 219 364 l 1,6,-1
 223 364 l 1,7,-1
 244 487 l 1,8,-1
 306 700 l 1,9,-1
 442 700 l 1,10,-1
 294 233 l 1,11,-1
 294 0 l 1,0,-1
EndSplineSet
EndChar

StartChar: Z
Encoding: 90 90 44
Width: 432
Flags: MW
HStem: 0 700<24 406 24 407 24 406>
VStem: 24 383<0 114 114 114>
LayerCount: 2
Fore
SplineSet
406 583 m 1,0,-1
 169 116 l 1,1,-1
 407 116 l 1,2,-1
 407 0 l 1,3,-1
 24 0 l 1,4,-1
 24 114 l 1,5,-1
 260 580 l 1,6,-1
 24 580 l 1,7,-1
 24 700 l 1,8,-1
 406 700 l 1,9,-1
 406 583 l 1,0,-1
EndSplineSet
EndChar

StartChar: a
Encoding: 97 97 45
Width: 458
Flags: MW
HStem: 0 105<114 284 114 284 178 419 178 305> 231 97<177 210 210 223 116 284 177 177> 406 105<69 249 69 317>
VStem: 29 127<156.5 183 156.5 193> 284 131<126.5 152 152 231 231 231>
LayerCount: 2
Fore
SplineSet
284 231 m 1,0,-1
 177 231 l 1,1,2
 156 205 156 205 156 169 c 0,3,4
 156 127 156 127 178 105 c 1,5,-1
 284 105 l 1,6,-1
 284 231 l 1,0,-1
69 511 m 1,7,-1
 317 511 l 1,8,9
 377 475 377 475 396 428.5 c 128,-1,10
 415 382 415 382 415 302 c 2,11,-1
 415 152 l 2,12,13
 415 69 415 69 419 0 c 1,14,-1
 305 0 l 1,15,-1
 287 36 l 1,16,17
 248 0 248 0 177 0 c 2,18,-1
 114 0 l 1,19,20
 29 56 29 56 29 162 c 0,21,22
 29 267 29 267 116 328 c 1,23,-1
 210 328 l 2,24,25
 249 328 249 328 283 304 c 1,26,-1
 283 354 l 2,27,28
 283 393 283 393 249 406 c 1,29,-1
 69 406 l 1,30,-1
 69 511 l 1,7,-1
EndSplineSet
EndChar

StartChar: b
Encoding: 98 98 46
Width: 474
Flags: MW
HStem: 0 105<43 272 231.5 250 250 272 176 345> 406 105<176 355 176 355> 680 20G<43 175 175 175>
VStem: 43 133<105 105 105 406> 309 136<224.5 289.5>
LayerCount: 2
Fore
SplineSet
43 700 m 1,0,-1
 175 700 l 1,1,-1
 175 475 l 1,2,3
 197 495 197 495 216.5 503 c 128,-1,4
 236 511 236 511 275 511 c 2,5,-1
 355 511 l 1,6,7
 397 470 397 470 421 405 c 128,-1,8
 445 340 445 340 445 262 c 0,9,10
 445 95 445 95 345 0 c 1,11,-1
 250 0 l 2,12,13
 201 0 201 0 168 37 c 1,14,-1
 150 0 l 1,15,-1
 43 0 l 1,16,-1
 43 700 l 1,0,-1
176 105 m 1,17,-1
 272 105 l 1,18,19
 309 168 309 168 309 258 c 128,-1,20
 309 348 309 348 271 406 c 1,21,-1
 176 406 l 1,22,-1
 176 105 l 1,17,-1
EndSplineSet
EndChar

StartChar: c
Encoding: 99 99 47
Width: 390
Flags: MW
HStem: 0 511<155 366 155 366 147 366> 105 301<216 366 216 366>
VStem: 29 337<0 303.5>
LayerCount: 2
Fore
SplineSet
167 260 m 0,0,1
 167 218 167 218 180 174.5 c 128,-1,2
 193 131 193 131 216 105 c 1,3,-1
 366 105 l 1,4,-1
 366 0 l 1,5,-1
 147 0 l 1,6,7
 29 94 29 94 29 262 c 0,8,9
 29 426 29 426 155 511 c 1,10,-1
 366 511 l 1,11,-1
 366 406 l 1,12,-1
 216 406 l 1,13,14
 167 355 167 355 167 260 c 0,0,1
EndSplineSet
EndChar

StartChar: d
Encoding: 100 100 48
Width: 473
Flags: MW
HStem: 0 105<200 211 124 297 200 430 200 329> 406 105<201 213 213 231.5 127 297 201 201> 680 20G<297 430 430 430>
VStem: 29 135<221.5 286.5 221.5 321.5> 297 133<105 406 406 406 483 700>
LayerCount: 2
Fore
SplineSet
430 0 m 1,0,-1
 329 0 l 1,1,-1
 311 36 l 1,2,3
 289 16 289 16 269.5 8 c 128,-1,4
 250 0 250 0 211 0 c 2,5,-1
 124 0 l 1,6,7
 80 42 80 42 54.5 110 c 128,-1,8
 29 178 29 178 29 256 c 0,9,10
 29 347 29 347 54.5 406 c 128,-1,11
 80 465 80 465 127 511 c 1,12,-1
 213 511 l 2,13,14
 266 511 266 511 297 483 c 1,15,-1
 297 700 l 1,16,-1
 430 700 l 1,17,-1
 430 0 l 1,0,-1
297 406 m 1,18,-1
 201 406 l 1,19,20
 164 343 164 343 164 253 c 0,21,22
 164 160 164 160 200 105 c 1,23,-1
 297 105 l 1,24,-1
 297 406 l 1,18,-1
EndSplineSet
EndChar

StartChar: e
Encoding: 101 101 49
Width: 454
Flags: MW
HStem: 0 105<221 410 221 410 156 410> 200 94<172 308 165 421 172 172> 406 105<199 274 199 199>
VStem: 29 136<294 303> 308 122<294 294>
LayerCount: 2
Fore
SplineSet
274 406 m 1,0,-1
 199 406 l 1,1,2
 184 388 184 388 174.5 356 c 128,-1,3
 165 324 165 324 165 294 c 1,4,-1
 308 294 l 1,5,6
 310 324 310 324 300 356.5 c 128,-1,7
 290 389 290 389 274 406 c 1,0,-1
410 105 m 1,8,-1
 410 0 l 1,9,-1
 156 0 l 1,10,11
 86 47 86 47 57.5 116.5 c 128,-1,12
 29 186 29 186 29 257 c 0,13,14
 29 421 29 421 153 511 c 1,15,-1
 315 511 l 1,16,17
 382 462 382 462 406 407 c 128,-1,18
 430 352 430 352 430 281 c 0,19,20
 430 240 430 240 421 200 c 1,21,-1
 172 200 l 1,22,23
 175 177 175 177 189.5 147.5 c 128,-1,24
 204 118 204 118 221 105 c 1,25,-1
 410 105 l 1,8,-1
EndSplineSet
EndChar

StartChar: f
Encoding: 102 102 50
Width: 310
Flags: MW
HStem: 511 84<231 301 301 301>
VStem: 9 312<406 700 511 700>
LayerCount: 2
Fore
SplineSet
177 700 m 1,0,-1
 321 700 l 1,1,-1
 321 595 l 1,2,-1
 231 595 l 1,3,4
 197 574 197 574 197 511 c 1,5,-1
 301 511 l 1,6,-1
 301 406 l 1,7,-1
 197 406 l 1,8,-1
 197 0 l 1,9,-1
 64 0 l 1,10,-1
 64 406 l 1,11,-1
 9 406 l 1,12,-1
 9 511 l 1,13,-1
 64 511 l 1,14,15
 64 641 64 641 177 700 c 1,0,-1
EndSplineSet
EndChar

StartChar: g
Encoding: 103 103 51
Width: 469
Flags: MW
HStem: -150 104<105 276 105 333 105 276> 30 101<110 297 110 297> 406 105<200 205 205 233 131 297 200 200>
VStem: 29 135<237 295 237 321> 297 133<131 406 406 406>
LayerCount: 2
Fore
SplineSet
430 511 m 1,0,-1
 430 53 l 2,1,2
 430 -23 430 -23 410.5 -69 c 128,-1,3
 391 -115 391 -115 333 -150 c 1,4,-1
 105 -150 l 1,5,-1
 105 -46 l 1,6,-1
 276 -46 l 1,7,8
 301 -31 301 -31 301 2 c 2,9,-1
 301 61 l 1,10,11
 264 30 264 30 183 30 c 2,12,-1
 110 30 l 1,13,14
 29 127 29 127 29 255 c 0,15,16
 29 347 29 347 55 405.5 c 128,-1,17
 81 464 81 464 131 511 c 1,18,-1
 205 511 l 2,19,20
 270 511 270 511 308 469 c 1,21,-1
 326 511 l 1,22,-1
 430 511 l 1,0,-1
297 406 m 1,23,-1
 200 406 l 1,24,25
 164 344 164 344 164 268 c 0,26,27
 164 183 164 183 195 131 c 1,28,-1
 297 131 l 1,29,-1
 297 406 l 1,23,-1
EndSplineSet
EndChar

StartChar: h
Encoding: 104 104 52
Width: 486
Flags: MW
HStem: 0 21G<43 176 43 43 314 447 314 314> 406 105<276 288 176 371> 680 20G<43 176 176 176>
VStem: 43 133<0 406 0 475 475 700> 314 133<0 259 0 269 0 300.5>
LayerCount: 2
Fore
SplineSet
276 511 m 2,0,-1
 371 511 l 1,1,2
 415 455 415 455 431 399 c 128,-1,3
 447 343 447 343 447 259 c 2,4,-1
 447 0 l 1,5,-1
 314 0 l 1,6,-1
 314 269 l 2,7,8
 314 364 314 364 288 406 c 1,9,-1
 176 406 l 1,10,-1
 176 0 l 1,11,-1
 43 0 l 1,12,-1
 43 700 l 1,13,-1
 176 700 l 1,14,-1
 176 475 l 1,15,16
 198 495 198 495 217.5 503 c 128,-1,17
 237 511 237 511 276 511 c 2,0,-1
EndSplineSet
EndChar

StartChar: i
Encoding: 105 105 53
Width: 218
Flags: MW
HStem: 0 21G<43 43 43 175> 491 20G<43 175 175 175>
VStem: 43 132<0 511 0 511 565 700>
LayerCount: 2
Fore
SplineSet
43 0 m 1,0,-1
 43 511 l 1,1,-1
 175 511 l 1,2,-1
 175 0 l 1,3,-1
 43 0 l 1,0,-1
43 700 m 1,4,-1
 175 700 l 1,5,-1
 175 565 l 1,6,-1
 43 565 l 1,7,-1
 43 700 l 1,4,-1
EndSplineSet
EndChar

StartChar: j
Encoding: 106 106 54
Width: 217
Flags: MW
HStem: -150 105<-51 18 -51 81 -51 18> 491 20G<43 174 174 174> 555 145<43 174 43 174>
VStem: 43 131<5.5 51 51 511 555 700>
LayerCount: 2
Fore
SplineSet
43 511 m 1,0,-1
 174 511 l 1,1,-1
 174 51 l 2,2,3
 174 -25 174 -25 156 -70 c 128,-1,4
 138 -115 138 -115 81 -150 c 1,5,-1
 -51 -150 l 1,6,-1
 -51 -45 l 1,7,-1
 18 -45 l 1,8,9
 43 -30 43 -30 43 3 c 2,10,-1
 43 511 l 1,0,-1
43 700 m 1,11,-1
 174 700 l 1,12,-1
 174 555 l 1,13,-1
 43 555 l 1,14,-1
 43 700 l 1,11,-1
EndSplineSet
EndChar

StartChar: k
Encoding: 107 107 55
Width: 426
Flags: MW
HStem: 0 700<43 176 43 176 43 283 43 415>
VStem: 176 14<329 700 329 329>
LayerCount: 2
Fore
SplineSet
43 0 m 1,0,-1
 43 700 l 1,1,-1
 176 700 l 1,2,-1
 176 329 l 1,3,-1
 190 329 l 1,4,-1
 284 511 l 1,5,-1
 414 511 l 1,6,-1
 296 288 l 1,7,-1
 415 0 l 1,8,-1
 283 0 l 1,9,-1
 191 224 l 1,10,-1
 176 224 l 1,11,-1
 176 0 l 1,12,-1
 43 0 l 1,0,-1
EndSplineSet
EndChar

StartChar: l
Encoding: 108 108 56
Width: 218
Flags: MW
HStem: 0 21G<43 175 43 43> 680 20G<43 175 175 175>
VStem: 43 132<0 700 0 700>
LayerCount: 2
Fore
SplineSet
175 700 m 1,0,-1
 175 0 l 1,1,-1
 43 0 l 1,2,-1
 43 700 l 1,3,-1
 175 700 l 1,0,-1
EndSplineSet
EndChar

StartChar: m
Encoding: 109 109 57
Width: 686
Flags: MW
HStem: 0 21G<43 176 43 43 279 412 279 279 514 647 514 514> 406 105<43 253 43 176 460 486>
VStem: 43 133<0 406 0 511 0 511> 279 133<0 269 269 289 0 300.5> 514 133<0 259 0 269 0 300.5>
LayerCount: 2
Fore
SplineSet
265 511 m 2,0,-1
 336 511 l 1,1,-1
 361 476 l 1,2,3
 382 495 382 495 401.5 503 c 128,-1,4
 421 511 421 511 460 511 c 2,5,-1
 571 511 l 1,6,7
 615 455 615 455 631 399 c 128,-1,8
 647 343 647 343 647 259 c 2,9,-1
 647 0 l 1,10,-1
 514 0 l 1,11,-1
 514 269 l 2,12,13
 514 361 514 361 486 406 c 1,14,-1
 390 406 l 1,15,16
 412 363 412 363 412 289 c 2,17,-1
 412 0 l 1,18,-1
 279 0 l 1,19,-1
 279 269 l 2,20,21
 279 364 279 364 253 406 c 1,22,-1
 176 406 l 1,23,-1
 176 0 l 1,24,-1
 43 0 l 1,25,-1
 43 511 l 1,26,-1
 147 511 l 1,27,-1
 165 475 l 1,28,29
 187 495 187 495 206.5 503 c 128,-1,30
 226 511 226 511 265 511 c 2,0,-1
EndSplineSet
EndChar

StartChar: n
Encoding: 110 110 58
Width: 486
Flags: MW
HStem: 0 21G<43 176 43 43 314 447 314 314> 406 105<265 288 43 176>
VStem: 43 133<0 406 0 511 0 511> 314 133<0 259 0 269 0 300.5>
LayerCount: 2
Fore
SplineSet
265 511 m 2,0,-1
 371 511 l 1,1,2
 415 455 415 455 431 399 c 128,-1,3
 447 343 447 343 447 259 c 2,4,-1
 447 0 l 1,5,-1
 314 0 l 1,6,-1
 314 269 l 2,7,8
 314 364 314 364 288 406 c 1,9,-1
 176 406 l 1,10,-1
 176 0 l 1,11,-1
 43 0 l 1,12,-1
 43 511 l 1,13,-1
 147 511 l 1,14,-1
 165 475 l 1,15,16
 187 495 187 495 206.5 503 c 128,-1,17
 226 511 226 511 265 511 c 2,0,-1
EndSplineSet
EndChar

StartChar: o
Encoding: 111 111 59
Width: 476
Flags: MW
HStem: 0 511<129 347 129 129>
VStem: 164 148<229.5 289>
LayerCount: 2
Fore
SplineSet
347 0 m 1,0,-1
 129 0 l 1,1,2
 29 93 29 93 29 254 c 0,3,4
 29 335 29 335 51.5 395 c 128,-1,5
 74 455 74 455 123 511 c 1,6,-1
 357 511 l 1,7,8
 409 451 409 451 428 394.5 c 128,-1,9
 447 338 447 338 447 254 c 0,10,11
 447 93 447 93 347 0 c 1,0,-1
200 105 m 1,12,-1
 276 105 l 1,13,14
 312 175 312 175 312 258 c 0,15,16
 312 353 312 353 275 406 c 1,17,-1
 200 406 l 1,18,19
 164 355 164 355 164 258 c 0,20,21
 164 168 164 168 200 105 c 1,12,-1
EndSplineSet
EndChar

StartChar: p
Encoding: 112 112 60
Width: 474
Flags: MW
HStem: -150 21G<43 176 43 43> 0 105<241.5 260 260 272 176 345> 28 77<176 272> 406 105<265 271 43 176>
VStem: 43 133<-150 28 105 406> 309 136<224.5 289.5>
LayerCount: 2
Fore
SplineSet
43 511 m 1,0,-1
 150 511 l 1,1,-1
 165 475 l 1,2,3
 187 495 187 495 206.5 503 c 128,-1,4
 226 511 226 511 265 511 c 2,5,-1
 355 511 l 1,6,7
 397 470 397 470 421 405 c 128,-1,8
 445 340 445 340 445 262 c 0,9,10
 445 95 445 95 345 0 c 1,11,-1
 260 0 l 2,12,13
 207 0 207 0 176 28 c 1,14,-1
 176 -150 l 1,15,-1
 43 -150 l 1,16,-1
 43 511 l 1,0,-1
176 105 m 1,17,-1
 272 105 l 1,18,19
 309 168 309 168 309 258 c 128,-1,20
 309 348 309 348 271 406 c 1,21,-1
 176 406 l 1,22,-1
 176 105 l 1,17,-1
EndSplineSet
EndChar

StartChar: q
Encoding: 113 113 61
Width: 473
Flags: MW
HStem: -150 21G<297 430 297 297> 0 104<201 213 129 297> 406 99<202 430> 406 105<202 208 208 236 124 297 202 202>
VStem: 29 135<224.5 289.5 224.5 314.5> 297 133<-150 28 28 28 104 406 406 406>
LayerCount: 2
Fore
SplineSet
323 505 m 1,0,-1
 430 505 l 1,1,-1
 430 -150 l 1,2,-1
 297 -150 l 1,3,-1
 297 28 l 1,4,5
 266 0 266 0 213 0 c 2,6,-1
 129 0 l 1,7,8
 29 95 29 95 29 262 c 0,9,10
 29 338 29 338 55 403.5 c 128,-1,11
 81 469 81 469 124 511 c 1,12,-1
 208 511 l 2,13,14
 247 511 247 511 266.5 503 c 128,-1,15
 286 495 286 495 308 475 c 1,16,-1
 323 505 l 1,0,-1
201 104 m 1,17,-1
 297 104 l 1,18,-1
 297 406 l 1,19,-1
 202 406 l 1,20,21
 164 348 164 348 164 258 c 0,22,23
 164 167 164 167 201 104 c 1,17,-1
EndSplineSet
EndChar

StartChar: r
Encoding: 114 114 62
Width: 318
Flags: MW
HStem: 0 511<44 139 44 139 44 177>
VStem: 44 260<377 511 377 511 377 511>
LayerCount: 2
Fore
SplineSet
44 0 m 1,0,-1
 44 511 l 1,1,-1
 139 511 l 1,2,-1
 164 457 l 1,3,4
 204 511 204 511 265 511 c 2,5,-1
 304 511 l 1,6,-1
 304 377 l 1,7,-1
 177 377 l 1,8,-1
 177 0 l 1,9,-1
 44 0 l 1,0,-1
EndSplineSet
EndChar

StartChar: s
Encoding: 115 115 63
Width: 350
Flags: MW
HStem: 0 511<93 275 20 314> 105 301<158 203 203 203>
VStem: 20 308<82.5 105 105 105>
LayerCount: 2
Fore
SplineSet
93 511 m 1,0,-1
 314 511 l 1,1,-1
 314 406 l 1,2,-1
 158 406 l 1,3,-1
 253 265 l 2,4,5
 260 255 260 255 275.5 232.5 c 128,-1,6
 291 210 291 210 297 200 c 128,-1,7
 303 190 303 190 312 172.5 c 128,-1,8
 321 155 321 155 324.5 139.5 c 128,-1,9
 328 124 328 124 328 107 c 0,10,11
 328 36 328 36 275 0 c 1,12,-1
 20 0 l 1,13,-1
 20 105 l 1,14,-1
 203 105 l 1,15,-1
 96 262 l 2,16,17
 91 270 91 270 79.5 286 c 128,-1,18
 68 302 68 302 64 307.5 c 128,-1,19
 60 313 60 313 52 325.5 c 128,-1,20
 44 338 44 338 41 344 c 128,-1,21
 38 350 38 350 33 359.5 c 128,-1,22
 28 369 28 369 26.5 375.5 c 128,-1,23
 25 382 25 382 23.5 390.5 c 128,-1,24
 22 399 22 399 22 407 c 0,25,26
 22 480 22 480 93 511 c 1,0,-1
EndSplineSet
EndChar

StartChar: t
Encoding: 116 116 64
Width: 312
Flags: MW
HStem: 0 650<146 206 73 288 146 146>
VStem: 4 284<406 511>
LayerCount: 2
Fore
SplineSet
73 223 m 2,0,-1
 73 406 l 1,1,-1
 4 406 l 1,2,-1
 4 511 l 1,3,-1
 73 511 l 1,4,-1
 73 650 l 1,5,-1
 206 650 l 1,6,-1
 206 511 l 1,7,-1
 288 511 l 1,8,-1
 288 406 l 1,9,-1
 206 406 l 1,10,-1
 206 191 l 2,11,12
 206 130 206 130 227 105 c 1,13,-1
 288 105 l 1,14,-1
 288 0 l 1,15,-1
 146 0 l 1,16,17
 120 24 120 24 104 49 c 128,-1,18
 88 74 88 74 82 106 c 128,-1,19
 76 138 76 138 74.5 159.5 c 128,-1,20
 73 181 73 181 73 223 c 2,0,-1
EndSplineSet
EndChar

StartChar: u
Encoding: 117 117 65
Width: 477
Flags: MW
HStem: 0 105<208 220 115 301 208 329 208 434> 491 20G<39 172 172 172 301 434 434 434>
VStem: 39 133<252 511> 301 133<105 511 0 511>
LayerCount: 2
Fore
SplineSet
220 0 m 2,0,-1
 115 0 l 1,1,2
 71 56 71 56 55 112 c 128,-1,3
 39 168 39 168 39 252 c 2,4,-1
 39 511 l 1,5,-1
 172 511 l 1,6,-1
 172 242 l 2,7,8
 172 151 172 151 208 105 c 1,9,-1
 301 105 l 1,10,-1
 301 511 l 1,11,-1
 434 511 l 1,12,-1
 434 0 l 1,13,-1
 329 0 l 1,14,-1
 311 36 l 1,15,16
 273 0 273 0 220 0 c 2,0,-1
EndSplineSet
EndChar

StartChar: v
Encoding: 118 118 66
Width: 473
Flags: MW
HStem: 0 105<206 267 206 329 144 267> 491 20G<40 173 173 173 300 433 433 433>
VStem: 40 133<245 249 249 511> 300 133<248 250 250 511>
LayerCount: 2
Fore
SplineSet
329 0 m 1,0,-1
 144 0 l 1,1,2
 96 39 96 39 68 103 c 128,-1,3
 40 167 40 167 40 245 c 2,4,-1
 40 511 l 1,5,-1
 173 511 l 1,6,-1
 173 249 l 2,7,8
 173 161 173 161 206 105 c 1,9,-1
 267 105 l 1,10,11
 300 164 300 164 300 248 c 2,12,-1
 300 511 l 1,13,-1
 433 511 l 1,14,-1
 433 250 l 2,15,16
 433 171 433 171 405 105 c 128,-1,17
 377 39 377 39 329 0 c 1,0,-1
EndSplineSet
EndChar

StartChar: w
Encoding: 119 119 67
Width: 684
Flags: MW
HStem: 0 511<134 173 40 217 134 134 40 467 511 550>
VStem: 173 103<213.5 245 245 511> 408 103<251 511 251 511>
LayerCount: 2
Fore
SplineSet
276 511 m 1,0,-1
 408 511 l 1,1,-1
 408 105 l 1,2,-1
 478 105 l 1,3,4
 511 158 511 158 511 251 c 2,5,-1
 511 511 l 1,6,-1
 644 511 l 1,7,-1
 644 245 l 2,8,9
 644 76 644 76 550 0 c 1,10,-1
 467 0 l 2,11,12
 390 0 390 0 340 46 c 1,13,14
 290 0 290 0 217 0 c 2,15,-1
 134 0 l 1,16,17
 40 66 40 66 40 245 c 2,18,-1
 40 511 l 1,19,-1
 173 511 l 1,20,-1
 173 245 l 2,21,22
 173 156 173 156 205 105 c 1,23,-1
 276 105 l 1,24,-1
 276 511 l 1,0,-1
EndSplineSet
EndChar

StartChar: x
Encoding: 120 120 68
Width: 421
Flags: MW
HStem: 0 511<8 141 4 145 280 413 8 417 280 280>
VStem: 4 413<0 0>
LayerCount: 2
Fore
SplineSet
212 321 m 1,0,-1
 274 511 l 1,1,-1
 413 511 l 1,2,-1
 318 262 l 1,3,-1
 417 0 l 1,4,-1
 280 0 l 1,5,-1
 211 198 l 1,6,-1
 207 198 l 1,7,-1
 141 0 l 1,8,-1
 4 0 l 1,9,-1
 103 262 l 1,10,-1
 8 511 l 1,11,-1
 145 511 l 1,12,-1
 208 321 l 1,13,-1
 212 321 l 1,0,-1
EndSplineSet
EndChar

StartChar: y
Encoding: 121 121 69
Width: 473
Flags: MW
HStem: -45 75<35 213 143 213>
VStem: 173 127<254 511 280 511>
LayerCount: 2
Fore
SplineSet
40 281 m 2,0,-1
 40 511 l 1,1,-1
 173 511 l 1,2,-1
 173 280 l 2,3,4
 173 193 173 193 208 135 c 1,5,-1
 267 135 l 1,6,7
 300 192 300 192 300 280 c 2,8,-1
 300 511 l 1,9,-1
 433 511 l 1,10,-1
 433 288 l 2,11,12
 433 213 433 213 413.5 156 c 128,-1,13
 394 99 394 99 350 27 c 2,14,-1
 283 -82 l 2,15,16
 265 -113 265 -113 245 -128 c 128,-1,17
 225 -143 225 -143 193 -150 c 1,18,-1
 35 -150 l 1,19,-1
 35 -45 l 1,20,-1
 143 -45 l 1,21,22
 164 -39 164 -39 178 -24 c 128,-1,23
 192 -9 192 -9 207 19 c 2,24,-1
 213 30 l 1,25,-1
 144 30 l 1,26,27
 96 69 96 69 68 135.5 c 128,-1,28
 40 202 40 202 40 281 c 2,0,-1
EndSplineSet
EndChar

StartChar: z
Encoding: 122 122 70
Width: 402
Flags: MW
HStem: 105 301<185 220 36 376 36 376>
VStem: 24 354
LayerCount: 2
Fore
SplineSet
378 434 m 1,0,-1
 185 105 l 1,1,-1
 376 105 l 1,2,-1
 376 0 l 1,3,-1
 24 0 l 1,4,-1
 24 77 l 1,5,-1
 220 406 l 1,6,-1
 36 406 l 1,7,-1
 36 511 l 1,8,-1
 378 511 l 1,9,-1
 378 434 l 1,0,-1
EndSplineSet
EndChar

StartChar: bracketleft
Encoding: 91 91 71
Width: 248
Flags: MW
HStem: -150 110<167 233 167 233> 690 110<167 233 167 167>
VStem: 45 122<-40 690 -40 800 -40 800>
LayerCount: 2
Fore
SplineSet
45 -150 m 1,0,-1
 45 800 l 1,1,-1
 233 800 l 1,2,-1
 233 690 l 1,3,-1
 167 690 l 1,4,-1
 167 -40 l 1,5,-1
 233 -40 l 1,6,-1
 233 -150 l 1,7,-1
 45 -150 l 1,0,-1
EndSplineSet
EndChar

StartChar: bracketright
Encoding: 93 93 72
Width: 248
Flags: MW
HStem: -150 950<15 203 15 203>
VStem: 15 188<-150 -40 -40 -40 690 800 -150 800>
LayerCount: 2
Fore
SplineSet
203 800 m 1,0,-1
 203 -150 l 1,1,-1
 15 -150 l 1,2,-1
 15 -40 l 1,3,-1
 81 -40 l 1,4,-1
 81 690 l 1,5,-1
 15 690 l 1,6,-1
 15 800 l 1,7,-1
 203 800 l 1,0,-1
EndSplineSet
EndChar

StartChar: parenleft
Encoding: 40 40 73
Width: 271
Flags: MW
HStem: -150 950<163 271 163 271>
VStem: 35 236
LayerCount: 2
Fore
SplineSet
271 -150 m 1,0,-1
 163 -150 l 1,1,2
 35 49 35 49 35 334 c 0,3,4
 35 606 35 606 163 800 c 1,5,-1
 271 800 l 1,6,7
 153 597 153 597 153 334 c 0,8,9
 153 62 153 62 271 -150 c 1,0,-1
EndSplineSet
EndChar

StartChar: parenright
Encoding: 41 41 74
Width: 271
Flags: MW
HStem: -150 950<0 108 0 108>
VStem: 0 236
LayerCount: 2
Fore
SplineSet
108 -150 m 1,0,-1
 0 -150 l 1,1,2
 118 62 118 62 118 334 c 0,3,4
 118 597 118 597 0 800 c 1,5,-1
 108 800 l 1,6,7
 236 606 236 606 236 334 c 0,8,9
 236 49 236 49 108 -150 c 1,0,-1
EndSplineSet
EndChar

StartChar: braceleft
Encoding: 123 123 75
Width: 248
Flags: MW
HStem: -148 70<193 238 193 238 164 238> 291 70<25 61 25 61> 730 70<193 238 193 193>
VStem: 42 128 72 123
CounterMasks: 1 e0
LayerCount: 2
Fore
SplineSet
139 330 m 1,0,-1
 139 322 l 1,1,2
 209 277 209 277 192 171 c 2,3,-1
 175 67 l 2,4,5
 166 18 166 18 171 -22.5 c 128,-1,6
 176 -63 176 -63 193 -78 c 1,7,-1
 238 -78 l 1,8,-1
 238 -148 l 1,9,-1
 164 -148 l 1,10,11
 20 -116 20 -116 46 50 c 1,12,-1
 69 213 l 1,13,14
 78 261 78 261 61 291 c 1,15,-1
 25 291 l 1,16,-1
 25 361 l 1,17,-1
 61 361 l 1,18,19
 78 391 78 391 69 439 c 1,20,-1
 46 602 l 1,21,22
 20 768 20 768 164 800 c 1,23,-1
 238 800 l 1,24,-1
 238 730 l 1,25,-1
 193 730 l 1,26,27
 176 715 176 715 171 674.5 c 128,-1,28
 166 634 166 634 175 585 c 2,29,-1
 192 481 l 2,30,31
 209 375 209 375 139 330 c 1,0,-1
EndSplineSet
EndChar

StartChar: braceright
Encoding: 125 125 76
Width: 248
Flags: MW
HStem: -148 70<10 55 10 84 10 55> 291 70<187 223 187 223> 730 70<10 55 10 84>
VStem: 53 123 78 128
CounterMasks: 1 e0
LayerCount: 2
Fore
SplineSet
109 322 m 1,0,-1
 109 330 l 1,1,2
 39 375 39 375 56 481 c 2,3,-1
 73 585 l 2,4,5
 82 634 82 634 77 674.5 c 128,-1,6
 72 715 72 715 55 730 c 1,7,-1
 10 730 l 1,8,-1
 10 800 l 1,9,-1
 84 800 l 1,10,11
 228 768 228 768 202 602 c 1,12,-1
 179 439 l 1,13,14
 170 391 170 391 187 361 c 1,15,-1
 223 361 l 1,16,-1
 223 291 l 1,17,-1
 187 291 l 1,18,19
 170 261 170 261 179 213 c 1,20,-1
 202 50 l 1,21,22
 228 -116 228 -116 84 -148 c 1,23,-1
 10 -148 l 1,24,-1
 10 -78 l 1,25,-1
 55 -78 l 1,26,27
 72 -63 72 -63 77 -22.5 c 128,-1,28
 82 18 82 18 73 67 c 2,29,-1
 56 171 l 2,30,31
 39 277 39 277 109 322 c 1,0,-1
EndSplineSet
EndChar

StartChar: backslash
Encoding: 92 92 77
Width: 385
Flags: MW
HStem: 0 21G<236 365 236 236> 680 20G<10 143 143 143>
VStem: 10 355
LayerCount: 2
Fore
SplineSet
143 700 m 1,0,-1
 365 0 l 1,1,-1
 236 0 l 1,2,-1
 10 700 l 1,3,-1
 143 700 l 1,0,-1
EndSplineSet
EndChar

StartChar: slash
Encoding: 47 47 78
Width: 385
Flags: MW
HStem: 0 700<12 367 12 367>
VStem: 12 355
LayerCount: 2
Fore
SplineSet
12 0 m 1,0,-1
 234 700 l 1,1,-1
 367 700 l 1,2,-1
 141 0 l 1,3,-1
 12 0 l 1,0,-1
EndSplineSet
EndChar

StartChar: brokenbar
Encoding: 166 166 79
Width: 228
Flags: MW
HStem: 0 21G<50 50 50 178> 0 316<50 178 50 178> 386 314<50 178 50 178> 680 20G<50 178 178 178>
VStem: 50 128<0 316 0 316 386 700>
LayerCount: 2
Fore
SplineSet
50 0 m 1,0,-1
 50 316 l 1,1,-1
 178 316 l 1,2,-1
 178 0 l 1,3,-1
 50 0 l 1,0,-1
50 386 m 1,4,-1
 50 700 l 1,5,-1
 178 700 l 1,6,-1
 178 386 l 1,7,-1
 50 386 l 1,4,-1
EndSplineSet
EndChar

StartChar: bar
Encoding: 124 124 80
Width: 228
Flags: MW
HStem: 0 21G<50 50 50 178> 680 20G<50 178 178 178>
VStem: 50 128<0 700 0 700>
LayerCount: 2
Fore
SplineSet
50 0 m 1,0,-1
 50 700 l 1,1,-1
 178 700 l 1,2,-1
 178 0 l 1,3,-1
 50 0 l 1,0,-1
EndSplineSet
EndChar

StartChar: asciicircum
Encoding: 94 94 81
Width: 436
Flags: MW
HStem: 491 20G<214 214>
VStem: 40 356<362 362>
LayerCount: 2
Fore
SplineSet
40 362 m 1,0,-1
 155 700 l 1,1,-1
 273 700 l 1,2,-1
 396 362 l 1,3,-1
 275 330 l 1,4,-1
 214 511 l 1,5,-1
 162 330 l 1,6,-1
 40 362 l 1,0,-1
EndSplineSet
EndChar

StartChar: underscore
Encoding: 95 95 82
Width: 416
Flags: MW
HStem: -215 114<0 416 0 416>
VStem: 0 416<-215 -101 -215 -101>
LayerCount: 2
Fore
SplineSet
0 -215 m 1,0,-1
 0 -101 l 1,1,-1
 416 -101 l 1,2,-1
 416 -215 l 1,3,-1
 0 -215 l 1,0,-1
EndSplineSet
EndChar

StartChar: asciitilde
Encoding: 126 126 83
Width: 412
Flags: MW
HStem: 224 167<138 274>
VStem: 10 392<245 357 241 362 241 362>
LayerCount: 2
Fore
SplineSet
274 224 m 1,0,-1
 138 272 l 1,1,2
 74 267 74 267 10 245 c 1,3,-1
 10 362 l 1,4,5
 66 388 66 388 138 391 c 1,6,-1
 274 343 l 1,7,8
 346 343 346 343 402 357 c 1,9,-1
 402 241 l 1,10,11
 349 225 349 225 274 224 c 1,0,-1
EndSplineSet
EndChar

StartChar: zero
Encoding: 48 48 85
Width: 493
Flags: MW
HStem: 0 700<151 342 151 342>
VStem: 160 174<319.5 394.5>
LayerCount: 2
Fore
SplineSet
342 0 m 1,0,-1
 151 0 l 1,1,2
 84 67 84 67 54.5 158 c 128,-1,3
 25 249 25 249 25 340 c 0,4,5
 25 573 25 573 151 700 c 1,6,-1
 342 700 l 1,7,8
 408 633 408 633 438 542.5 c 128,-1,9
 468 452 468 452 468 362 c 0,10,11
 468 126 468 126 342 0 c 1,0,-1
290 580 m 1,12,-1
 204 580 l 1,13,14
 160 490 160 490 160 351 c 128,-1,15
 160 212 160 212 203 116 c 1,16,-1
 291 116 l 1,17,18
 334 226 334 226 334 360 c 0,19,20
 334 490 334 490 290 580 c 1,12,-1
EndSplineSet
EndChar

StartChar: one
Encoding: 49 49 86
Width: 285
Flags: MW
HStem: 0 700<90 90 90 230>
VStem: 10 220<580 700 0 700>
LayerCount: 2
Fore
SplineSet
90 0 m 1,0,-1
 90 580 l 1,1,-1
 10 580 l 1,2,-1
 10 700 l 1,3,-1
 230 700 l 1,4,-1
 230 0 l 1,5,-1
 90 0 l 1,0,-1
EndSplineSet
EndChar

StartChar: two
Encoding: 50 50 87
Width: 367
Flags: MW
HStem: 0 116<164 339 164 339> 580 120<41 216 41 257>
VStem: 20 319<0 100 100 100>
LayerCount: 2
Fore
SplineSet
20 100 m 1,0,-1
 219 573 l 1,1,-1
 216 580 l 1,2,-1
 41 580 l 1,3,-1
 41 700 l 1,4,-1
 257 700 l 1,5,6
 344 663 344 663 344 582 c 0,7,8
 344 571 344 571 343 559.5 c 128,-1,9
 342 548 342 548 338.5 534.5 c 128,-1,10
 335 521 335 521 332 510 c 128,-1,11
 329 499 329 499 322.5 482 c 128,-1,12
 316 465 316 465 312 454 c 128,-1,13
 308 443 308 443 299 422.5 c 128,-1,14
 290 402 290 402 285.5 391.5 c 128,-1,15
 281 381 281 381 270 356 c 128,-1,16
 259 331 259 331 254 320 c 2,17,-1
 164 116 l 1,18,-1
 339 116 l 1,19,-1
 339 0 l 1,20,-1
 20 0 l 1,21,-1
 20 100 l 1,0,-1
EndSplineSet
EndChar

StartChar: three
Encoding: 51 51 88
Width: 409
Flags: MW
HStem: 0 116<15 187 15 243 15 187> 580 120<19 219 19 260>
VStem: 103 127<406 411 406 429 406 429> 229 138<201.5 250>
LayerCount: 2
Fore
SplineSet
230 411 m 1,0,-1
 230 406 l 1,1,2
 367 363 367 363 367 219 c 0,3,4
 367 146 367 146 328.5 88 c 128,-1,5
 290 30 290 30 243 0 c 1,6,-1
 15 0 l 1,7,-1
 15 116 l 1,8,-1
 187 116 l 1,9,10
 199 127 199 127 214 160 c 128,-1,11
 229 193 229 193 229 227 c 0,12,13
 229 290 229 290 184 320 c 1,14,-1
 103 320 l 1,15,-1
 103 429 l 1,16,-1
 224 569 l 1,17,-1
 219 580 l 1,18,-1
 19 580 l 1,19,-1
 19 700 l 1,20,-1
 260 700 l 1,21,22
 345 664 345 664 345 586 c 0,23,24
 345 526 345 526 290 471 c 2,25,-1
 230 411 l 1,0,-1
EndSplineSet
EndChar

StartChar: four
Encoding: 52 52 89
Width: 479
Flags: MW
HStem: 0 700<304 317 180 434 304 304>
VStem: 32 402<261.5 306.5>
LayerCount: 2
Fore
SplineSet
317 700 m 1,0,-1
 156 270 l 1,1,-1
 304 270 l 1,2,-1
 304 452 l 1,3,-1
 434 452 l 1,4,-1
 434 0 l 1,5,-1
 304 0 l 1,6,-1
 304 145 l 1,7,-1
 119 145 l 1,8,9
 32 190 32 190 32 284 c 0,10,11
 32 327 32 327 80 447 c 2,12,-1
 180 700 l 1,13,-1
 317 700 l 1,0,-1
EndSplineSet
EndChar

StartChar: five
Encoding: 53 53 90
Width: 443
Flags: MW
HStem: 321 9<45 279> 451 129<252 328 328 328>
VStem: 45 358<330 345 291.5 700 291.5 700>
LayerCount: 2
Fore
SplineSet
252 451 m 2,0,-1
 328 451 l 1,1,2
 403 400 403 400 403 321 c 0,3,4
 403 293 403 293 391 262 c 128,-1,5
 379 231 379 231 369 213.5 c 128,-1,6
 359 196 359 196 334 158 c 2,7,-1
 231 0 l 1,8,-1
 76 0 l 1,9,-1
 279 321 l 1,10,-1
 276 330 l 1,11,-1
 45 330 l 1,12,-1
 45 700 l 1,13,-1
 373 700 l 1,14,-1
 373 580 l 1,15,-1
 178 580 l 1,16,-1
 178 438 l 1,17,18
 208 451 208 451 252 451 c 2,0,-1
EndSplineSet
EndChar

StartChar: six
Encoding: 54 54 91
Width: 481
Flags: MW
HStem: 116 202<198 285 285 285>
VStem: 169 143<202 243>
LayerCount: 2
Fore
SplineSet
286 318 m 1,0,-1
 193 318 l 1,1,2
 169 268 169 268 169 221 c 0,3,4
 169 193 169 193 178 161 c 128,-1,5
 187 129 187 129 198 116 c 1,6,-1
 285 116 l 1,7,8
 312 163 312 163 312 224 c 0,9,10
 312 282 312 282 286 318 c 1,0,-1
279 434 m 2,11,-1
 331 434 l 1,12,13
 388 405 388 405 419.5 348.5 c 128,-1,14
 451 292 451 292 451 233 c 0,15,16
 451 92 451 92 339 0 c 1,17,-1
 147 0 l 1,18,19
 33 81 33 81 33 233 c 0,20,21
 33 284 33 284 48.5 343 c 128,-1,22
 64 402 64 402 80.5 441 c 128,-1,23
 97 480 97 480 126 540 c 1,24,-1
 198 700 l 1,25,-1
 337 700 l 1,26,-1
 207 411 l 1,27,28
 244 434 244 434 279 434 c 2,11,-1
EndSplineSet
EndChar

StartChar: seven
Encoding: 55 55 92
Width: 372
Flags: MW
HStem: 0 700<19 19 19 160>
VStem: 10 357<607 700 607 700 607 700>
LayerCount: 2
Fore
SplineSet
19 0 m 1,0,-1
 220 580 l 1,1,-1
 10 580 l 1,2,-1
 10 700 l 1,3,-1
 367 700 l 1,4,-1
 367 607 l 1,5,-1
 160 0 l 1,6,-1
 19 0 l 1,0,-1
EndSplineSet
EndChar

StartChar: eight
Encoding: 56 56 93
Width: 487
Flags: MW
HStem: 0 116<201 286 201 337 153 286> 298 117<199 283 204 283 204 288> 580 120<205 205 205 282>
VStem: 25 139<191 234 191 234.5> 42 127<480.5 517 480.5 559> 318 127<477 517> 323 139<191 234>
LayerCount: 2
Fore
SplineSet
337 0 m 1,0,-1
 153 0 l 1,1,2
 99 23 99 23 62 76 c 128,-1,3
 25 129 25 129 25 197 c 0,4,5
 25 307 25 307 110 363 c 1,6,-1
 110 367 l 1,7,8
 42 425 42 425 42 512 c 0,9,10
 42 578 42 578 79.5 628.5 c 128,-1,11
 117 679 117 679 169 700 c 1,12,-1
 320 700 l 1,13,14
 372 679 372 679 408.5 630 c 128,-1,15
 445 581 445 581 445 515 c 0,16,17
 445 428 445 428 376 369 c 1,18,-1
 376 365 l 1,19,20
 462 308 462 308 462 201 c 0,21,22
 462 134 462 134 424.5 78.5 c 128,-1,23
 387 23 387 23 337 0 c 1,0,-1
199 298 m 1,24,25
 164 269 164 269 164 213 c 0,26,27
 164 182 164 182 175.5 154 c 128,-1,28
 187 126 187 126 201 116 c 1,29,-1
 286 116 l 1,30,31
 300 126 300 126 311.5 154 c 128,-1,32
 323 182 323 182 323 213 c 0,33,34
 323 269 323 269 288 298 c 1,35,-1
 199 298 l 1,24,25
205 580 m 1,36,37
 191 570 191 570 180 547.5 c 128,-1,38
 169 525 169 525 169 498 c 0,39,40
 169 448 169 448 204 415 c 1,41,-1
 283 415 l 1,42,43
 318 448 318 448 318 498 c 0,44,45
 318 525 318 525 307 547.5 c 128,-1,46
 296 570 296 570 282 580 c 1,47,-1
 205 580 l 1,36,37
EndSplineSet
EndChar

StartChar: nine
Encoding: 57 57 94
Width: 468
Flags: MW
HStem: 382 198<191 279 191 283 191 283>
VStem: 164 143<457 498>
LayerCount: 2
Fore
SplineSet
190 382 m 1,0,-1
 283 382 l 1,1,2
 307 432 307 432 307 479 c 0,3,4
 307 507 307 507 298.5 537 c 128,-1,5
 290 567 290 567 279 580 c 1,6,-1
 191 580 l 1,7,8
 164 537 164 537 164 476 c 0,9,10
 164 418 164 418 190 382 c 1,0,-1
197 266 m 2,11,-1
 145 266 l 1,12,13
 88 295 88 295 56.5 351.5 c 128,-1,14
 25 408 25 408 25 467 c 0,15,16
 25 615 25 615 144 700 c 1,17,-1
 329 700 l 1,18,19
 443 619 443 619 443 467 c 0,20,21
 443 352 443 352 350 160 c 1,22,-1
 278 0 l 1,23,-1
 139 0 l 1,24,-1
 269 289 l 1,25,26
 232 266 232 266 197 266 c 2,11,-1
EndSplineSet
EndChar

StartChar: cent
Encoding: 162 162 95
Width: 401
Flags: MW
HStem: 0 700<210 316 210 316> 208 301<227 377 227 377>
VStem: 40 337<103 406.5>
LayerCount: 2
Fore
SplineSet
178 363 m 0,0,1
 178 321 178 321 191 277.5 c 128,-1,2
 204 234 204 234 227 208 c 1,3,-1
 377 208 l 1,4,-1
 377 103 l 1,5,-1
 316 103 l 1,6,-1
 316 0 l 1,7,-1
 210 0 l 1,8,-1
 210 103 l 1,9,-1
 158 103 l 1,10,11
 40 197 40 197 40 365 c 0,12,13
 40 529 40 529 166 614 c 1,14,-1
 210 614 l 1,15,-1
 210 700 l 1,16,-1
 316 700 l 1,17,-1
 316 614 l 1,18,-1
 377 614 l 1,19,-1
 377 509 l 1,20,-1
 227 509 l 1,21,22
 178 458 178 458 178 363 c 0,0,1
EndSplineSet
EndChar

StartChar: sterling
Encoding: 163 163 96
Width: 422
Flags: MW
HStem: 116 174<27 91 228 368> 395 185<44 385 91 385 256 385 256 385 256 385>
VStem: 27 365<0 290>
LayerCount: 2
Fore
SplineSet
27 290 m 1,0,-1
 44 395 l 1,1,-1
 91 395 l 1,2,-1
 91 479 l 2,3,4
 91 629 91 629 207 700 c 1,5,-1
 385 700 l 1,6,-1
 385 580 l 1,7,-1
 256 580 l 1,8,9
 238 562 238 562 233 544.5 c 128,-1,10
 228 527 228 527 228 493 c 2,11,-1
 228 395 l 1,12,-1
 385 395 l 1,13,-1
 368 290 l 1,14,-1
 228 290 l 1,15,-1
 228 116 l 1,16,-1
 392 116 l 1,17,-1
 392 0 l 1,18,-1
 33 0 l 1,19,-1
 33 83 l 1,20,-1
 91 116 l 1,21,-1
 91 290 l 1,22,-1
 27 290 l 1,0,-1
EndSplineSet
EndChar

StartChar: dollar
Encoding: 36 36 97
Width: 395
Flags: MW
HStem: -66 836<155 260 154 261>
VStem: 33 341<131 567>
LayerCount: 2
Fore
SplineSet
261 684 m 1,0,-1
 360 684 l 1,1,-1
 360 564 l 1,2,-1
 166 564 l 1,3,-1
 163 558 l 1,4,-1
 325 302 l 2,5,6
 374 223 374 223 374 168 c 0,7,8
 374 67 374 67 307 20 c 1,9,-1
 260 20 l 1,10,-1
 260 -66 l 1,11,-1
 154 -66 l 1,12,-1
 154 20 l 1,13,-1
 42 20 l 1,14,-1
 42 136 l 1,15,-1
 254 136 l 1,16,-1
 257 142 l 1,17,-1
 72 429 l 2,18,19
 33 491 33 491 33 543 c 0,20,21
 33 647 33 647 120 684 c 1,22,-1
 155 684 l 1,23,-1
 155 770 l 1,24,-1
 261 770 l 1,25,-1
 261 684 l 1,0,-1
EndSplineSet
EndChar

StartChar: yen
Encoding: 165 165 98
Width: 458
Flags: MW
HStem: 0 21G<156 302 156 156> 222 114<56 123 56 156 56 123 334 404> 680 20G<8 144 144 144 314 450 450 450>
VStem: 156 146<0 222>
LayerCount: 2
Fore
SplineSet
302 0 m 1,0,-1
 156 0 l 1,1,-1
 156 222 l 1,2,-1
 56 222 l 1,3,-1
 56 336 l 1,4,-1
 123 336 l 1,5,-1
 8 700 l 1,6,-1
 144 700 l 1,7,-1
 206 487 l 1,8,-1
 227 364 l 1,9,-1
 231 364 l 1,10,-1
 252 487 l 1,11,-1
 314 700 l 1,12,-1
 450 700 l 1,13,-1
 334 336 l 1,14,-1
 404 336 l 1,15,-1
 404 222 l 1,16,-1
 302 222 l 1,17,-1
 302 0 l 1,0,-1
EndSplineSet
EndChar

StartChar: Euro
Encoding: 8364 8364 99
Width: 498
Flags: MW
HStem: 116 149<310 382> 330 42<34 394 394 394> 437 143<310 415 415 415>
VStem: 22 461<0 265>
LayerCount: 2
Fore
SplineSet
34 372 m 1,0,-1
 46 437 l 1,1,-1
 101 437 l 1,2,3
 106 486 106 486 119 523 c 0,4,5
 159 633 159 633 242 700 c 1,6,-1
 483 700 l 1,7,-1
 483 580 l 1,8,-1
 310 580 l 1,9,10
 269 528 269 528 253 437 c 1,11,-1
 415 437 l 1,12,-1
 403 372 l 1,13,-1
 34 372 l 1,0,-1
22 265 m 1,14,-1
 34 330 l 1,15,-1
 394 330 l 1,16,-1
 382 265 l 1,17,-1
 252 265 l 1,18,19
 267 168 267 168 310 116 c 1,20,-1
 483 116 l 1,21,-1
 483 0 l 1,22,-1
 225 0 l 1,23,24
 154 66 154 66 118 179 c 0,25,26
 107 212 107 212 101 265 c 1,27,-1
 22 265 l 1,14,-1
EndSplineSet
EndChar

StartChar: florin
Encoding: 402 402 100
Width: 390
Flags: MW
HStem: 414 166<25 352 109 352 273 352 273 352 273 352>
VStem: 15 337
LayerCount: 2
Fore
SplineSet
245 310 m 1,0,-1
 245 81 l 2,1,2
 245 -3 245 -3 221 -59.5 c 128,-1,3
 197 -116 197 -116 137 -150 c 1,4,-1
 15 -150 l 1,5,-1
 15 -45 l 1,6,-1
 81 -45 l 1,7,8
 98 -28 98 -28 103.5 -7.5 c 128,-1,9
 109 13 109 13 109 49 c 2,10,-1
 109 310 l 1,11,-1
 25 310 l 1,12,-1
 25 414 l 1,13,-1
 109 414 l 1,14,-1
 109 479 l 2,15,16
 109 629 109 629 224 700 c 1,17,-1
 352 700 l 1,18,-1
 352 580 l 1,19,-1
 273 580 l 1,20,21
 255 562 255 562 250 544.5 c 128,-1,22
 245 527 245 527 245 493 c 2,23,-1
 245 414 l 1,24,-1
 352 414 l 1,25,-1
 352 310 l 1,26,-1
 245 310 l 1,0,-1
EndSplineSet
EndChar

StartChar: section
Encoding: 167 167 101
Width: 408
Flags: MW
HStem: -82 154<26 311 173 311> 174 156<188 203 117 274> 432 148<83 368 153 368>
VStem: 7 376<167 340>
LayerCount: 2
Fore
SplineSet
289 -65 m 0,0,1
 289 -156 289 -156 193 -196 c 1,2,-1
 26 -196 l 1,3,-1
 26 -82 l 1,4,-1
 173 -82 l 1,5,-1
 176 -77 l 1,6,-1
 90 91 l 2,7,8
 84 103 84 103 62 144 c 128,-1,9
 40 185 40 185 32.5 202 c 128,-1,10
 25 219 25 219 16 248.5 c 128,-1,11
 7 278 7 278 7 303 c 0,12,13
 7 337 7 337 20 364 c 128,-1,14
 33 391 33 391 46 403.5 c 128,-1,15
 59 416 59 416 83 432 c 1,16,-1
 153 432 l 1,17,18
 105 522 105 522 105 569 c 0,19,20
 105 660 105 660 201 700 c 1,21,-1
 368 700 l 1,22,-1
 368 580 l 1,23,-1
 221 580 l 1,24,-1
 218 575 l 1,25,-1
 310 392 l 2,26,27
 314 385 314 385 327.5 359.5 c 128,-1,28
 341 334 341 334 345.5 325.5 c 128,-1,29
 350 317 350 317 359.5 296 c 128,-1,30
 369 275 369 275 372.5 263 c 128,-1,31
 376 251 376 251 379.5 234 c 128,-1,32
 383 217 383 217 383 202 c 0,33,34
 383 122 383 122 311 72 c 1,35,-1
 236 72 l 1,36,37
 239 67 239 67 248.5 49 c 128,-1,38
 258 31 258 31 261.5 24 c 128,-1,39
 265 17 265 17 271.5 2 c 128,-1,40
 278 -13 278 -13 281 -22 c 128,-1,41
 284 -31 284 -31 286.5 -43 c 128,-1,42
 289 -55 289 -55 289 -65 c 0,0,1
117 330 m 1,43,-1
 113 321 l 1,44,-1
 188 174 l 1,45,-1
 274 174 l 1,46,-1
 278 183 l 1,47,-1
 203 330 l 1,48,-1
 117 330 l 1,43,-1
EndSplineSet
EndChar

StartChar: copyright
Encoding: 169 169 102
Width: 770
Flags: MW
HStem: 0 102<278 492 278 534 236 492> 0 149<320 488 320 534 236 488> 265 162<381 488 381 488> 544 156<320 488 320 320> 597 103<278 492 278 278>
VStem: 25 119<304 395.5 304 424.5> 626 119<304 395.5>
LayerCount: 2
Fore
SplineSet
349 347 m 0,0,1
 349 401 349 401 381 427 c 1,2,-1
 488 427 l 1,3,-1
 488 544 l 1,4,-1
 320 544 l 1,5,6
 218 475 218 475 218 349 c 0,7,8
 218 225 218 225 320 149 c 1,9,-1
 488 149 l 1,10,-1
 488 265 l 1,11,-1
 381 265 l 1,12,13
 349 292 349 292 349 347 c 0,0,1
745 350 m 0,14,15
 745 236 745 236 690 143.5 c 128,-1,16
 635 51 635 51 534 0 c 1,17,-1
 236 0 l 1,18,19
 135 51 135 51 80 143.5 c 128,-1,20
 25 236 25 236 25 350 c 0,21,22
 25 463 25 463 80 556 c 128,-1,23
 135 649 135 649 236 700 c 1,24,-1
 534 700 l 1,25,26
 635 649 635 649 690 556 c 128,-1,27
 745 463 745 463 745 350 c 0,14,15
626 350 m 0,28,29
 626 426 626 426 593 494.5 c 128,-1,30
 560 563 560 563 492 597 c 1,31,-1
 278 597 l 1,32,33
 210 563 210 563 177 494.5 c 128,-1,34
 144 426 144 426 144 350 c 0,35,36
 144 273 144 273 177 203.5 c 128,-1,37
 210 134 210 134 278 102 c 1,38,-1
 492 102 l 1,39,40
 560 134 560 134 593 203.5 c 128,-1,41
 626 273 626 273 626 350 c 0,28,29
EndSplineSet
EndChar

StartChar: registered
Encoding: 174 174 103
Width: 538
Flags: MW
HStem: 315 22<177 177 177 251 293 362 362 362> 477 56<251 286 251 286> 602 25<177 311 311 311>
VStem: 106 71<442 500> 251 35<477 477 477 533> 370 62<499 500 442 533>
LayerCount: 2
Fore
SplineSet
177 337 m 1,0,-1
 177 602 l 1,1,-1
 311 602 l 1,2,3
 338 591 338 591 354 567 c 128,-1,4
 370 543 370 543 370 513 c 0,5,6
 370 465 370 465 332 437 c 1,7,-1
 369 337 l 1,8,-1
 293 337 l 1,9,-1
 264 421 l 1,10,-1
 251 421 l 1,11,-1
 251 337 l 1,12,-1
 177 337 l 1,0,-1
251 533 m 1,13,-1
 251 477 l 1,14,-1
 286 477 l 1,15,16
 297 486 297 486 297 506 c 0,17,18
 297 524 297 524 286 533 c 1,19,-1
 251 533 l 1,13,-1
381 242 m 1,20,-1
 157 242 l 1,21,22
 93 272 93 272 59 334.5 c 128,-1,23
 25 397 25 397 25 471 c 128,-1,24
 25 545 25 545 59 607.5 c 128,-1,25
 93 670 93 670 157 700 c 1,26,-1
 381 700 l 1,27,28
 445 670 445 670 479 607.5 c 128,-1,29
 513 545 513 545 513 471 c 128,-1,30
 513 397 513 397 479 334.5 c 128,-1,31
 445 272 445 272 381 242 c 1,20,-1
362 627 m 1,32,-1
 176 627 l 1,33,34
 142 604 142 604 124 560.5 c 128,-1,35
 106 517 106 517 106 471 c 128,-1,36
 106 425 106 425 124 381.5 c 128,-1,37
 142 338 142 338 176 315 c 1,38,-1
 362 315 l 1,39,40
 395 338 395 338 413.5 381.5 c 128,-1,41
 432 425 432 425 432 471 c 128,-1,42
 432 517 432 517 413.5 560.5 c 128,-1,43
 395 604 395 604 362 627 c 1,32,-1
EndSplineSet
EndChar

StartChar: trademark
Encoding: 8482 8482 104
Width: 685
Flags: MW
HStem: 358 125<441 485 481 485 481 525> 492 208<408 412 408 408 554 554 554 559> 680 20G<5 5 5 282 321 430 430 430 541 645 645 645>
VStem: 200 204
LayerCount: 2
Fore
SplineSet
441 358 m 1,0,-1
 412 492 l 1,1,-1
 408 492 l 1,2,-1
 400 299 l 1,3,-1
 294 299 l 1,4,-1
 321 700 l 1,5,-1
 430 700 l 1,6,-1
 468 565 l 1,7,-1
 481 483 l 1,8,-1
 485 483 l 1,9,-1
 497 565 l 1,10,-1
 541 700 l 1,11,-1
 645 700 l 1,12,-1
 672 299 l 1,13,-1
 566 299 l 1,14,-1
 559 492 l 1,15,-1
 554 492 l 1,16,-1
 525 358 l 1,17,-1
 441 358 l 1,0,-1
5 700 m 1,18,-1
 5 599 l 1,19,-1
 87 599 l 1,20,-1
 87 299 l 1,21,-1
 200 299 l 1,22,-1
 200 599 l 1,23,-1
 282 599 l 1,24,-1
 282 700 l 1,25,-1
 5 700 l 1,18,-1
EndSplineSet
EndChar

StartChar: ordfeminine
Encoding: 170 170 105
Width: 363
Flags: MW
HStem: 359 89<154 209 154 220 142 209> 593 107<177 185 177 177>
VStem: 10 343<300 300>
LayerCount: 2
Fore
SplineSet
229 300 m 1,0,-1
 220 359 l 1,1,-1
 142 359 l 1,2,-1
 133 300 l 1,3,-1
 10 300 l 1,4,-1
 76 700 l 1,5,-1
 286 700 l 1,6,-1
 353 300 l 1,7,-1
 229 300 l 1,0,-1
185 593 m 1,8,-1
 177 593 l 1,9,-1
 154 448 l 1,10,-1
 209 448 l 1,11,-1
 185 593 l 1,8,-1
EndSplineSet
EndChar

StartChar: ordmasculine
Encoding: 186 186 106
Width: 369
Flags: MW
HStem: 300 400<93 275 93 275> 398 202<172 196 172 197 172 197>
VStem: 149 70<479 522.5>
LayerCount: 2
Fore
SplineSet
275 300 m 1,0,-1
 93 300 l 1,1,2
 20 368 20 368 20 494 c 0,3,4
 20 616 20 616 93 700 c 1,5,-1
 275 700 l 1,6,7
 349 615 349 615 349 494 c 0,8,9
 349 441 349 441 331 388 c 128,-1,10
 313 335 313 335 275 300 c 1,0,-1
171 398 m 1,11,-1
 197 398 l 1,12,13
 219 437 219 437 219 500 c 0,14,15
 219 568 219 568 196 600 c 1,16,-1
 172 600 l 1,17,18
 149 566 149 566 149 500 c 0,19,20
 149 437 149 437 171 398 c 1,11,-1
EndSplineSet
EndChar

StartChar: guillemotleft
Encoding: 171 171 107
Width: 497
Flags: MW
HStem: 59 378<156 166 156 373>
VStem: 35 220<108 244> 242 220<108 244>
LayerCount: 2
Fore
SplineSet
166 59 m 1,0,-1
 35 244 l 1,1,-1
 156 437 l 1,2,-1
 245 388 l 1,3,-1
 160 244 l 1,4,-1
 255 108 l 1,5,-1
 166 59 l 1,0,-1
373 59 m 1,6,-1
 242 244 l 1,7,-1
 363 437 l 1,8,-1
 452 388 l 1,9,-1
 367 244 l 1,10,-1
 462 108 l 1,11,-1
 373 59 l 1,6,-1
EndSplineSet
EndChar

StartChar: guillemotright
Encoding: 187 187 108
Width: 486
Flags: MW
HStem: 59 378<114 124 124 320>
VStem: 25 220<108 244> 231 220<108 244>
LayerCount: 2
Fore
SplineSet
451 244 m 1,0,-1
 320 59 l 1,1,-1
 231 108 l 1,2,-1
 326 244 l 1,3,-1
 241 388 l 1,4,-1
 330 437 l 1,5,-1
 451 244 l 1,0,-1
245 244 m 1,6,-1
 114 59 l 1,7,-1
 25 108 l 1,8,-1
 120 244 l 1,9,-1
 35 388 l 1,10,-1
 124 437 l 1,11,-1
 245 244 l 1,6,-1
EndSplineSet
EndChar

StartChar: guilsinglleft
Encoding: 8249 8249 109
Width: 280
Flags: MW
HStem: 59 378<156 166>
VStem: 35 220<108 244>
LayerCount: 2
Fore
SplineSet
166 59 m 1,0,-1
 35 244 l 1,1,-1
 156 437 l 1,2,-1
 245 388 l 1,3,-1
 160 244 l 1,4,-1
 255 108 l 1,5,-1
 166 59 l 1,0,-1
EndSplineSet
EndChar

StartChar: guilsinglright
Encoding: 8250 8250 110
Width: 280
Flags: MW
HStem: 59 378<114 124>
VStem: 25 220<108 244>
LayerCount: 2
Fore
SplineSet
245 244 m 1,0,-1
 114 59 l 1,1,-1
 25 108 l 1,2,-1
 120 244 l 1,3,-1
 35 388 l 1,4,-1
 124 437 l 1,5,-1
 245 244 l 1,0,-1
EndSplineSet
EndChar

StartChar: quoteleft
Encoding: 8216 8216 111
Width: 216
Flags: MW
HStem: 487 135<124 174 124 174 40 174>
VStem: 40 134<487 522 522 574>
LayerCount: 2
Fore
SplineSet
174 622 m 1,0,-1
 174 487 l 1,1,-1
 40 487 l 1,2,-1
 40 522 l 2,3,4
 40 604 40 604 52.5 644.5 c 128,-1,5
 65 685 65 685 119 760 c 1,6,-1
 176 728 l 1,7,8
 131 651 131 651 124 622 c 1,9,-1
 174 622 l 1,0,-1
EndSplineSet
EndChar

StartChar: quoteright
Encoding: 8217 8217 112
Width: 216
Flags: MW
HStem: 616 135<42 176 42 92>
VStem: 42 134<664 716 716 751 664 751>
LayerCount: 2
Fore
SplineSet
42 616 m 1,0,-1
 42 751 l 1,1,-1
 176 751 l 1,2,-1
 176 716 l 2,3,4
 176 634 176 634 163.5 593.5 c 128,-1,5
 151 553 151 553 97 478 c 1,6,-1
 40 510 l 1,7,8
 85 587 85 587 92 616 c 1,9,-1
 42 616 l 1,0,-1
EndSplineSet
EndChar

StartChar: quotesinglbase
Encoding: 8218 8218 113
Width: 216
Flags: MW
HStem: 0 135<42 176 42 92>
VStem: 42 134<55 114 114 135 55 135>
LayerCount: 2
Fore
SplineSet
42 0 m 1,0,-1
 42 135 l 1,1,-1
 176 135 l 1,2,-1
 176 114 l 2,3,4
 176 22 176 22 163.5 -20 c 128,-1,5
 151 -62 151 -62 97 -138 c 1,6,-1
 40 -106 l 1,7,8
 44 -100 44 -100 51 -87.5 c 128,-1,9
 58 -75 58 -75 60.5 -70.5 c 128,-1,10
 63 -66 63 -66 68 -57 c 128,-1,11
 73 -48 73 -48 75 -44.5 c 128,-1,12
 77 -41 77 -41 80.5 -34 c 128,-1,13
 84 -27 84 -27 85.5 -22.5 c 128,-1,14
 87 -18 87 -18 88.5 -12 c 128,-1,15
 90 -6 90 -6 92 0 c 1,16,-1
 42 0 l 1,0,-1
EndSplineSet
EndChar

StartChar: quotedblleft
Encoding: 8220 8220 114
Width: 398
Flags: MW
HStem: 487 135<124 174 124 174 40 174 124 222 306 356>
VStem: 40 134<487 522 522 574> 222 134<487 522 522 574>
LayerCount: 2
Fore
SplineSet
174 622 m 1,0,-1
 174 487 l 1,1,-1
 40 487 l 1,2,-1
 40 522 l 2,3,4
 40 604 40 604 52.5 644.5 c 128,-1,5
 65 685 65 685 119 760 c 1,6,-1
 176 728 l 1,7,8
 131 651 131 651 124 622 c 1,9,-1
 174 622 l 1,0,-1
356 622 m 1,10,-1
 356 487 l 1,11,-1
 222 487 l 1,12,-1
 222 522 l 2,13,14
 222 604 222 604 234.5 644.5 c 128,-1,15
 247 685 247 685 301 760 c 1,16,-1
 358 728 l 1,17,18
 313 651 313 651 306 622 c 1,19,-1
 356 622 l 1,10,-1
EndSplineSet
EndChar

StartChar: quotedblright
Encoding: 8221 8221 115
Width: 398
Flags: MW
HStem: 617 135<42 176 42 92 42 224 224 274>
VStem: 42 134<665 717 717 752 665 752> 224 134<665 717 717 752 665 752>
LayerCount: 2
Fore
SplineSet
224 617 m 1,0,-1
 224 752 l 1,1,-1
 358 752 l 1,2,-1
 358 717 l 2,3,4
 358 635 358 635 345.5 594.5 c 128,-1,5
 333 554 333 554 279 479 c 1,6,-1
 222 511 l 1,7,8
 267 588 267 588 274 617 c 1,9,-1
 224 617 l 1,0,-1
42 617 m 1,10,-1
 42 752 l 1,11,-1
 176 752 l 1,12,-1
 176 717 l 2,13,14
 176 635 176 635 163.5 594.5 c 128,-1,15
 151 554 151 554 97 479 c 1,16,-1
 40 511 l 1,17,18
 85 588 85 588 92 617 c 1,19,-1
 42 617 l 1,10,-1
EndSplineSet
EndChar

StartChar: quotedblbase
Encoding: 8222 8222 116
Width: 398
Flags: MW
HStem: 0 135<42 176 42 92 42 224 224 274>
VStem: 42 134<48 100 100 135 48 135> 224 134<48 100 100 135 48 135>
LayerCount: 2
Fore
SplineSet
224 0 m 1,0,-1
 224 135 l 1,1,-1
 358 135 l 1,2,-1
 358 100 l 2,3,4
 358 18 358 18 345.5 -22.5 c 128,-1,5
 333 -63 333 -63 279 -138 c 1,6,-1
 222 -106 l 1,7,8
 267 -29 267 -29 274 0 c 1,9,-1
 224 0 l 1,0,-1
42 0 m 1,10,-1
 42 135 l 1,11,-1
 176 135 l 1,12,-1
 176 100 l 2,13,14
 176 18 176 18 163.5 -22.5 c 128,-1,15
 151 -63 151 -63 97 -138 c 1,16,-1
 40 -106 l 1,17,18
 44 -100 44 -100 51 -87.5 c 128,-1,19
 58 -75 58 -75 60.5 -70.5 c 128,-1,20
 63 -66 63 -66 68 -57 c 128,-1,21
 73 -48 73 -48 75 -44.5 c 128,-1,22
 77 -41 77 -41 80.5 -34 c 128,-1,23
 84 -27 84 -27 85.5 -22.5 c 128,-1,24
 87 -18 87 -18 88.5 -12 c 128,-1,25
 90 -6 90 -6 92 0 c 1,26,-1
 42 0 l 1,10,-1
EndSplineSet
EndChar

StartChar: dagger
Encoding: 8224 8224 117
Width: 422
Flags: MW
HStem: 0 700<132 253 132 253>
VStem: 30 325<431 541 431 541>
LayerCount: 2
Fore
SplineSet
253 0 m 1,0,-1
 132 0 l 1,1,-1
 132 431 l 1,2,-1
 30 431 l 1,3,-1
 30 541 l 1,4,-1
 132 541 l 1,5,-1
 132 700 l 1,6,-1
 253 700 l 1,7,-1
 253 541 l 1,8,-1
 355 541 l 1,9,-1
 355 431 l 1,10,-1
 253 431 l 1,11,-1
 253 0 l 1,0,-1
EndSplineSet
EndChar

StartChar: daggerdbl
Encoding: 8225 8225 118
Width: 422
Flags: MW
HStem: 289 142<30 132 30 132 253 355>
VStem: 30 325<179 289 179 289 431 541 179 541>
LayerCount: 2
Fore
SplineSet
253 0 m 1,0,-1
 132 0 l 1,1,-1
 132 179 l 1,2,-1
 30 179 l 1,3,-1
 30 289 l 1,4,-1
 132 289 l 1,5,-1
 132 431 l 1,6,-1
 30 431 l 1,7,-1
 30 541 l 1,8,-1
 132 541 l 1,9,-1
 132 700 l 1,10,-1
 253 700 l 1,11,-1
 253 541 l 1,12,-1
 355 541 l 1,13,-1
 355 431 l 1,14,-1
 253 431 l 1,15,-1
 253 289 l 1,16,-1
 355 289 l 1,17,-1
 355 179 l 1,18,-1
 253 179 l 1,19,-1
 253 0 l 1,0,-1
EndSplineSet
EndChar

StartChar: bullet
Encoding: 8226 8226 119
Width: 263
Flags: MW
HStem: 233 204<40 223 40 223>
VStem: 40 183<233 437 233 437>
LayerCount: 2
Fore
SplineSet
40 437 m 1,0,-1
 223 437 l 1,1,-1
 223 233 l 1,2,-1
 40 233 l 1,3,-1
 40 437 l 1,0,-1
EndSplineSet
EndChar

StartChar: ellipsis
Encoding: 8230 8230 120
Width: 688
Flags: MW
HStem: 0 148<40 184 40 184 40 272 272 416 504 648>
VStem: 40 144<0 148 0 148> 272 144<0 148 0 148> 504 144<0 148 0 148>
LayerCount: 2
Fore
SplineSet
40 148 m 1,0,-1
 184 148 l 1,1,-1
 184 0 l 1,2,-1
 40 0 l 1,3,-1
 40 148 l 1,0,-1
272 148 m 1,4,-1
 416 148 l 1,5,-1
 416 0 l 1,6,-1
 272 0 l 1,7,-1
 272 148 l 1,4,-1
504 148 m 1,8,-1
 648 148 l 1,9,-1
 648 0 l 1,10,-1
 504 0 l 1,11,-1
 504 148 l 1,8,-1
EndSplineSet
EndChar

StartChar: paragraph
Encoding: 182 182 121
Width: 463
Flags: MW
HStem: 558 142<249 294 249 249>
VStem: 25 224<364.5 481> 294 132<111 115 115 558 558 558>
LayerCount: 2
Fore
SplineSet
249 150 m 1,0,-1
 188 150 l 1,1,2
 112 186 112 186 68.5 260.5 c 128,-1,3
 25 335 25 335 25 416 c 0,4,5
 25 605 25 605 188 700 c 1,6,-1
 426 700 l 1,7,-1
 426 115 l 2,8,9
 426 -11 426 -11 396 -110 c 1,10,-1
 264 -110 l 1,11,12
 294 -1 294 -1 294 111 c 2,13,-1
 294 558 l 1,14,-1
 249 558 l 1,15,-1
 249 150 l 1,0,-1
EndSplineSet
EndChar

StartChar: periodcentered
Encoding: 183 183 122
Width: 192
Flags: MW
HStem: 295 124<40 152 40 152>
VStem: 40 112<295 419 295 419>
LayerCount: 2
Fore
SplineSet
40 419 m 1,0,-1
 152 419 l 1,1,-1
 152 295 l 1,2,-1
 40 295 l 1,3,-1
 40 419 l 1,0,-1
EndSplineSet
EndChar

StartChar: uni00AD
Encoding: 173 173 123
Width: 296
Flags: MW
HStem: 231 114<45 251 45 251>
VStem: 45 206<231 345 231 345>
LayerCount: 2
Fore
SplineSet
45 231 m 1,0,-1
 45 345 l 1,1,-1
 251 345 l 1,2,-1
 251 231 l 1,3,-1
 45 231 l 1,0,-1
EndSplineSet
EndChar

StartChar: endash
Encoding: 8211 8211 124
Width: 416
Flags: MW
HStem: 231 114<0 416 0 416>
VStem: 0 416<231 345 231 345>
LayerCount: 2
Fore
SplineSet
0 231 m 1,0,-1
 0 345 l 1,1,-1
 416 345 l 1,2,-1
 416 231 l 1,3,-1
 0 231 l 1,0,-1
EndSplineSet
EndChar

StartChar: emdash
Encoding: 8212 8212 125
Width: 793
Flags: MW
HStem: 231 114<0 793 0 793>
VStem: 0 793<231 345 231 345>
LayerCount: 2
Fore
SplineSet
0 231 m 1,0,-1
 0 345 l 1,1,-1
 793 345 l 1,2,-1
 793 231 l 1,3,-1
 0 231 l 1,0,-1
EndSplineSet
EndChar

StartChar: hyphen.case
Encoding: 65538 -1 126
Width: 296
Flags: MW
HStem: 280 114<45 251 45 251>
VStem: 45 206<280 394 280 394>
LayerCount: 2
Fore
SplineSet
45 280 m 1,0,-1
 45 394 l 1,1,-1
 251 394 l 1,2,-1
 251 280 l 1,3,-1
 45 280 l 1,0,-1
EndSplineSet
EndChar

StartChar: AE
Encoding: 198 198 127
Width: 675
Flags: MW
HStem: 116 181<420 618 420 646 420 646> 413 167<420 618 618 618>
VStem: 181 102<0 170> 206 77<278 278>
LayerCount: 2
Fore
SplineSet
5 0 m 1,0,-1
 186 700 l 1,1,-1
 642 700 l 1,2,-1
 642 580 l 1,3,-1
 420 580 l 1,4,-1
 420 413 l 1,5,-1
 618 413 l 1,6,-1
 618 297 l 1,7,-1
 420 297 l 1,8,-1
 420 116 l 1,9,-1
 646 116 l 1,10,-1
 646 0 l 1,11,-1
 283 0 l 1,12,-1
 283 170 l 1,13,-1
 181 170 l 1,14,-1
 141 0 l 1,15,-1
 5 0 l 1,0,-1
277 580 m 1,16,-1
 206 278 l 1,17,-1
 283 278 l 1,18,-1
 283 580 l 1,19,-1
 277 580 l 1,16,-1
EndSplineSet
EndChar

StartChar: Eth
Encoding: 208 208 128
Width: 522
Flags: MW
HStem: 116 183<196 283> 405 175<13 288 60 288 196 283 283 283>
VStem: 283 64<309 392 309 405 299 392>
LayerCount: 2
Fore
SplineSet
13 299 m 1,0,-1
 13 405 l 1,1,-1
 60 405 l 1,2,-1
 60 700 l 1,3,-1
 350 700 l 1,4,5
 492 574 492 574 492 351 c 0,6,7
 492 143 492 143 359 0 c 1,8,-1
 60 0 l 1,9,-1
 60 299 l 1,10,-1
 13 299 l 1,0,-1
196 116 m 1,11,-1
 286 116 l 1,12,13
 314 151 314 151 330.5 218 c 128,-1,14
 347 285 347 285 347 351 c 0,15,16
 347 508 347 508 288 580 c 1,17,-1
 196 580 l 1,18,-1
 196 405 l 1,19,-1
 283 405 l 1,20,-1
 283 299 l 1,21,-1
 196 299 l 1,22,-1
 196 116 l 1,11,-1
EndSplineSet
EndChar

StartChar: Oslash
Encoding: 216 216 129
Width: 542
Flags: MW
HStem: 0 116<238 307 235 374 238 238> 580 120<235 308 235 235>
VStem: 30 145<299 399 299 410> 367 145<299 397.5 285 399>
LayerCount: 2
Fore
SplineSet
99 -50 m 1,0,-1
 129 41 l 1,1,2
 30 164 30 164 30 340 c 0,3,4
 30 451 30 451 64 547 c 128,-1,5
 98 643 98 643 168 700 c 1,6,-1
 312 700 l 1,7,-1
 329 750 l 1,8,-1
 452 750 l 1,9,-1
 420 653 l 1,10,11
 512 535 512 535 512 340 c 0,12,13
 512 248 512 248 479 157 c 128,-1,14
 446 66 446 66 374 0 c 1,15,-1
 238 0 l 1,16,-1
 222 -50 l 1,17,-1
 99 -50 l 1,0,-1
235 116 m 1,18,-1
 307 116 l 1,19,20
 332 145 332 145 349.5 210.5 c 128,-1,21
 367 276 367 276 367 349 c 128,-1,22
 367 422 367 422 350 486.5 c 128,-1,23
 333 551 333 551 308 580 c 1,24,-1
 235 580 l 1,25,26
 210 551 210 551 192.5 486.5 c 128,-1,27
 175 422 175 422 175 349 c 128,-1,28
 175 276 175 276 192.5 210.5 c 128,-1,29
 210 145 210 145 235 116 c 1,18,-1
EndSplineSet
EndChar

StartChar: Thorn
Encoding: 222 222 130
Width: 491
Flags: MW
HStem: 239 249<183 272 272 272>
VStem: 183 144<239 394 340 394 340 488>
LayerCount: 2
Fore
SplineSet
48 0 m 1,0,-1
 48 700 l 1,1,-1
 183 700 l 1,2,-1
 183 610 l 1,3,-1
 319 610 l 1,4,5
 387 580 387 580 426.5 518 c 128,-1,6
 466 456 466 456 466 375 c 0,7,8
 466 291 466 291 425 221 c 128,-1,9
 384 151 384 151 304 122 c 1,10,-1
 183 122 l 1,11,-1
 183 0 l 1,12,-1
 48 0 l 1,0,-1
183 488 m 1,13,-1
 183 239 l 1,14,-1
 272 239 l 1,15,16
 327 284 327 284 327 368 c 0,17,18
 327 405 327 405 312 439 c 128,-1,19
 297 473 297 473 278 488 c 1,20,-1
 183 488 l 1,13,-1
EndSplineSet
EndChar

StartChar: germandbls
Encoding: 223 223 131
Width: 508
Flags: MW
HStem: 0 105<33 333 215 333 215 333 215 392> 595 105<193 226 193 193>
VStem: 33 133<0 413 413 445 0 466.5> 254 132<395 413 395 445 395 475> 373 135<176 224.5>
LayerCount: 2
Fore
SplineSet
373 198 m 0,0,1
 373 270 373 270 333 292 c 1,2,-1
 254 292 l 1,3,-1
 254 445 l 2,4,5
 254 542 254 542 226 595 c 1,6,-1
 193 595 l 1,7,8
 166 541 166 541 166 445 c 2,9,-1
 166 0 l 1,10,-1
 33 0 l 1,11,-1
 33 413 l 2,12,13
 33 514 33 514 52.5 582 c 128,-1,14
 72 650 72 650 138 700 c 1,15,-1
 282 700 l 1,16,17
 318 670 318 670 340.5 637 c 128,-1,18
 363 604 363 604 372 563.5 c 128,-1,19
 381 523 381 523 383.5 493 c 128,-1,20
 386 463 386 463 386 413 c 2,21,-1
 386 395 l 1,22,23
 508 355 508 355 508 197 c 0,24,25
 508 145 508 145 477.5 87 c 128,-1,26
 447 29 447 29 392 0 c 1,27,-1
 215 0 l 1,28,-1
 215 105 l 1,29,-1
 333 105 l 1,30,31
 349 116 349 116 361 141.5 c 128,-1,32
 373 167 373 167 373 198 c 0,0,1
EndSplineSet
EndChar

StartChar: ae
Encoding: 230 230 132
Width: 708
Flags: MW
HStem: 0 104<475 664 475 664 410 664> 200 94<426 562 419 675 426 426> 231 97<177 210 210 223 116 284 177 177> 406 105<69 249 69 308 453 453 453 528>
VStem: 29 127<156.5 183 156.5 193> 283 136<304 313 294 354 294 367.5> 562 122<294 310>
LayerCount: 2
Fore
SplineSet
664 104 m 1,0,-1
 664 0 l 1,1,-1
 410 0 l 1,2,3
 390 13 390 13 364 39 c 1,4,5
 320 0 320 0 257 0 c 2,6,-1
 114 0 l 1,7,8
 29 56 29 56 29 162 c 0,9,10
 29 267 29 267 116 328 c 1,11,-1
 210 328 l 2,12,13
 249 328 249 328 283 304 c 1,14,-1
 283 354 l 2,15,16
 283 393 283 393 249 406 c 1,17,-1
 69 406 l 1,18,-1
 69 511 l 1,19,-1
 308 511 l 1,20,21
 341 497 341 497 362 467 c 1,22,23
 378 485 378 485 412 511 c 1,24,-1
 569 511 l 1,25,26
 636 462 636 462 660 407 c 128,-1,27
 684 352 684 352 684 281 c 0,28,29
 684 240 684 240 675 200 c 1,30,-1
 426 200 l 1,31,32
 429 177 429 177 443.5 147 c 128,-1,33
 458 117 458 117 475 104 c 1,34,-1
 664 104 l 1,0,-1
284 231 m 1,35,-1
 177 231 l 1,36,37
 156 205 156 205 156 169 c 0,38,39
 156 127 156 127 178 105 c 1,40,-1
 317 105 l 1,41,42
 287 164 287 164 284 231 c 1,35,-1
528 406 m 1,43,-1
 453 406 l 1,44,45
 438 388 438 388 428.5 356 c 128,-1,46
 419 324 419 324 419 294 c 1,47,-1
 562 294 l 1,48,49
 562 321 562 321 552.5 355.5 c 128,-1,50
 543 390 543 390 528 406 c 1,43,-1
EndSplineSet
EndChar

StartChar: thorn
Encoding: 254 254 133
Width: 474
Flags: MW
HStem: -150 21G<43 174 43 43> 0 104 28 76 406 105<265 271 174 355> 680 20G<43 174 174 174>
VStem: 43 131<-150 28 105 406 485 700> 307 134
LayerCount: 2
Fore
SplineSet
43 700 m 1,0,-1
 174 700 l 1,1,-1
 174 485 l 1,2,3
 206 511 206 511 265 511 c 2,4,-1
 355 511 l 1,5,6
 445 423 445 423 445 262 c 0,7,8
 445 95 445 95 345 0 c 1,9,-1
 260 0 l 2,10,11
 205 0 205 0 174 28 c 1,12,-1
 174 -150 l 1,13,-1
 43 -150 l 1,14,-1
 43 700 l 1,0,-1
174 105 m 1,15,-1
 272 105 l 1,16,17
 309 168 309 168 309 258 c 128,-1,18
 309 348 309 348 271 406 c 1,19,-1
 174 406 l 1,20,-1
 174 105 l 1,15,-1
EndSplineSet
EndChar

StartChar: OE
Encoding: 338 338 134
Width: 755
Flags: MW
HStem: 0 116<235 307 460 726 168 307> 297 116<510 698 510 510> 580 120<235 308 235 235 464 722 464 464>
VStem: 30 145<299 399 299 410> 367 141<299 413>
LayerCount: 2
Fore
SplineSet
722 700 m 1,0,-1
 722 580 l 1,1,-1
 464 580 l 1,2,3
 497 507 497 507 508 413 c 1,4,-1
 698 413 l 1,5,-1
 698 297 l 1,6,-1
 510 297 l 1,7,8
 502 198 502 198 460 116 c 1,9,-1
 726 116 l 1,10,-1
 726 0 l 1,11,-1
 168 0 l 1,12,13
 96 66 96 66 63 157 c 128,-1,14
 30 248 30 248 30 340 c 0,15,16
 30 451 30 451 64 547 c 128,-1,17
 98 643 98 643 168 700 c 1,18,-1
 722 700 l 1,0,-1
235 116 m 1,19,-1
 307 116 l 1,20,21
 332 145 332 145 349.5 210.5 c 128,-1,22
 367 276 367 276 367 349 c 128,-1,23
 367 422 367 422 350 486.5 c 128,-1,24
 333 551 333 551 308 580 c 1,25,-1
 235 580 l 1,26,27
 210 551 210 551 192.5 486.5 c 128,-1,28
 175 422 175 422 175 349 c 128,-1,29
 175 276 175 276 192.5 210.5 c 128,-1,30
 210 145 210 145 235 116 c 1,19,-1
EndSplineSet
EndChar

StartChar: oe
Encoding: 339 339 135
Width: 727
Flags: MW
HStem: 105 95<494 683 683 683> 294 112<472 547>
VStem: 164 148<229.5 289> 438 143<294 313>
LayerCount: 2
Fore
SplineSet
683 105 m 1,0,-1
 683 0 l 1,1,-1
 435 0 l 1,2,3
 407 18 407 18 384 51 c 1,4,5
 366 22 366 22 343 0 c 1,6,-1
 129 0 l 1,7,8
 29 93 29 93 29 254 c 0,9,10
 29 335 29 335 51.5 395 c 128,-1,11
 74 455 74 455 123 511 c 1,12,-1
 342 511 l 1,13,14
 360 496 360 496 386 458 c 1,15,16
 403 485 403 485 438 511 c 1,17,-1
 588 511 l 1,18,19
 655 462 655 462 679 407 c 128,-1,20
 703 352 703 352 703 281 c 0,21,22
 703 240 703 240 694 200 c 1,23,-1
 445 200 l 1,24,25
 448 177 448 177 462.5 147.5 c 128,-1,26
 477 118 477 118 494 105 c 1,27,-1
 683 105 l 1,0,-1
200 104 m 1,28,-1
 276 104 l 1,29,30
 312 174 312 174 312 258 c 0,31,32
 312 353 312 353 275 406 c 1,33,-1
 200 406 l 1,34,35
 164 355 164 355 164 258 c 0,36,37
 164 167 164 167 200 104 c 1,28,-1
547 406 m 1,38,-1
 472 406 l 1,39,40
 457 388 457 388 447.5 356 c 128,-1,41
 438 324 438 324 438 294 c 1,42,-1
 581 294 l 1,43,44
 583 324 583 324 573 356.5 c 128,-1,45
 563 389 563 389 547 406 c 1,38,-1
EndSplineSet
EndChar

StartChar: circumflex
Encoding: 710 710 136
Width: 500
Flags: MW
HStem: 549 169<174 309 191 326>
VStem: 111 279<582 582>
LayerCount: 2
Fore
SplineSet
191 718 m 1,0,-1
 309 718 l 1,1,-1
 390 582 l 1,2,-1
 326 549 l 1,3,-1
 250 626 l 1,4,-1
 174 549 l 1,5,-1
 111 582 l 1,6,-1
 191 718 l 1,0,-1
EndSplineSet
EndChar

StartChar: caron
Encoding: 711 711 137
Width: 500
Flags: MW
HStem: 549 169<174 309 174 191>
VStem: 111 279<685 685>
LayerCount: 2
Fore
SplineSet
309 549 m 1,0,-1
 191 549 l 1,1,-1
 111 685 l 1,2,-1
 174 718 l 1,3,-1
 250 641 l 1,4,-1
 326 718 l 1,5,-1
 390 685 l 1,6,-1
 309 549 l 1,0,-1
EndSplineSet
EndChar

StartChar: uni02C9
Encoding: 713 713 138
Width: 500
Flags: MW
HStem: 569 100<124 376 124 376>
VStem: 124 252<569 669 569 669>
LayerCount: 2
Fore
SplineSet
124 569 m 1,0,-1
 124 669 l 1,1,-1
 376 669 l 1,2,-1
 376 569 l 1,3,-1
 124 569 l 1,0,-1
EndSplineSet
EndChar

StartChar: breve
Encoding: 728 728 139
Width: 500
Flags: MW
HStem: 548 159<101 294 101 206>
VStem: 101 298<707 707>
LayerCount: 2
Fore
SplineSet
101 707 m 1,0,-1
 195 707 l 1,1,2
 202.326741769 664.50489774 202.326741769 664.50489774 213.146514893 652.802307129 c 0,3,4
 218.406496945 647.113147488 218.406496945 647.113147488 226 643 c 1,5,-1
 274 643 l 1,6,7
 283 648 283 648 288 653.5 c 128,-1,8
 293 659 293 659 296.5 670.5 c 128,-1,9
 300 682 300 682 301 685.5 c 128,-1,10
 302 689 302 689 305 707 c 1,11,-1
 399 707 l 1,12,13
 392 588 392 588 294 548 c 1,14,-1
 206 548 l 1,15,16
 108 588 108 588 101 707 c 1,0,-1
EndSplineSet
EndChar

StartChar: dieresis
Encoding: 168 168 140
Width: 500
Flags: MW
HStem: 565 135<97 229 97 229 270 402 97 270>
VStem: 97 132<565 700 565 700> 270 132<565 700 565 700>
LayerCount: 2
Fore
SplineSet
97 565 m 1,0,-1
 97 700 l 1,1,-1
 229 700 l 1,2,-1
 229 565 l 1,3,-1
 97 565 l 1,0,-1
270 565 m 1,4,-1
 270 700 l 1,5,-1
 402 700 l 1,6,-1
 402 565 l 1,7,-1
 270 565 l 1,4,-1
EndSplineSet
EndChar

StartChar: macron
Encoding: 175 175 141
Width: 500
Flags: MW
HStem: 569 100<124 376 124 376>
VStem: 124 252<569 669 569 669>
LayerCount: 2
Fore
SplineSet
124 569 m 1,0,-1
 124 669 l 1,1,-1
 376 669 l 1,2,-1
 376 569 l 1,3,-1
 124 569 l 1,0,-1
EndSplineSet
EndChar

StartChar: degree
Encoding: 176 176 142
Width: 315
Flags: MW
HStem: 518 80<142 174 142 205 111 174> 694 80<142 174 142 142>
VStem: 31 111<598 672> 174 111<598 672 619 694>
LayerCount: 2
Fore
SplineSet
111 774 m 1,0,-1
 205 774 l 1,1,2
 285 735 285 735 285 644 c 0,3,4
 285 605 285 605 264 570 c 128,-1,5
 243 535 243 535 205 518 c 1,6,-1
 111 518 l 1,7,8
 73 535 73 535 52 570 c 128,-1,9
 31 605 31 605 31 644 c 0,10,11
 31 735 31 735 111 774 c 1,0,-1
142 598 m 1,12,-1
 174 598 l 1,13,14
 192 616 192 616 192 645 c 0,15,16
 192 677 192 677 174 694 c 1,17,-1
 142 694 l 1,18,19
 124 677 124 677 124 645 c 0,20,21
 124 616 124 616 142 598 c 1,12,-1
EndSplineSet
EndChar

StartChar: acute
Encoding: 180 180 143
Width: 500
Flags: MW
HStem: 546 181<186 317>
VStem: 146 218<624 627>
LayerCount: 2
Fore
SplineSet
146 627 m 1,0,-1
 317 727 l 1,1,-1
 364 624 l 1,2,-1
 186 546 l 1,3,-1
 146 627 l 1,0,-1
EndSplineSet
EndChar

StartChar: grave
Encoding: 96 96 144
Width: 500
Flags: MW
HStem: 546 181<183 314>
VStem: 136 218<624 627>
LayerCount: 2
Fore
SplineSet
183 727 m 1,0,-1
 354 627 l 1,1,-1
 314 546 l 1,2,-1
 136 624 l 1,3,-1
 183 727 l 1,0,-1
EndSplineSet
EndChar

StartChar: cedilla
Encoding: 184 184 145
Width: 500
Flags: MW
HStem: -179 47<194 219 194 219 194 219>
VStem: 174 152<-260 -126 -179 -126>
LayerCount: 2
Fore
SplineSet
219 -132 m 1,0,-1
 194 -132 l 1,1,-1
 194 -60 l 1,2,-1
 227 15 l 1,3,-1
 311 15 l 1,4,-1
 282 -60 l 1,5,6
 297 -73 297 -73 304 -81.5 c 128,-1,7
 311 -90 311 -90 318.5 -109 c 128,-1,8
 326 -128 326 -128 326 -152 c 0,9,10
 326 -184 326 -184 308 -213 c 128,-1,11
 290 -242 290 -242 262 -260 c 1,12,-1
 174 -260 l 1,13,-1
 174 -179 l 1,14,-1
 219 -179 l 1,15,16
 228 -173 228 -173 228.5 -156 c 128,-1,17
 229 -139 229 -139 219 -132 c 1,0,-1
EndSplineSet
EndChar

StartChar: dotaccent
Encoding: 729 729 146
Width: 500
Flags: MW
HStem: 565 135<183 315 183 315>
VStem: 183 132<565 700 565 700>
LayerCount: 2
Fore
SplineSet
183 700 m 1,0,-1
 315 700 l 1,1,-1
 315 565 l 1,2,-1
 183 565 l 1,3,-1
 183 700 l 1,0,-1
EndSplineSet
EndChar

StartChar: ring
Encoding: 730 730 147
Width: 500
Flags: MW
HStem: 548 73<231 268 231 295 205 268> 719 75<231 268 231 231>
VStem: 125 106<621 697> 289 86<658.5 679>
LayerCount: 2
Fore
SplineSet
205 794 m 1,0,-1
 295 794 l 1,1,2
 375 755 375 755 375 669 c 0,3,4
 375 631 375 631 354 598.5 c 128,-1,5
 333 566 333 566 295 548 c 1,6,-1
 205 548 l 1,7,8
 167 566 167 566 146 598.5 c 128,-1,9
 125 631 125 631 125 669 c 0,10,11
 125 755 125 755 205 794 c 1,0,-1
231 621 m 1,12,-1
 268 621 l 1,13,14
 289 642 289 642 289 669 c 0,15,16
 289 700 289 700 268 719 c 1,17,-1
 231 719 l 1,18,19
 211 699 211 699 211 669 c 0,20,21
 211 641 211 641 231 621 c 1,12,-1
EndSplineSet
EndChar

StartChar: ogonek
Encoding: 731 731 148
Width: 500
Flags: MW
HStem: -227 100<270 270 270 340 187 270> 0 21G<334 334>
VStem: 150 190<-174 -139>
LayerCount: 2
Fore
SplineSet
228 12 m 1,0,-1
 334 0 l 1,1,-1
 270 -127 l 1,2,-1
 274 -132 l 1,3,-1
 340 -132 l 1,4,-1
 340 -227 l 1,5,-1
 187 -227 l 1,6,7
 150 -204 150 -204 150 -159 c 0,8,9
 150 -151 150 -151 151 -143 c 128,-1,10
 152 -135 152 -135 155 -125.5 c 128,-1,11
 158 -116 158 -116 160.5 -110 c 128,-1,12
 163 -104 163 -104 168.5 -93 c 128,-1,13
 174 -82 174 -82 176.5 -77 c 128,-1,14
 179 -72 179 -72 187 -58.5 c 128,-1,15
 195 -45 195 -45 198 -40 c 2,16,-1
 228 12 l 1,0,-1
EndSplineSet
EndChar

StartChar: tilde
Encoding: 732 732 149
Width: 500
Flags: MW
HStem: 557 129<191.5 297>
VStem: 119 262<571 659 659 659>
LayerCount: 2
Fore
SplineSet
297 557 m 1,0,-1
 201 582 l 1,1,2
 180 582 180 582 119 559 c 1,3,-1
 119 659 l 1,4,5
 183 686 183 686 205 686 c 1,6,-1
 302 659 l 1,7,8
 322 659 322 659 381 673 c 1,9,-1
 381 571 l 1,10,11
 320 556 320 556 297 557 c 1,0,-1
EndSplineSet
EndChar

StartChar: hungarumlaut
Encoding: 733 733 150
Width: 500
Flags: MW
HStem: 545 218<159 325>
VStem: 78 341<582 702>
LayerCount: 2
Fore
SplineSet
226 591 m 1,0,-1
 325 763 l 1,1,-1
 419 702 l 1,2,-1
 303 546 l 1,3,-1
 226 591 l 1,0,-1
78 582 m 1,4,-1
 161 762 l 1,5,-1
 261 711 l 1,6,-1
 159 545 l 1,7,-1
 78 582 l 1,4,-1
EndSplineSet
EndChar

StartChar: perthousand
Encoding: 8240 8240 151
Width: 1019
Flags: MW
HStem: 0 78<527 561 527 610 477 561 847 881> 0 700<184 222 89 293 89 293 477 519 89 610 477 477 89 797 89 930> 286 78<528 560 528 528 848 848 848 880> 336 78<139 173 139 222 89 173> 622 78<140 172 140 140>
VStem: 10 100<500.5 546 500.5 548.5> 184 335 202 99<500.5 546> 398 100<164.5 210 164.5 212.5> 590 99<164.5 210> 718 100<164.5 210 164.5 212.5> 910 99<164.5 210>
LayerCount: 2
Fore
SplineSet
89 700 m 1,0,-1
 222 700 l 1,1,2
 301 624 301 624 301 512 c 0,3,4
 301 411 301 411 222 336 c 1,5,-1
 89 336 l 1,6,7
 10 411 10 411 10 512 c 0,8,9
 10 624 10 624 89 700 c 1,0,-1
139 414 m 1,10,-1
 173 414 l 1,11,12
 202 464 202 464 202 524 c 0,13,14
 202 579 202 579 172 622 c 1,15,-1
 140 622 l 1,16,17
 110 579 110 579 110 524 c 0,18,19
 110 464 110 464 139 414 c 1,10,-1
477 364 m 1,20,-1
 610 364 l 1,21,22
 689 288 689 288 689 176 c 0,23,24
 689 75 689 75 610 0 c 1,25,-1
 477 0 l 1,26,27
 398 75 398 75 398 176 c 0,28,29
 398 288 398 288 477 364 c 1,20,-1
527 78 m 1,30,-1
 561 78 l 1,31,32
 590 128 590 128 590 188 c 0,33,34
 590 243 590 243 560 286 c 1,35,-1
 528 286 l 1,36,37
 498 243 498 243 498 188 c 0,38,39
 498 128 498 128 527 78 c 1,30,-1
797 364 m 1,40,-1
 930 364 l 1,41,42
 1009 288 1009 288 1009 176 c 0,43,44
 1009 75 1009 75 930 0 c 1,45,-1
 797 0 l 1,46,47
 718 75 718 75 718 176 c 0,48,49
 718 288 718 288 797 364 c 1,40,-1
847 78 m 1,50,-1
 881 78 l 1,51,52
 910 128 910 128 910 188 c 0,53,54
 910 243 910 243 880 286 c 1,55,-1
 848 286 l 1,56,57
 818 243 818 243 818 188 c 0,58,59
 818 128 818 128 847 78 c 1,50,-1
406 700 m 1,60,-1
 184 0 l 1,61,-1
 293 0 l 1,62,-1
 519 700 l 1,63,-1
 406 700 l 1,60,-1
EndSplineSet
EndChar

StartChar: percent
Encoding: 37 37 152
Width: 776
Flags: MW
HStem: 0 700<221 221 221 241 95 330 535 556 95 681 535 535> 94 231<586 630 586 630> 373 231<146 190 146 190>
VStem: 119 98<470 508> 221 335 559 98<191 229>
LayerCount: 2
Fore
SplineSet
241 279 m 1,0,-1
 95 279 l 1,1,2
 10 365 10 365 10 483 c 0,3,4
 10 621 10 621 95 700 c 1,5,-1
 241 700 l 1,6,7
 326 621 326 621 326 483 c 0,8,9
 326 365 326 365 241 279 c 1,0,-1
119 489 m 0,10,11
 119 419 119 419 146 373 c 1,12,-1
 190 373 l 1,13,14
 217 422 217 422 217 489 c 0,15,16
 217 555 217 555 190 604 c 1,17,-1
 146 604 l 1,18,19
 119 558 119 558 119 489 c 0,10,11
681 0 m 1,20,-1
 535 0 l 1,21,22
 450 86 450 86 450 204 c 0,23,24
 450 342 450 342 535 421 c 1,25,-1
 681 421 l 1,26,27
 766 342 766 342 766 204 c 0,28,29
 766 86 766 86 681 0 c 1,20,-1
559 210 m 0,30,31
 559 140 559 140 586 94 c 1,32,-1
 630 94 l 1,33,34
 657 143 657 143 657 210 c 0,35,36
 657 276 657 276 630 325 c 1,37,-1
 586 325 l 1,38,39
 559 279 559 279 559 210 c 0,30,31
221 0 m 1,40,-1
 443 700 l 1,41,-1
 556 700 l 1,42,-1
 330 0 l 1,43,-1
 221 0 l 1,40,-1
EndSplineSet
EndChar

StartChar: fraction
Encoding: 8260 8260 153
Width: 305
Flags: MW
HStem: 0 700<10 345 10 345>
VStem: 10 335
LayerCount: 2
Fore
SplineSet
10 0 m 1,0,-1
 232 700 l 1,1,-1
 345 700 l 1,2,-1
 119 0 l 1,3,-1
 10 0 l 1,0,-1
EndSplineSet
EndChar

StartChar: minus
Encoding: 8722 8722 154
Width: 344
Flags: MW
HStem: 290 97<5 339 5 339>
VStem: 5 334<290 387 290 387>
LayerCount: 2
Fore
SplineSet
5 290 m 1,0,-1
 5 387 l 1,1,-1
 339 387 l 1,2,-1
 339 290 l 1,3,-1
 5 290 l 1,0,-1
EndSplineSet
EndChar

StartChar: uni2215
Encoding: 8725 8725 155
Width: 395
Flags: MW
HStem: 0 700<10 345 10 345>
VStem: 10 335
LayerCount: 2
Fore
SplineSet
10 0 m 1,0,-1
 232 700 l 1,1,-1
 345 700 l 1,2,-1
 119 0 l 1,3,-1
 10 0 l 1,0,-1
EndSplineSet
EndChar

StartChar: uni2219
Encoding: 8729 8729 156
Width: 192
Flags: MW
HStem: 295 124<40 152 40 152>
VStem: 40 112<295 419 295 419>
LayerCount: 2
Fore
SplineSet
40 419 m 1,0,-1
 152 419 l 1,1,-1
 152 295 l 1,2,-1
 40 295 l 1,3,-1
 40 419 l 1,0,-1
EndSplineSet
EndChar

StartChar: approxequal
Encoding: 8776 8776 157
Width: 472
Flags: MW
HStem: 287 96<304 327.5> 335 96<168 168>
VStem: 40 392<176 304 175 305 175 305 401 529 175 530 175 530>
LayerCount: 2
Fore
SplineSet
304 383 m 1,0,-1
 168 431 l 1,1,2
 114 427 114 427 40 401 c 1,3,-1
 40 530 l 1,4,5
 88 548 88 548 111.5 553 c 128,-1,6
 135 558 135 558 168 560 c 1,7,-1
 304 512 l 1,8,9
 354 512 354 512 432 529 c 1,10,-1
 432 400 l 1,11,12
 369 384 369 384 304 383 c 1,0,-1
304 158 m 1,13,-1
 168 206 l 1,14,15
 114 202 114 202 40 176 c 1,16,-1
 40 305 l 1,17,18
 88 323 88 323 111.5 328 c 128,-1,19
 135 333 135 333 168 335 c 1,20,-1
 304 287 l 1,21,22
 354 287 354 287 432 304 c 1,23,-1
 432 175 l 1,24,25
 369 159 369 159 304 158 c 1,13,-1
EndSplineSet
EndChar

StartChar: notequal
Encoding: 8800 8800 158
Width: 414
Flags: MW
HStem: 58 512<49 366 49 366> 170 97<40 374 40 374> 370 97<40 374 40 374>
VStem: 40 334<170 267 170 267 370 467 170 467> 49 317
LayerCount: 2
Fore
SplineSet
49 58 m 1,0,-1
 272 570 l 1,1,-1
 366 570 l 1,2,-1
 143 58 l 1,3,-1
 49 58 l 1,0,-1
40 370 m 1,4,-1
 40 467 l 1,5,-1
 374 467 l 1,6,-1
 374 370 l 1,7,-1
 40 370 l 1,4,-1
40 170 m 1,8,-1
 40 267 l 1,9,-1
 374 267 l 1,10,-1
 374 170 l 1,11,-1
 40 170 l 1,8,-1
EndSplineSet
EndChar

StartChar: lessequal
Encoding: 8804 8804 159
Width: 379
Flags: MW
HStem: 0 97<20 354 20 354> 144 390<308 308>
VStem: 20 334<0 97 0 97 0 389 0 389> 20 339<0 247 97 247 247 389 247 389>
LayerCount: 2
Fore
SplineSet
20 0 m 1,0,-1
 20 97 l 1,1,-1
 354 97 l 1,2,-1
 354 0 l 1,3,-1
 20 0 l 1,0,-1
308 144 m 1,4,-1
 20 289 l 1,5,-1
 20 389 l 1,6,-1
 308 534 l 1,7,-1
 359 431 l 1,8,-1
 156 339 l 1,9,-1
 359 247 l 1,10,-1
 308 144 l 1,4,-1
EndSplineSet
EndChar

StartChar: greaterequal
Encoding: 8805 8805 160
Width: 379
Flags: MW
HStem: 0 97<25 359 25 359> 144 390<121 121>
VStem: 25 334<0 97 0 97> 70 339<247 289 289 431>
LayerCount: 2
Fore
SplineSet
25 0 m 1,0,-1
 25 97 l 1,1,-1
 359 97 l 1,2,-1
 359 0 l 1,3,-1
 25 0 l 1,0,-1
409 289 m 1,4,-1
 121 144 l 1,5,-1
 70 247 l 1,6,-1
 273 339 l 1,7,-1
 70 431 l 1,8,-1
 121 534 l 1,9,-1
 409 389 l 1,10,-1
 409 289 l 1,4,-1
EndSplineSet
EndChar

StartChar: less
Encoding: 60 60 161
Width: 379
Flags: MW
HStem: 144 390<308 308>
VStem: 20 339<247 389 247 389>
LayerCount: 2
Fore
SplineSet
308 144 m 1,0,-1
 20 289 l 1,1,-1
 20 389 l 1,2,-1
 308 534 l 1,3,-1
 359 431 l 1,4,-1
 156 339 l 1,5,-1
 359 247 l 1,6,-1
 308 144 l 1,0,-1
EndSplineSet
EndChar

StartChar: equal
Encoding: 61 61 162
Width: 344
Flags: MW
HStem: 170 97<5 339 5 339> 370 97<5 339 5 339>
VStem: 5 334<170 267 170 267 370 467 170 467>
LayerCount: 2
Fore
SplineSet
5 370 m 1,0,-1
 5 467 l 1,1,-1
 339 467 l 1,2,-1
 339 370 l 1,3,-1
 5 370 l 1,0,-1
5 170 m 1,4,-1
 5 267 l 1,5,-1
 339 267 l 1,6,-1
 339 170 l 1,7,-1
 5 170 l 1,4,-1
EndSplineSet
EndChar

StartChar: greater
Encoding: 62 62 163
Width: 379
Flags: MW
HStem: 144 390<71 71>
VStem: 20 339<247 289 289 431>
LayerCount: 2
Fore
SplineSet
359 289 m 1,0,-1
 71 144 l 1,1,-1
 20 247 l 1,2,-1
 223 339 l 1,3,-1
 20 431 l 1,4,-1
 71 534 l 1,5,-1
 359 389 l 1,6,-1
 359 289 l 1,0,-1
EndSplineSet
EndChar

StartChar: logicalnot
Encoding: 172 172 164
Width: 344
Flags: MW
HStem: 293 119<5 339 5 206>
VStem: 206 133<129 293 293 293>
LayerCount: 2
Fore
SplineSet
5 293 m 1,0,-1
 5 412 l 1,1,-1
 339 412 l 1,2,-1
 339 129 l 1,3,-1
 206 129 l 1,4,-1
 206 293 l 1,5,-1
 5 293 l 1,0,-1
EndSplineSet
EndChar

StartChar: plus
Encoding: 43 43 165
Width: 344
Flags: MW
HStem: 290 97<5 339 5 339> 290 221<5 219 123 219 123 339>
VStem: 123 96<167 511 167 511>
LayerCount: 2
Fore
SplineSet
5 290 m 1,0,-1
 5 387 l 1,1,-1
 339 387 l 1,2,-1
 339 290 l 1,3,-1
 5 290 l 1,0,-1
123 167 m 1,4,-1
 123 511 l 1,5,-1
 219 511 l 1,6,-1
 219 167 l 1,7,-1
 123 167 l 1,4,-1
EndSplineSet
EndChar

StartChar: plusminus
Encoding: 177 177 166
Width: 344
Flags: MW
HStem: 0 97<5 339 5 339> 290 97<5 339 5 339>
VStem: 5 334<0 97 0 97 290 387 0 387> 123 96<167 511 167 511>
LayerCount: 2
Fore
SplineSet
339 0 m 1,0,-1
 339 97 l 1,1,-1
 5 97 l 1,2,-1
 5 0 l 1,3,-1
 339 0 l 1,0,-1
5 290 m 1,4,-1
 5 387 l 1,5,-1
 339 387 l 1,6,-1
 339 290 l 1,7,-1
 5 290 l 1,4,-1
123 167 m 1,8,-1
 123 511 l 1,9,-1
 219 511 l 1,10,-1
 219 167 l 1,11,-1
 123 167 l 1,8,-1
EndSplineSet
EndChar

StartChar: divide
Encoding: 247 247 167
Width: 344
Flags: MW
HStem: 105 184<142 202 142 142> 386 184<142 202 142 339 5 202>
VStem: 95 154<168 197 479 508>
LayerCount: 2
Fore
SplineSet
142 570 m 1,0,-1
 202 570 l 1,1,2
 249 546 249 546 249 491 c 0,3,4
 249 472 249 472 236 449 c 128,-1,5
 223 426 223 426 202 416 c 1,6,-1
 142 416 l 1,7,8
 121 426 121 426 108 448.5 c 128,-1,9
 95 471 95 471 95 491 c 0,10,11
 95 547 95 547 142 570 c 1,0,-1
142 259 m 1,12,-1
 202 259 l 1,13,14
 249 236 249 236 249 180 c 0,15,16
 249 161 249 161 236 138 c 128,-1,17
 223 115 223 115 202 105 c 1,18,-1
 142 105 l 1,19,20
 121 115 121 115 108 137.5 c 128,-1,21
 95 160 95 160 95 180 c 0,22,23
 95 236 95 236 142 259 c 1,12,-1
339 289 m 1,24,-1
 339 386 l 1,25,-1
 5 386 l 1,26,-1
 5 289 l 1,27,-1
 339 289 l 1,24,-1
EndSplineSet
EndChar

StartChar: multiply
Encoding: 215 215 168
Width: 321
Flags: MW
HStem: 183 311<73 248>
VStem: 5 311<251 426>
LayerCount: 2
Fore
SplineSet
78 186 m 1,0,-1
 9 255 l 1,1,-1
 245 491 l 1,2,-1
 314 422 l 1,3,-1
 78 186 l 1,0,-1
248 183 m 1,4,-1
 5 426 l 1,5,-1
 73 494 l 1,6,-1
 316 251 l 1,7,-1
 248 183 l 1,4,-1
EndSplineSet
EndChar

StartChar: commaaccent
Encoding: 65539 -1 169
Width: 500
Flags: MW
HStem: -203 137<190 310 190 234>
VStem: 190 120<-160 -109 -109 -66 -160 -66>
LayerCount: 2
Fore
SplineSet
190 -203 m 1,0,-1
 190 -66 l 1,1,-1
 310 -66 l 1,2,-1
 310 -109 l 2,3,4
 310 -185 310 -185 298 -220.5 c 128,-1,5
 286 -256 286 -256 240 -319 c 1,6,-1
 194 -293 l 1,7,8
 223 -244 223 -244 234 -203 c 1,9,-1
 190 -203 l 1,0,-1
EndSplineSet
EndChar

StartChar: revcommaaccent
Encoding: 65540 -1 170
Width: 500
Flags: MW
HStem: 548 137<266 310 266 310 190 310>
VStem: 190 120<548 591 591 642>
LayerCount: 2
Fore
SplineSet
310 685 m 1,0,-1
 310 548 l 1,1,-1
 190 548 l 1,2,-1
 190 591 l 2,3,4
 190 667 190 667 202 702.5 c 128,-1,5
 214 738 214 738 260 801 c 1,6,-1
 306 775 l 1,7,8
 277 726 277 726 266 685 c 1,9,-1
 310 685 l 1,0,-1
EndSplineSet
EndChar

StartChar: tilde.cap
Encoding: 65541 -1 171
Width: 500
Flags: MW
HStem: 734 134<191.5 297>
VStem: 119 262<748 841 841 841>
LayerCount: 2
Fore
SplineSet
297 734 m 1,0,-1
 201 759 l 1,1,2
 180 759 180 759 119 736 c 1,3,-1
 119 841 l 1,4,5
 183 868 183 868 205 868 c 1,6,-1
 302 841 l 1,7,8
 322 841 322 841 381 855 c 1,9,-1
 381 748 l 1,10,11
 320 733 320 733 297 734 c 1,0,-1
EndSplineSet
EndChar

StartChar: ring.cap
Encoding: 65542 -1 172
Width: 500
Flags: MW
HStem: 728 73<231 268 231 295 205 268> 899 75<231 268 231 231>
VStem: 125 106<801 877> 289 86<838.5 859>
LayerCount: 2
Fore
SplineSet
205 974 m 1,0,-1
 295 974 l 1,1,2
 375 935 375 935 375 849 c 0,3,4
 375 811 375 811 354 778.5 c 128,-1,5
 333 746 333 746 295 728 c 1,6,-1
 205 728 l 1,7,8
 167 746 167 746 146 778.5 c 128,-1,9
 125 811 125 811 125 849 c 0,10,11
 125 935 125 935 205 974 c 1,0,-1
231 801 m 1,12,-1
 268 801 l 1,13,14
 289 822 289 822 289 849 c 0,15,16
 289 880 289 880 268 899 c 1,17,-1
 231 899 l 1,18,19
 211 879 211 879 211 849 c 0,20,21
 211 821 211 821 231 801 c 1,12,-1
EndSplineSet
EndChar

StartChar: circumflex.cap
Encoding: 65543 -1 173
Width: 500
Flags: MW
HStem: 728 150<198 336>
VStem: 105 290<767 769>
LayerCount: 2
Fore
SplineSet
198 878 m 1,0,-1
 304 878 l 1,1,-1
 395 767 l 1,2,-1
 336 728 l 1,3,-1
 250 786 l 1,4,-1
 164 729 l 1,5,-1
 105 769 l 1,6,-1
 198 878 l 1,0,-1
EndSplineSet
EndChar

StartChar: acute.cap
Encoding: 65544 -1 174
Width: 500
Flags: MW
HStem: 730 169<175 326>
VStem: 143 221<788 817>
LayerCount: 2
Fore
SplineSet
143 817 m 1,0,-1
 326 899 l 1,1,-1
 364 788 l 1,2,-1
 175 730 l 1,3,-1
 143 817 l 1,0,-1
EndSplineSet
EndChar

StartChar: grave.cap
Encoding: 65545 -1 175
Width: 500
Flags: MW
HStem: 730 169<175 326>
VStem: 136 222<788 817>
LayerCount: 2
Fore
SplineSet
175 899 m 1,0,-1
 358 817 l 1,1,-1
 326 730 l 1,2,-1
 136 788 l 1,3,-1
 175 899 l 1,0,-1
EndSplineSet
EndChar

StartChar: dieresis.cap
Encoding: 65546 -1 176
Width: 500
Flags: MW
HStem: 730 135<97 229 97 229 270 402 97 270>
VStem: 97 132<730 865 730 865> 270 132<730 865 730 865>
LayerCount: 2
Fore
SplineSet
97 730 m 1,0,-1
 97 865 l 1,1,-1
 229 865 l 1,2,-1
 229 730 l 1,3,-1
 97 730 l 1,0,-1
270 730 m 1,4,-1
 270 865 l 1,5,-1
 402 865 l 1,6,-1
 402 730 l 1,7,-1
 270 730 l 1,4,-1
EndSplineSet
EndChar

StartChar: caron.cap
Encoding: 65547 -1 177
Width: 500
Flags: MW
HStem: 728 150<198 336 198 336>
VStem: 105 290<837 839>
LayerCount: 2
Fore
SplineSet
304 728 m 1,0,-1
 198 728 l 1,1,-1
 105 837 l 1,2,-1
 164 877 l 1,3,-1
 250 820 l 1,4,-1
 336 878 l 1,5,-1
 395 839 l 1,6,-1
 304 728 l 1,0,-1
EndSplineSet
EndChar

StartChar: macron.cap
Encoding: 65548 -1 178
Width: 500
Flags: MW
HStem: 738 100<124 376 124 376>
VStem: 124 252<738 838 738 838>
LayerCount: 2
Fore
SplineSet
124 738 m 1,0,-1
 124 838 l 1,1,-1
 376 838 l 1,2,-1
 376 738 l 1,3,-1
 124 738 l 1,0,-1
EndSplineSet
EndChar

StartChar: dotaccent.cap
Encoding: 65549 -1 179
Width: 500
Flags: MW
HStem: 730 135<183 315 183 315>
VStem: 183 132<730 865 730 865>
LayerCount: 2
Fore
SplineSet
183 865 m 1,0,-1
 315 865 l 1,1,-1
 315 730 l 1,2,-1
 183 730 l 1,3,-1
 183 865 l 1,0,-1
EndSplineSet
EndChar

StartChar: cedilla.cap
Encoding: 65550 -1 180
Width: 500
Flags: MW
HStem: -260 81<174 219 174 262 174 219> -132 147<194 311 194 311>
VStem: 229 97
LayerCount: 2
Fore
SplineSet
219 -132 m 1,0,-1
 194 -132 l 1,1,-1
 194 -60 l 1,2,-1
 227 15 l 1,3,-1
 311 15 l 1,4,-1
 282 -60 l 1,5,6
 297 -73 297 -73 304 -81.5 c 128,-1,7
 311 -90 311 -90 318.5 -109 c 128,-1,8
 326 -128 326 -128 326 -152 c 0,9,10
 326 -184 326 -184 308 -213 c 128,-1,11
 290 -242 290 -242 262 -260 c 1,12,-1
 174 -260 l 1,13,-1
 174 -179 l 1,14,-1
 219 -179 l 1,15,16
 228 -173 228 -173 228.5 -156 c 128,-1,17
 229 -139 229 -139 219 -132 c 1,0,-1
EndSplineSet
EndChar

StartChar: hungarumlaut.cap
Encoding: 65551 -1 181
Width: 500
Flags: MW
HStem: 729 230<174 289>
VStem: 73 348<789 872>
LayerCount: 2
Fore
SplineSet
218 779 m 1,0,-1
 334 939 l 1,1,-1
 421 872 l 1,2,-1
 289 729 l 1,3,-1
 218 779 l 1,0,-1
73 789 m 1,4,-1
 174 959 l 1,5,-1
 268 900 l 1,6,-1
 149 745 l 1,7,-1
 73 789 l 1,4,-1
EndSplineSet
EndChar

StartChar: apostrophe
Encoding: 700 700 182
Width: 500
Flags: MW
HStem: 540 123<187 311 187 236>
VStem: 187 124<580 631 631 663 580 663>
LayerCount: 2
Fore
SplineSet
187 540 m 1,0,-1
 187 663 l 1,1,-1
 311 663 l 1,2,-1
 311 631 l 2,3,4
 311 558 311 558 298.5 521 c 128,-1,5
 286 484 286 484 246 430 c 1,6,-1
 198 456 l 1,7,8
 227 501 227 501 236 540 c 1,9,-1
 187 540 l 1,0,-1
EndSplineSet
EndChar

StartChar: commaaccent.cap
Encoding: 65552 -1 183
Width: 500
Flags: MW
HStem: -203 137<188 308 188 232>
VStem: 188 120<-160 -109 -109 -66 -160 -66>
LayerCount: 2
Fore
SplineSet
188 -203 m 1,0,-1
 188 -66 l 1,1,-1
 308 -66 l 1,2,-1
 308 -109 l 2,3,4
 308 -185 308 -185 296 -220.5 c 128,-1,5
 284 -256 284 -256 238 -319 c 1,6,-1
 192 -293 l 1,7,8
 221 -244 221 -244 232 -203 c 1,9,-1
 188 -203 l 1,0,-1
EndSplineSet
EndChar

StartChar: breve.cap
Encoding: 65553 -1 184
Width: 500
Flags: MW
HStem: 730 149<103 294 103 208>
VStem: 103 296<879 879>
LayerCount: 2
Fore
SplineSet
103 879 m 1,0,-1
 195 879 l 1,1,2
 205 840 205 840 231 827 c 1,3,-1
 270 827 l 1,4,5
 296 840 296 840 306 879 c 1,6,-1
 399 879 l 1,7,8
 395 771 395 771 294 730 c 1,9,-1
 208 730 l 1,10,11
 109 770 109 770 103 879 c 1,0,-1
EndSplineSet
EndChar

StartChar: caron.alt
Encoding: 65554 -1 185
Width: 500
Flags: MW
HStem: 501 199<183 266 183 286>
VStem: 183 103<501 700 700 700>
LayerCount: 2
Fore
SplineSet
183 700 m 1,0,-1
 286 700 l 1,1,-1
 266 501 l 1,2,-1
 183 501 l 1,3,-1
 183 700 l 1,0,-1
EndSplineSet
EndChar

StartChar: ogonek.cap
Encoding: 65555 -1 186
Width: 500
Flags: MW
HStem: -227 100<270 270 270 340 187 270>
VStem: 154 180
LayerCount: 2
Fore
SplineSet
228 12 m 1,0,-1
 334 0 l 1,1,-1
 270 -127 l 1,2,-1
 274 -132 l 1,3,-1
 340 -132 l 1,4,-1
 340 -227 l 1,5,-1
 187 -227 l 1,6,7
 150 -204 150 -204 150 -159 c 0,8,9
 150 -151 150 -151 151 -143 c 128,-1,10
 152 -135 152 -135 155 -125.5 c 128,-1,11
 158 -116 158 -116 160.5 -110 c 128,-1,12
 163 -104 163 -104 168.5 -93 c 128,-1,13
 174 -82 174 -82 176.5 -77 c 128,-1,14
 179 -72 179 -72 187 -58.5 c 128,-1,15
 195 -45 195 -45 198 -40 c 2,16,-1
 228 12 l 1,0,-1
EndSplineSet
EndChar

StartChar: ff
Encoding: 64256 64256 187
Width: 567
Flags: MW
HStem: 511 84<231 291 231 321 231 321 488 558 558 558>
VStem: 197 124<0 406 0 406 511 532.5>
LayerCount: 2
Fore
SplineSet
177 700 m 1,0,-1
 291 700 l 1,1,-1
 291 595 l 1,2,-1
 231 595 l 1,3,4
 197 574 197 574 197 511 c 1,5,-1
 321 511 l 1,6,7
 321 641 321 641 434 700 c 1,8,-1
 578 700 l 1,9,-1
 578 595 l 1,10,-1
 488 595 l 1,11,12
 454 574 454 574 454 511 c 1,13,-1
 558 511 l 1,14,-1
 558 406 l 1,15,-1
 454 406 l 1,16,-1
 454 0 l 1,17,-1
 321 0 l 1,18,-1
 321 406 l 1,19,-1
 197 406 l 1,20,-1
 197 0 l 1,21,-1
 64 0 l 1,22,-1
 64 406 l 1,23,-1
 9 406 l 1,24,-1
 9 511 l 1,25,-1
 64 511 l 1,26,27
 64 641 64 641 177 700 c 1,0,-1
EndSplineSet
Ligature2: "'liga' Standard Ligatures in Latin lookup 0 subtable" f f
EndChar

StartChar: fi
Encoding: 64257 64257 188
Width: 496
Flags: MW
HStem: 511 84<231 281 231 453> 565 135<321 453 177 321>
VStem: 197 124<0 406 0 406 0 532.5> 321 132<0 406 406 406 565 700>
LayerCount: 2
Fore
SplineSet
177 700 m 1,0,-1
 281 700 l 1,1,-1
 281 595 l 1,2,-1
 231 595 l 1,3,4
 197 574 197 574 197 511 c 1,5,-1
 453 511 l 1,6,-1
 453 0 l 1,7,-1
 321 0 l 1,8,-1
 321 406 l 1,9,-1
 197 406 l 1,10,-1
 197 0 l 1,11,-1
 64 0 l 1,12,-1
 64 406 l 1,13,-1
 9 406 l 1,14,-1
 9 511 l 1,15,-1
 64 511 l 1,16,17
 64 641 64 641 177 700 c 1,0,-1
321 700 m 1,18,-1
 453 700 l 1,19,-1
 453 565 l 1,20,-1
 321 565 l 1,21,-1
 321 700 l 1,18,-1
EndSplineSet
Ligature2: "'liga' Standard Ligatures in Latin lookup 0 subtable" f i
EndChar

StartChar: fl
Encoding: 64258 64258 189
Width: 496
Flags: MW
HStem: 511 84<231 280 231 321 231 321>
VStem: 280 41<595 700 595 595>
LayerCount: 2
Fore
SplineSet
453 700 m 1,0,-1
 453 0 l 1,1,-1
 321 0 l 1,2,-1
 321 406 l 1,3,-1
 197 406 l 1,4,-1
 197 0 l 1,5,-1
 64 0 l 1,6,-1
 64 406 l 1,7,-1
 9 406 l 1,8,-1
 9 511 l 1,9,-1
 64 511 l 1,10,11
 64 641 64 641 177 700 c 1,12,-1
 280 700 l 1,13,-1
 280 595 l 1,14,-1
 231 595 l 1,15,16
 197 574 197 574 197 511 c 1,17,-1
 321 511 l 1,18,-1
 321 700 l 1,19,-1
 453 700 l 1,0,-1
EndSplineSet
Ligature2: "'liga' Standard Ligatures in Latin lookup 0 subtable" f l
EndChar

StartChar: ffi
Encoding: 64259 64259 190
Width: 753
Flags: MW
HStem: 511 84<231 291 231 321 231 321 488 538> 565 135<578 710>
VStem: 197 124<0 406 0 406 511 532.5> 454 124<0 406 0 406 0 532.5> 578 132<0 406 406 406 565 700>
LayerCount: 2
Fore
SplineSet
434 700 m 1,0,-1
 538 700 l 1,1,-1
 538 595 l 1,2,-1
 488 595 l 1,3,4
 454 574 454 574 454 511 c 1,5,-1
 710 511 l 1,6,-1
 710 0 l 1,7,-1
 578 0 l 1,8,-1
 578 406 l 1,9,-1
 454 406 l 1,10,-1
 454 0 l 1,11,-1
 321 0 l 1,12,-1
 321 406 l 1,13,-1
 197 406 l 1,14,-1
 197 0 l 1,15,-1
 64 0 l 1,16,-1
 64 406 l 1,17,-1
 9 406 l 1,18,-1
 9 511 l 1,19,-1
 64 511 l 1,20,21
 64 641 64 641 177 700 c 1,22,-1
 291 700 l 1,23,-1
 291 595 l 1,24,-1
 231 595 l 1,25,26
 197 574 197 574 197 511 c 1,27,-1
 321 511 l 1,28,29
 321 641 321 641 434 700 c 1,0,-1
578 700 m 1,30,-1
 710 700 l 1,31,-1
 710 565 l 1,32,-1
 578 565 l 1,33,-1
 578 700 l 1,30,-1
EndSplineSet
Ligature2: "'liga' Standard Ligatures in Latin lookup 0 subtable" f f i
EndChar

StartChar: ffl
Encoding: 64260 64260 191
Width: 752
Flags: MW
HStem: 511 84<231 291 231 320 231 320 487 536>
VStem: 197 123<0 406 0 406 511 532.5> 536 41<595 700 595 595>
LayerCount: 2
Fore
SplineSet
709 700 m 1,0,-1
 709 0 l 1,1,-1
 577 0 l 1,2,-1
 577 406 l 1,3,-1
 453 406 l 1,4,-1
 453 0 l 1,5,-1
 320 0 l 1,6,-1
 320 406 l 1,7,-1
 197 406 l 1,8,-1
 197 0 l 1,9,-1
 64 0 l 1,10,-1
 64 406 l 1,11,-1
 9 406 l 1,12,-1
 9 511 l 1,13,-1
 64 511 l 1,14,15
 64 641 64 641 177 700 c 1,16,-1
 291 700 l 1,17,-1
 291 595 l 1,18,-1
 231 595 l 1,19,20
 197 574 197 574 197 511 c 1,21,-1
 320 511 l 1,22,23
 320 641 320 641 433 700 c 1,24,-1
 536 700 l 1,25,-1
 536 595 l 1,26,-1
 487 595 l 1,27,28
 453 574 453 574 453 511 c 1,29,-1
 577 511 l 1,30,-1
 577 700 l 1,31,-1
 709 700 l 1,0,-1
EndSplineSet
Ligature2: "'liga' Standard Ligatures in Latin lookup 0 subtable" f f l
EndChar

StartChar: Aacute
Encoding: 193 193 192
Width: 490
Flags: MW
HStem: 0 21G<10 146 10 10 346 480 346 346> 111 107<183 308 183 325 167 308> 570 130<244 244 244 246> 680 20G<145 352 352 352> 730 169<191 342>
VStem: 10 470<0 0> 159 221<788 817>
LayerCount: 2
Fore
SplineSet
346 0 m 1,0,-1
 325 111 l 1,1,-1
 167 111 l 1,2,-1
 146 0 l 1,3,-1
 10 0 l 1,4,-1
 145 700 l 1,5,-1
 352 700 l 1,6,-1
 480 0 l 1,7,-1
 346 0 l 1,0,-1
244 570 m 1,8,-1
 205 337 l 1,9,-1
 183 218 l 1,10,-1
 308 218 l 1,11,-1
 285 337 l 1,12,-1
 246 570 l 1,13,-1
 244 570 l 1,8,-1
159 817 m 1,14,-1
 342 899 l 1,15,-1
 380 788 l 1,16,-1
 191 730 l 1,17,-1
 159 817 l 1,14,-1
EndSplineSet
EndChar

StartChar: Abreve
Encoding: 258 258 193
Width: 490
Flags: MW
HStem: 0 21G<10 146 10 10 346 480 346 346> 111 107<183 308 183 325 167 308> 570 130<244 244 244 246> 680 20G<145 352 352 352> 730 149<98 289 98 203>
VStem: 10 470<0 0> 98 296<879 879>
LayerCount: 2
Fore
SplineSet
346 0 m 1,0,-1
 325 111 l 1,1,-1
 167 111 l 1,2,-1
 146 0 l 1,3,-1
 10 0 l 1,4,-1
 145 700 l 1,5,-1
 352 700 l 1,6,-1
 480 0 l 1,7,-1
 346 0 l 1,0,-1
244 570 m 1,8,-1
 205 337 l 1,9,-1
 183 218 l 1,10,-1
 308 218 l 1,11,-1
 285 337 l 1,12,-1
 246 570 l 1,13,-1
 244 570 l 1,8,-1
98 879 m 1,14,-1
 190 879 l 1,15,16
 200 840 200 840 226 827 c 1,17,-1
 265 827 l 1,18,19
 291 840 291 840 301 879 c 1,20,-1
 394 879 l 1,21,22
 390 771 390 771 289 730 c 1,23,-1
 203 730 l 1,24,25
 104 770 104 770 98 879 c 1,14,-1
EndSplineSet
EndChar

StartChar: Acircumflex
Encoding: 194 194 194
Width: 490
Flags: MW
HStem: 0 21G<10 146 10 10 346 480 346 346> 111 107<183 308 183 325 167 308> 570 130<244 244 244 246> 680 20G<145 352 352 352> 728 150<193 331>
VStem: 10 470<0 0> 100 290<767 769>
LayerCount: 2
Fore
SplineSet
346 0 m 1,0,-1
 325 111 l 1,1,-1
 167 111 l 1,2,-1
 146 0 l 1,3,-1
 10 0 l 1,4,-1
 145 700 l 1,5,-1
 352 700 l 1,6,-1
 480 0 l 1,7,-1
 346 0 l 1,0,-1
244 570 m 1,8,-1
 205 337 l 1,9,-1
 183 218 l 1,10,-1
 308 218 l 1,11,-1
 285 337 l 1,12,-1
 246 570 l 1,13,-1
 244 570 l 1,8,-1
193 878 m 1,14,-1
 299 878 l 1,15,-1
 390 767 l 1,16,-1
 331 728 l 1,17,-1
 245 786 l 1,18,-1
 159 729 l 1,19,-1
 100 769 l 1,20,-1
 193 878 l 1,14,-1
EndSplineSet
EndChar

StartChar: Adieresis
Encoding: 196 196 195
Width: 490
Flags: MW
HStem: 0 21G<10 146 10 10 346 480 346 346> 111 107<183 308 183 325 167 308> 570 130<244 244 244 246> 680 20G<145 352 352 352> 730 135<93 225 93 225 266 398 93 266>
VStem: 10 470<0 0> 93 132<730 865 730 865> 266 132<730 865 730 865>
LayerCount: 2
Fore
SplineSet
346 0 m 1,0,-1
 325 111 l 1,1,-1
 167 111 l 1,2,-1
 146 0 l 1,3,-1
 10 0 l 1,4,-1
 145 700 l 1,5,-1
 352 700 l 1,6,-1
 480 0 l 1,7,-1
 346 0 l 1,0,-1
244 570 m 1,8,-1
 205 337 l 1,9,-1
 183 218 l 1,10,-1
 308 218 l 1,11,-1
 285 337 l 1,12,-1
 246 570 l 1,13,-1
 244 570 l 1,8,-1
93 730 m 1,14,-1
 93 865 l 1,15,-1
 225 865 l 1,16,-1
 225 730 l 1,17,-1
 93 730 l 1,14,-1
266 730 m 1,18,-1
 266 865 l 1,19,-1
 398 865 l 1,20,-1
 398 730 l 1,21,-1
 266 730 l 1,18,-1
EndSplineSet
EndChar

StartChar: Agrave
Encoding: 192 192 196
Width: 490
Flags: MW
HStem: 0 21G<10 146 10 10 346 480 346 346> 111 107<183 308 183 325 167 308> 570 130<244 244 244 246> 680 20G<145 352 352 352> 730 169<170 321>
VStem: 10 470<0 0> 131 222<788 817>
LayerCount: 2
Fore
SplineSet
346 0 m 1,0,-1
 325 111 l 1,1,-1
 167 111 l 1,2,-1
 146 0 l 1,3,-1
 10 0 l 1,4,-1
 145 700 l 1,5,-1
 352 700 l 1,6,-1
 480 0 l 1,7,-1
 346 0 l 1,0,-1
244 570 m 1,8,-1
 205 337 l 1,9,-1
 183 218 l 1,10,-1
 308 218 l 1,11,-1
 285 337 l 1,12,-1
 246 570 l 1,13,-1
 244 570 l 1,8,-1
170 899 m 1,14,-1
 353 817 l 1,15,-1
 321 730 l 1,16,-1
 131 788 l 1,17,-1
 170 899 l 1,14,-1
EndSplineSet
EndChar

StartChar: Amacron
Encoding: 256 256 197
Width: 490
Flags: MW
HStem: 0 21G<10 146 10 10 346 480 346 346> 111 107<183 308 183 325 167 308> 570 130<244 244 244 246> 680 20G<145 352 352 352> 738 100<119 371 119 371>
VStem: 10 470<0 0> 119 252<738 838 738 838>
LayerCount: 2
Fore
SplineSet
346 0 m 1,0,-1
 325 111 l 1,1,-1
 167 111 l 1,2,-1
 146 0 l 1,3,-1
 10 0 l 1,4,-1
 145 700 l 1,5,-1
 352 700 l 1,6,-1
 480 0 l 1,7,-1
 346 0 l 1,0,-1
244 570 m 1,8,-1
 205 337 l 1,9,-1
 183 218 l 1,10,-1
 308 218 l 1,11,-1
 285 337 l 1,12,-1
 246 570 l 1,13,-1
 244 570 l 1,8,-1
119 738 m 1,14,-1
 119 838 l 1,15,-1
 371 838 l 1,16,-1
 371 738 l 1,17,-1
 119 738 l 1,14,-1
EndSplineSet
EndChar

StartChar: Aogonek
Encoding: 260 260 198
Width: 490
Flags: MW
HStem: -227 100<421 471 421 471 328 471> 0 21G<10 146 10 10 346 367 346 346 480 480> 111 107<183 308 183 325 167 308> 570 130<244 244 244 246> 680 20G<145 352 352 352>
VStem: 10 470<0 0> 291 180<-174 -139>
LayerCount: 2
Fore
SplineSet
346 0 m 1,0,-1
 325 111 l 1,1,-1
 167 111 l 1,2,-1
 146 0 l 1,3,-1
 10 0 l 1,4,-1
 145 700 l 1,5,-1
 352 700 l 1,6,-1
 480 0 l 1,7,-1
 417 -103 l 2,8,9
 411 -113 411 -113 411 -119 c 0,10,11
 411 -127 411 -127 421 -127 c 2,12,-1
 471 -127 l 1,13,-1
 471 -227 l 1,14,-1
 328 -227 l 1,15,16
 291 -204 291 -204 291 -159 c 0,17,18
 291 -112 291 -112 341 -40 c 1,19,-1
 367 0 l 1,20,-1
 346 0 l 1,0,-1
244 570 m 1,21,-1
 205 337 l 1,22,-1
 183 218 l 1,23,-1
 308 218 l 1,24,-1
 285 337 l 1,25,-1
 246 570 l 1,26,-1
 244 570 l 1,21,-1
EndSplineSet
EndChar

StartChar: Aring
Encoding: 197 197 199
Width: 490
Flags: MW
HStem: 0 21G<10 146 10 10 346 480 346 346> 111 107<183 308 183 325 167 308> 570 130 646 73 680 20G 817 75<228 265 228 228>
VStem: 10 470<0 0> 122 106<719 795> 286 86<756.5 777>
LayerCount: 2
Fore
SplineSet
202 892 m 1,0,-1
 292 892 l 1,1,2
 372 853 372 853 372 767 c 0,3,4
 372 729 372 729 352 698 c 1,5,-1
 480 0 l 1,6,-1
 346 0 l 1,7,-1
 325 111 l 1,8,-1
 167 111 l 1,9,-1
 146 0 l 1,10,-1
 10 0 l 1,11,-1
 144 694 l 1,12,13
 122 726 122 726 122 767 c 0,14,15
 122 853 122 853 202 892 c 1,0,-1
244 570 m 1,16,-1
 205 337 l 1,17,-1
 183 218 l 1,18,-1
 308 218 l 1,19,-1
 285 337 l 1,20,-1
 246 570 l 1,21,-1
 244 570 l 1,16,-1
228 719 m 1,22,-1
 265 719 l 1,23,24
 286 740 286 740 286 767 c 0,25,26
 286 798 286 798 265 817 c 1,27,-1
 228 817 l 1,28,29
 208 797 208 797 208 767 c 0,30,31
 208 739 208 739 228 719 c 1,22,-1
EndSplineSet
EndChar

StartChar: Atilde
Encoding: 195 195 200
Width: 490
Flags: MW
HStem: 0 21G<10 146 10 10 346 480 346 346> 111 107<183 308 183 325 167 308> 570 130<244 244 244 246> 680 20G<145 352 352 352> 734 134<186.5 292>
VStem: 10 470<0 0> 114 262<748 841 841 841>
LayerCount: 2
Fore
SplineSet
346 0 m 1,0,-1
 325 111 l 1,1,-1
 167 111 l 1,2,-1
 146 0 l 1,3,-1
 10 0 l 1,4,-1
 145 700 l 1,5,-1
 352 700 l 1,6,-1
 480 0 l 1,7,-1
 346 0 l 1,0,-1
244 570 m 1,8,-1
 205 337 l 1,9,-1
 183 218 l 1,10,-1
 308 218 l 1,11,-1
 285 337 l 1,12,-1
 246 570 l 1,13,-1
 244 570 l 1,8,-1
292 734 m 1,14,-1
 196 759 l 1,15,16
 175 759 175 759 114 736 c 1,17,-1
 114 841 l 1,18,19
 178 868 178 868 200 868 c 1,20,-1
 297 841 l 1,21,22
 317 841 317 841 376 855 c 1,23,-1
 376 748 l 1,24,25
 315 733 315 733 292 734 c 1,14,-1
EndSplineSet
EndChar

StartChar: Cacute
Encoding: 262 262 201
Width: 443
Flags: MW
HStem: 0 116<242 418 242 418 164 418> 580 120<242 418 242 242> 730 169<231 382>
VStem: 30 146<306.5 389.5 306.5 415> 199 221<788 817>
LayerCount: 2
Fore
SplineSet
242 116 m 1,0,-1
 418 116 l 1,1,-1
 418 0 l 1,2,-1
 164 0 l 1,3,4
 98 62 98 62 64 157 c 128,-1,5
 30 252 30 252 30 345 c 0,6,7
 30 453 30 453 68 546 c 128,-1,8
 106 639 106 639 181 700 c 1,9,-1
 418 700 l 1,10,-1
 418 580 l 1,11,-1
 242 580 l 1,12,13
 215 549 215 549 195.5 480 c 128,-1,14
 176 411 176 411 176 348 c 128,-1,15
 176 285 176 285 195.5 216 c 128,-1,16
 215 147 215 147 242 116 c 1,0,-1
199 817 m 1,17,-1
 382 899 l 1,18,-1
 420 788 l 1,19,-1
 231 730 l 1,20,-1
 199 817 l 1,17,-1
EndSplineSet
EndChar

StartChar: Ccaron
Encoding: 268 268 202
Width: 443
Flags: MW
HStem: 0 116<242 418 242 418 164 418> 580 120<242 418 242 242> 728 150<234 372 234 372>
VStem: 30 146<306.5 389.5 306.5 415> 141 290<837 839>
LayerCount: 2
Fore
SplineSet
242 116 m 1,0,-1
 418 116 l 1,1,-1
 418 0 l 1,2,-1
 164 0 l 1,3,4
 98 62 98 62 64 157 c 128,-1,5
 30 252 30 252 30 345 c 0,6,7
 30 453 30 453 68 546 c 128,-1,8
 106 639 106 639 181 700 c 1,9,-1
 418 700 l 1,10,-1
 418 580 l 1,11,-1
 242 580 l 1,12,13
 215 549 215 549 195.5 480 c 128,-1,14
 176 411 176 411 176 348 c 128,-1,15
 176 285 176 285 195.5 216 c 128,-1,16
 215 147 215 147 242 116 c 1,0,-1
340 728 m 1,17,-1
 234 728 l 1,18,-1
 141 837 l 1,19,-1
 200 877 l 1,20,-1
 286 820 l 1,21,-1
 372 878 l 1,22,-1
 431 839 l 1,23,-1
 340 728 l 1,17,-1
EndSplineSet
EndChar

StartChar: Ccedilla
Encoding: 199 199 203
Width: 443
Flags: MW
HStem: -260 81<179 224 179 267 179 224> -132 147 0 116<164 418 164 418 310 310 310 418> 580 120<242 418 242 242>
VStem: 30 146<306.5 389.5 306.5 415> 234 97
LayerCount: 2
Fore
SplineSet
224 -132 m 1,0,-1
 199 -132 l 1,1,-1
 199 -60 l 1,2,-1
 225 0 l 1,3,-1
 164 0 l 1,4,5
 98 62 98 62 64 157 c 128,-1,6
 30 252 30 252 30 345 c 0,7,8
 30 453 30 453 68 546 c 128,-1,9
 106 639 106 639 181 700 c 1,10,-1
 418 700 l 1,11,-1
 418 580 l 1,12,-1
 242 580 l 1,13,14
 215 549 215 549 195.5 480 c 128,-1,15
 176 411 176 411 176 348 c 128,-1,16
 176 285 176 285 195.5 216 c 128,-1,17
 215 147 215 147 242 116 c 1,18,-1
 418 116 l 1,19,-1
 418 0 l 1,20,-1
 310 0 l 1,21,-1
 287 -60 l 1,22,23
 302 -73 302 -73 309 -81.5 c 128,-1,24
 316 -90 316 -90 323.5 -109 c 128,-1,25
 331 -128 331 -128 331 -152 c 0,26,27
 331 -184 331 -184 313 -213 c 128,-1,28
 295 -242 295 -242 267 -260 c 1,29,-1
 179 -260 l 1,30,-1
 179 -179 l 1,31,-1
 224 -179 l 1,32,33
 233 -173 233 -173 233.5 -156 c 128,-1,34
 234 -139 234 -139 224 -132 c 1,0,-1
EndSplineSet
EndChar

StartChar: Ccircumflex
Encoding: 264 264 204
Width: 443
Flags: MW
HStem: 0 116<242 418 242 418 164 418> 580 120<242 418 242 242> 728 150<224 362>
VStem: 30 146<306.5 389.5 306.5 415> 131 290<767 769>
LayerCount: 2
Fore
SplineSet
242 116 m 1,0,-1
 418 116 l 1,1,-1
 418 0 l 1,2,-1
 164 0 l 1,3,4
 98 62 98 62 64 157 c 128,-1,5
 30 252 30 252 30 345 c 0,6,7
 30 453 30 453 68 546 c 128,-1,8
 106 639 106 639 181 700 c 1,9,-1
 418 700 l 1,10,-1
 418 580 l 1,11,-1
 242 580 l 1,12,13
 215 549 215 549 195.5 480 c 128,-1,14
 176 411 176 411 176 348 c 128,-1,15
 176 285 176 285 195.5 216 c 128,-1,16
 215 147 215 147 242 116 c 1,0,-1
224 878 m 1,17,-1
 330 878 l 1,18,-1
 421 767 l 1,19,-1
 362 728 l 1,20,-1
 276 786 l 1,21,-1
 190 729 l 1,22,-1
 131 769 l 1,23,-1
 224 878 l 1,17,-1
EndSplineSet
EndChar

StartChar: Cdotaccent
Encoding: 266 266 205
Width: 443
Flags: MW
HStem: 0 116<242 418 242 418 164 418> 580 120<242 418 242 242> 730 135<233 365 233 365>
VStem: 30 146<306.5 389.5 306.5 415> 233 132<730 865 730 865>
LayerCount: 2
Fore
SplineSet
242 116 m 1,0,-1
 418 116 l 1,1,-1
 418 0 l 1,2,-1
 164 0 l 1,3,4
 98 62 98 62 64 157 c 128,-1,5
 30 252 30 252 30 345 c 0,6,7
 30 453 30 453 68 546 c 128,-1,8
 106 639 106 639 181 700 c 1,9,-1
 418 700 l 1,10,-1
 418 580 l 1,11,-1
 242 580 l 1,12,13
 215 549 215 549 195.5 480 c 128,-1,14
 176 411 176 411 176 348 c 128,-1,15
 176 285 176 285 195.5 216 c 128,-1,16
 215 147 215 147 242 116 c 1,0,-1
233 865 m 1,17,-1
 365 865 l 1,18,-1
 365 730 l 1,19,-1
 233 730 l 1,20,-1
 233 865 l 1,17,-1
EndSplineSet
EndChar

StartChar: Dcaron
Encoding: 270 270 206
Width: 510
Flags: MW
HStem: 0 700<48 338 48 347 48 347> 728 150<167 305 167 305>
VStem: 74 290<837 839> 184 151<309 392 309 580>
LayerCount: 2
Fore
SplineSet
274 116 m 1,0,-1
 184 116 l 1,1,-1
 184 580 l 1,2,-1
 276 580 l 1,3,4
 335 508 335 508 335 351 c 0,5,6
 335 285 335 285 318.5 218 c 128,-1,7
 302 151 302 151 274 116 c 1,0,-1
48 700 m 1,8,-1
 48 0 l 1,9,-1
 347 0 l 1,10,11
 480 143 480 143 480 351 c 0,12,13
 480 574 480 574 338 700 c 1,14,-1
 48 700 l 1,8,-1
273 728 m 1,15,-1
 167 728 l 1,16,-1
 74 837 l 1,17,-1
 133 877 l 1,18,-1
 219 820 l 1,19,-1
 305 878 l 1,20,-1
 364 839 l 1,21,-1
 273 728 l 1,15,-1
EndSplineSet
EndChar

StartChar: Eacute
Encoding: 201 201 207
Width: 440
Flags: MW
HStem: 116 181<185 383 185 411 185 383> 413 167<185 383 185 407> 730 169<160 311>
VStem: 48 363<0 116 0 700 0 116> 128 221<788 817>
LayerCount: 2
Fore
SplineSet
48 700 m 1,0,-1
 48 0 l 1,1,-1
 411 0 l 1,2,-1
 411 116 l 1,3,-1
 185 116 l 1,4,-1
 185 297 l 1,5,-1
 383 297 l 1,6,-1
 383 413 l 1,7,-1
 185 413 l 1,8,-1
 185 580 l 1,9,-1
 407 580 l 1,10,-1
 407 700 l 1,11,-1
 48 700 l 1,0,-1
128 817 m 1,12,-1
 311 899 l 1,13,-1
 349 788 l 1,14,-1
 160 730 l 1,15,-1
 128 817 l 1,12,-1
EndSplineSet
EndChar

StartChar: Ebreve
Encoding: 276 276 208
Width: 440
Flags: MW
HStem: 116 181<185 383 185 411 185 411> 413 167<185 383 383 383> 730 149<81 272 81 186>
VStem: 48 363<0 116 0 700> 81 296<879 879>
LayerCount: 2
Fore
SplineSet
48 0 m 1,0,-1
 48 700 l 1,1,-1
 407 700 l 1,2,-1
 407 580 l 1,3,-1
 185 580 l 1,4,-1
 185 413 l 1,5,-1
 383 413 l 1,6,-1
 383 297 l 1,7,-1
 185 297 l 1,8,-1
 185 116 l 1,9,-1
 411 116 l 1,10,-1
 411 0 l 1,11,-1
 48 0 l 1,0,-1
81 879 m 1,12,-1
 173 879 l 1,13,14
 183 840 183 840 209 827 c 1,15,-1
 248 827 l 1,16,17
 274 840 274 840 284 879 c 1,18,-1
 377 879 l 1,19,20
 373 771 373 771 272 730 c 1,21,-1
 186 730 l 1,22,23
 87 770 87 770 81 879 c 1,12,-1
EndSplineSet
EndChar

StartChar: Ecaron
Encoding: 282 282 209
Width: 440
Flags: MW
HStem: 116 181<185 383 185 411 185 383> 413 167<185 383 185 407> 728 150<181 319 181 319>
VStem: 48 363<0 116 0 700 0 116> 88 290<837 839>
LayerCount: 2
Fore
SplineSet
48 700 m 1,0,-1
 48 0 l 1,1,-1
 411 0 l 1,2,-1
 411 116 l 1,3,-1
 185 116 l 1,4,-1
 185 297 l 1,5,-1
 383 297 l 1,6,-1
 383 413 l 1,7,-1
 185 413 l 1,8,-1
 185 580 l 1,9,-1
 407 580 l 1,10,-1
 407 700 l 1,11,-1
 48 700 l 1,0,-1
287 728 m 1,12,-1
 181 728 l 1,13,-1
 88 837 l 1,14,-1
 147 877 l 1,15,-1
 233 820 l 1,16,-1
 319 878 l 1,17,-1
 378 839 l 1,18,-1
 287 728 l 1,12,-1
EndSplineSet
EndChar

StartChar: Ecircumflex
Encoding: 202 202 210
Width: 440
Flags: MW
HStem: 116 181<185 383 185 411 185 383> 413 167<185 383 185 407> 728 150<178 316>
VStem: 48 363<0 116 0 700 0 116> 85 290<767 769>
LayerCount: 2
Fore
SplineSet
48 700 m 1,0,-1
 48 0 l 1,1,-1
 411 0 l 1,2,-1
 411 116 l 1,3,-1
 185 116 l 1,4,-1
 185 297 l 1,5,-1
 383 297 l 1,6,-1
 383 413 l 1,7,-1
 185 413 l 1,8,-1
 185 580 l 1,9,-1
 407 580 l 1,10,-1
 407 700 l 1,11,-1
 48 700 l 1,0,-1
178 878 m 1,12,-1
 284 878 l 1,13,-1
 375 767 l 1,14,-1
 316 728 l 1,15,-1
 230 786 l 1,16,-1
 144 729 l 1,17,-1
 85 769 l 1,18,-1
 178 878 l 1,12,-1
EndSplineSet
EndChar

StartChar: Edieresis
Encoding: 203 203 211
Width: 440
Flags: MW
HStem: 116 181<185 383 185 411 185 383> 413 167<185 383 185 407> 730 135<75 207 75 207 248 380 75 248>
VStem: 48 363<0 116 0 700 0 116> 75 132<730 865 730 865> 248 132<730 865 730 865>
LayerCount: 2
Fore
SplineSet
48 700 m 1,0,-1
 48 0 l 1,1,-1
 411 0 l 1,2,-1
 411 116 l 1,3,-1
 185 116 l 1,4,-1
 185 297 l 1,5,-1
 383 297 l 1,6,-1
 383 413 l 1,7,-1
 185 413 l 1,8,-1
 185 580 l 1,9,-1
 407 580 l 1,10,-1
 407 700 l 1,11,-1
 48 700 l 1,0,-1
75 730 m 1,12,-1
 75 865 l 1,13,-1
 207 865 l 1,14,-1
 207 730 l 1,15,-1
 75 730 l 1,12,-1
248 730 m 1,16,-1
 248 865 l 1,17,-1
 380 865 l 1,18,-1
 380 730 l 1,19,-1
 248 730 l 1,16,-1
EndSplineSet
EndChar

StartChar: Edotaccent
Encoding: 278 278 212
Width: 440
Flags: MW
HStem: 116 181<185 383 185 411 185 383> 413 167<185 383 185 407> 730 135<166 298 166 298>
VStem: 48 363<0 116 0 700 0 116> 166 132<730 865 730 865>
LayerCount: 2
Fore
SplineSet
48 700 m 1,0,-1
 48 0 l 1,1,-1
 411 0 l 1,2,-1
 411 116 l 1,3,-1
 185 116 l 1,4,-1
 185 297 l 1,5,-1
 383 297 l 1,6,-1
 383 413 l 1,7,-1
 185 413 l 1,8,-1
 185 580 l 1,9,-1
 407 580 l 1,10,-1
 407 700 l 1,11,-1
 48 700 l 1,0,-1
166 865 m 1,12,-1
 298 865 l 1,13,-1
 298 730 l 1,14,-1
 166 730 l 1,15,-1
 166 865 l 1,12,-1
EndSplineSet
EndChar

StartChar: Egrave
Encoding: 200 200 213
Width: 440
Flags: MW
HStem: 116 181<185 383 185 411 185 383> 413 167<185 383 185 407> 730 169<159 310>
VStem: 48 363<0 116 0 700 0 116> 120 222<788 817>
LayerCount: 2
Fore
SplineSet
48 700 m 1,0,-1
 48 0 l 1,1,-1
 411 0 l 1,2,-1
 411 116 l 1,3,-1
 185 116 l 1,4,-1
 185 297 l 1,5,-1
 383 297 l 1,6,-1
 383 413 l 1,7,-1
 185 413 l 1,8,-1
 185 580 l 1,9,-1
 407 580 l 1,10,-1
 407 700 l 1,11,-1
 48 700 l 1,0,-1
159 899 m 1,12,-1
 342 817 l 1,13,-1
 310 730 l 1,14,-1
 120 788 l 1,15,-1
 159 899 l 1,12,-1
EndSplineSet
EndChar

StartChar: Emacron
Encoding: 274 274 214
Width: 440
Flags: MW
HStem: 116 181<185 383 185 411 185 383> 413 167<185 383 185 407> 738 100<104 356 104 356>
VStem: 48 363<0 116 0 700 0 116> 104 252<738 838 738 838>
LayerCount: 2
Fore
SplineSet
48 700 m 1,0,-1
 48 0 l 1,1,-1
 411 0 l 1,2,-1
 411 116 l 1,3,-1
 185 116 l 1,4,-1
 185 297 l 1,5,-1
 383 297 l 1,6,-1
 383 413 l 1,7,-1
 185 413 l 1,8,-1
 185 580 l 1,9,-1
 407 580 l 1,10,-1
 407 700 l 1,11,-1
 48 700 l 1,0,-1
104 738 m 1,12,-1
 104 838 l 1,13,-1
 356 838 l 1,14,-1
 356 738 l 1,15,-1
 104 738 l 1,12,-1
EndSplineSet
EndChar

StartChar: Eogonek
Encoding: 280 280 215
Width: 440
Flags: MW
HStem: -227 100<340 395 340 395 252 395> 116 181<185 383 185 411 185 411> 413 167<185 383 383 383>
VStem: 48 363<0 116 0 700> 215 180<-174 -139>
LayerCount: 2
Fore
SplineSet
48 0 m 1,0,-1
 48 700 l 1,1,-1
 407 700 l 1,2,-1
 407 580 l 1,3,-1
 185 580 l 1,4,-1
 185 413 l 1,5,-1
 383 413 l 1,6,-1
 383 297 l 1,7,-1
 185 297 l 1,8,-1
 185 116 l 1,9,-1
 411 116 l 1,10,-1
 411 0 l 1,11,-1
 336 -103 l 1,12,13
 330 -113 330 -113 330 -119 c 0,14,15
 330 -127 330 -127 340 -127 c 2,16,-1
 395 -127 l 1,17,-1
 395 -227 l 1,18,-1
 252 -227 l 1,19,20
 215 -204 215 -204 215 -159 c 0,21,22
 215 -111 215 -111 262 -47 c 2,23,-1
 297 0 l 1,24,-1
 48 0 l 1,0,-1
EndSplineSet
EndChar

StartChar: Gbreve
Encoding: 286 286 216
Width: 494
Flags: MW
HStem: 0 116<236 332 236 380 168 332> 580 120<239 425 239 239> 730 149<125 316 125 230>
VStem: 30 145<299 399 299 410> 125 296<879 879> 332 132<170.5 220 220 388>
LayerCount: 2
Fore
SplineSet
380 0 m 1,0,-1
 168 0 l 1,1,2
 96 66 96 66 63 157 c 128,-1,3
 30 248 30 248 30 340 c 0,4,5
 30 447 30 447 70 544 c 128,-1,6
 110 641 110 641 182 700 c 1,7,-1
 425 700 l 1,8,-1
 425 580 l 1,9,-1
 239 580 l 1,10,11
 213 550 213 550 194 485.5 c 128,-1,12
 175 421 175 421 175 349 c 0,13,14
 175 276 175 276 192.5 210.5 c 128,-1,15
 210 145 210 145 236 116 c 1,16,-1
 332 116 l 1,17,-1
 332 388 l 1,18,-1
 464 388 l 1,19,-1
 464 220 l 2,20,21
 464 82 464 82 380 0 c 1,0,-1
125 879 m 1,22,-1
 217 879 l 1,23,24
 227 840 227 840 253 827 c 1,25,-1
 292 827 l 1,26,27
 318 840 318 840 328 879 c 1,28,-1
 421 879 l 1,29,30
 417 771 417 771 316 730 c 1,31,-1
 230 730 l 1,32,33
 131 770 131 770 125 879 c 1,22,-1
EndSplineSet
EndChar

StartChar: Gcircumflex
Encoding: 284 284 217
Width: 494
Flags: MW
HStem: 0 116<236 332 236 380 168 332> 580 120<239 425 239 239> 728 150<215 353>
VStem: 30 145<299 399 299 410> 122 290<767 769> 332 132<170.5 220 220 388>
LayerCount: 2
Fore
SplineSet
380 0 m 1,0,-1
 168 0 l 1,1,2
 96 66 96 66 63 157 c 128,-1,3
 30 248 30 248 30 340 c 0,4,5
 30 447 30 447 70 544 c 128,-1,6
 110 641 110 641 182 700 c 1,7,-1
 425 700 l 1,8,-1
 425 580 l 1,9,-1
 239 580 l 1,10,11
 213 550 213 550 194 485.5 c 128,-1,12
 175 421 175 421 175 349 c 0,13,14
 175 276 175 276 192.5 210.5 c 128,-1,15
 210 145 210 145 236 116 c 1,16,-1
 332 116 l 1,17,-1
 332 388 l 1,18,-1
 464 388 l 1,19,-1
 464 220 l 2,20,21
 464 82 464 82 380 0 c 1,0,-1
215 878 m 1,22,-1
 321 878 l 1,23,-1
 412 767 l 1,24,-1
 353 728 l 1,25,-1
 267 786 l 1,26,-1
 181 729 l 1,27,-1
 122 769 l 1,28,-1
 215 878 l 1,22,-1
EndSplineSet
EndChar

StartChar: Gcommaaccent
Encoding: 290 290 218
Width: 494
Flags: MW
HStem: -203 137<213 333 213 257> 0 116<236 332 236 380 168 332> 580 120<239 425 239 239>
VStem: 30 145<299 399 299 410> 213 120<-160 -109 -109 -66 -160 -66> 332 132<170.5 220 220 388>
LayerCount: 2
Fore
SplineSet
380 0 m 1,0,-1
 168 0 l 1,1,2
 96 66 96 66 63 157 c 128,-1,3
 30 248 30 248 30 340 c 0,4,5
 30 447 30 447 70 544 c 128,-1,6
 110 641 110 641 182 700 c 1,7,-1
 425 700 l 1,8,-1
 425 580 l 1,9,-1
 239 580 l 1,10,11
 213 550 213 550 194 485.5 c 128,-1,12
 175 421 175 421 175 349 c 0,13,14
 175 276 175 276 192.5 210.5 c 128,-1,15
 210 145 210 145 236 116 c 1,16,-1
 332 116 l 1,17,-1
 332 388 l 1,18,-1
 464 388 l 1,19,-1
 464 220 l 2,20,21
 464 82 464 82 380 0 c 1,0,-1
213 -203 m 1,22,-1
 213 -66 l 1,23,-1
 333 -66 l 1,24,-1
 333 -109 l 2,25,26
 333 -185 333 -185 321 -220.5 c 128,-1,27
 309 -256 309 -256 263 -319 c 1,28,-1
 217 -293 l 1,29,30
 246 -244 246 -244 257 -203 c 1,31,-1
 213 -203 l 1,22,-1
EndSplineSet
EndChar

StartChar: Gdotaccent
Encoding: 288 288 219
Width: 494
Flags: MW
HStem: 0 116<236 332 236 380 168 332> 580 120<239 425 239 239> 730 135<210 342 210 342>
VStem: 30 145<299 399 299 410> 210 132<730 865 730 865> 332 132<170.5 220 220 388>
LayerCount: 2
Fore
SplineSet
380 0 m 1,0,-1
 168 0 l 1,1,2
 96 66 96 66 63 157 c 128,-1,3
 30 248 30 248 30 340 c 0,4,5
 30 447 30 447 70 544 c 128,-1,6
 110 641 110 641 182 700 c 1,7,-1
 425 700 l 1,8,-1
 425 580 l 1,9,-1
 239 580 l 1,10,11
 213 550 213 550 194 485.5 c 128,-1,12
 175 421 175 421 175 349 c 0,13,14
 175 276 175 276 192.5 210.5 c 128,-1,15
 210 145 210 145 236 116 c 1,16,-1
 332 116 l 1,17,-1
 332 388 l 1,18,-1
 464 388 l 1,19,-1
 464 220 l 2,20,21
 464 82 464 82 380 0 c 1,0,-1
210 865 m 1,22,-1
 342 865 l 1,23,-1
 342 730 l 1,24,-1
 210 730 l 1,25,-1
 210 865 l 1,22,-1
EndSplineSet
EndChar

StartChar: Hcircumflex
Encoding: 292 292 220
Width: 530
Flags: MW
HStem: 0 700<48 185 48 185 345 482 48 482> 728 150<213 351>
VStem: 120 290<767 769> 185 160<0 290 0 290 418 700>
LayerCount: 2
Fore
SplineSet
48 0 m 1,0,-1
 185 0 l 1,1,-1
 185 290 l 1,2,-1
 345 290 l 1,3,-1
 345 0 l 1,4,-1
 482 0 l 1,5,-1
 482 700 l 1,6,-1
 345 700 l 1,7,-1
 345 418 l 1,8,-1
 185 418 l 1,9,-1
 185 700 l 1,10,-1
 48 700 l 1,11,-1
 48 0 l 1,0,-1
213 878 m 1,12,-1
 319 878 l 1,13,-1
 410 767 l 1,14,-1
 351 728 l 1,15,-1
 265 786 l 1,16,-1
 179 729 l 1,17,-1
 120 769 l 1,18,-1
 213 878 l 1,12,-1
EndSplineSet
EndChar

StartChar: Iacute
Encoding: 205 205 221
Width: 233
Flags: MW
HStem: 0 700<48 185 48 185> 730 169<62 213>
VStem: 30 221<788 817> 48 137<0 700 0 700>
LayerCount: 2
Fore
SplineSet
48 700 m 1,0,-1
 48 0 l 1,1,-1
 185 0 l 1,2,-1
 185 700 l 1,3,-1
 48 700 l 1,0,-1
30 817 m 1,4,-1
 213 899 l 1,5,-1
 251 788 l 1,6,-1
 62 730 l 1,7,-1
 30 817 l 1,4,-1
EndSplineSet
EndChar

StartChar: Ibreve
Encoding: 300 300 222
Width: 233
Flags: MW
HStem: 0 700<48 185 48 185> 730 149<-32 159 -32 73>
VStem: -32 296<879 879> 48 137<0 700 0 700>
LayerCount: 2
Fore
SplineSet
48 0 m 1,0,-1
 48 700 l 1,1,-1
 185 700 l 1,2,-1
 185 0 l 1,3,-1
 48 0 l 1,0,-1
-32 879 m 1,4,-1
 60 879 l 1,5,6
 70 840 70 840 96 827 c 1,7,-1
 135 827 l 1,8,9
 161 840 161 840 171 879 c 1,10,-1
 264 879 l 1,11,12
 260 771 260 771 159 730 c 1,13,-1
 73 730 l 1,14,15
 -26 770 -26 770 -32 879 c 1,4,-1
EndSplineSet
EndChar

StartChar: Icircumflex
Encoding: 206 206 223
Width: 233
Flags: MW
HStem: 0 700<48 185 48 185> 728 150<64 202>
VStem: -29 290<767 769> 48 137<0 700 0 700>
LayerCount: 2
Fore
SplineSet
48 700 m 1,0,-1
 48 0 l 1,1,-1
 185 0 l 1,2,-1
 185 700 l 1,3,-1
 48 700 l 1,0,-1
64 878 m 1,4,-1
 170 878 l 1,5,-1
 261 767 l 1,6,-1
 202 728 l 1,7,-1
 116 786 l 1,8,-1
 30 729 l 1,9,-1
 -29 769 l 1,10,-1
 64 878 l 1,4,-1
EndSplineSet
EndChar

StartChar: Idieresis
Encoding: 207 207 224
Width: 233
Flags: MW
HStem: 0 700<48 185 48 185> 730 135<-36 96 -36 96 137 269 -36 137>
VStem: -36 132<730 865 730 865> 48 137<0 700 0 700> 137 132<730 865 730 865>
LayerCount: 2
Fore
SplineSet
48 700 m 1,0,-1
 48 0 l 1,1,-1
 185 0 l 1,2,-1
 185 700 l 1,3,-1
 48 700 l 1,0,-1
-36 730 m 1,4,-1
 -36 865 l 1,5,-1
 96 865 l 1,6,-1
 96 730 l 1,7,-1
 -36 730 l 1,4,-1
137 730 m 1,8,-1
 137 865 l 1,9,-1
 269 865 l 1,10,-1
 269 730 l 1,11,-1
 137 730 l 1,8,-1
EndSplineSet
EndChar

StartChar: Idotaccent
Encoding: 304 304 225
Width: 233
Flags: MW
HStem: 0 700<48 185 48 185> 730 135<50 182 50 182>
VStem: 48 137<0 700 0 700> 50 132<730 865 730 865>
LayerCount: 2
Fore
SplineSet
48 700 m 1,0,-1
 48 0 l 1,1,-1
 185 0 l 1,2,-1
 185 700 l 1,3,-1
 48 700 l 1,0,-1
50 865 m 1,4,-1
 182 865 l 1,5,-1
 182 730 l 1,6,-1
 50 730 l 1,7,-1
 50 865 l 1,4,-1
EndSplineSet
EndChar

StartChar: Igrave
Encoding: 204 204 226
Width: 233
Flags: MW
HStem: 0 700<48 185 48 185> 730 169<12 163>
VStem: -27 222<788 817> 48 137<0 700 0 700>
LayerCount: 2
Fore
SplineSet
48 700 m 1,0,-1
 48 0 l 1,1,-1
 185 0 l 1,2,-1
 185 700 l 1,3,-1
 48 700 l 1,0,-1
12 899 m 1,4,-1
 195 817 l 1,5,-1
 163 730 l 1,6,-1
 -27 788 l 1,7,-1
 12 899 l 1,4,-1
EndSplineSet
EndChar

StartChar: Imacron
Encoding: 298 298 227
Width: 233
Flags: MW
HStem: 0 700<48 185 48 185> 738 100<-10 242 -10 242>
VStem: -10 252<738 838 738 838> 48 137<0 700 0 700>
LayerCount: 2
Fore
SplineSet
48 700 m 1,0,-1
 48 0 l 1,1,-1
 185 0 l 1,2,-1
 185 700 l 1,3,-1
 48 700 l 1,0,-1
-10 738 m 1,4,-1
 -10 838 l 1,5,-1
 242 838 l 1,6,-1
 242 738 l 1,7,-1
 -10 738 l 1,4,-1
EndSplineSet
EndChar

StartChar: Iogonek
Encoding: 302 302 228
Width: 233
Flags: MW
HStem: -227 100<121 121 121 191 38 121> 0 700<48 72 48 185 48 185>
VStem: 5 180 48 137<0 700 0 700>
LayerCount: 2
Fore
SplineSet
185 700 m 1,0,-1
 185 0 l 1,1,-1
 121 -127 l 1,2,-1
 125 -132 l 1,3,-1
 191 -132 l 1,4,-1
 191 -227 l 1,5,-1
 38 -227 l 1,6,7
 1 -204 1 -204 1 -159 c 0,8,9
 1 -151 1 -151 2 -143 c 128,-1,10
 3 -135 3 -135 6 -125.5 c 128,-1,11
 9 -116 9 -116 11.5 -110 c 128,-1,12
 14 -104 14 -104 19.5 -93 c 128,-1,13
 25 -82 25 -82 27.5 -77 c 128,-1,14
 30 -72 30 -72 38 -58.5 c 128,-1,15
 46 -45 46 -45 49 -40 c 2,16,-1
 72 0 l 1,17,-1
 48 0 l 1,18,-1
 48 700 l 1,19,-1
 185 700 l 1,0,-1
EndSplineSet
EndChar

StartChar: Itilde
Encoding: 296 296 229
Width: 233
Flags: MW
HStem: 0 700<48 185 48 185> 734 134<57.5 163>
VStem: -15 262<748 841 841 841> 48 137<0 700 0 700>
LayerCount: 2
Fore
SplineSet
48 0 m 1,0,-1
 48 700 l 1,1,-1
 185 700 l 1,2,-1
 185 0 l 1,3,-1
 48 0 l 1,0,-1
163 734 m 1,4,-1
 67 759 l 1,5,6
 46 759 46 759 -15 736 c 1,7,-1
 -15 841 l 1,8,9
 49 868 49 868 71 868 c 1,10,-1
 168 841 l 1,11,12
 188 841 188 841 247 855 c 1,13,-1
 247 748 l 1,14,15
 186 733 186 733 163 734 c 1,4,-1
EndSplineSet
EndChar

StartChar: Jcircumflex
Encoding: 308 308 230
Width: 326
Flags: MW
HStem: 0 116<16 119 16 174 16 119> 680 20G<147 284 284 284> 728 150<163 301>
VStem: 70 290<767 769> 147 137<293 340 340 700>
LayerCount: 2
Fore
SplineSet
16 116 m 1,0,-1
 119 116 l 1,1,2
 137 139 137 139 142 169.5 c 128,-1,3
 147 200 147 200 147 293 c 2,4,-1
 147 700 l 1,5,-1
 284 700 l 1,6,-1
 284 340 l 2,7,8
 284 273 284 273 281.5 236 c 128,-1,9
 279 199 279 199 269 151.5 c 128,-1,10
 259 104 259 104 236 68 c 128,-1,11
 213 32 213 32 174 0 c 1,12,-1
 16 0 l 1,13,-1
 16 116 l 1,0,-1
163 878 m 1,14,-1
 269 878 l 1,15,-1
 360 767 l 1,16,-1
 301 728 l 1,17,-1
 215 786 l 1,18,-1
 129 729 l 1,19,-1
 70 769 l 1,20,-1
 163 878 l 1,14,-1
EndSplineSet
EndChar

StartChar: Kcommaaccent
Encoding: 310 310 231
Width: 463
Flags: MW
HStem: -203 137<177 297 177 221> 0 700<48 185 48 185 48 311 315 456 48 463>
VStem: 177 120<-160 -109 -109 -66 -160 -66> 185 7<0 306> 185 130<405 700>
LayerCount: 2
Fore
SplineSet
48 0 m 1,0,-1
 48 700 l 1,1,-1
 185 700 l 1,2,-1
 185 405 l 1,3,-1
 190 405 l 1,4,-1
 315 700 l 1,5,-1
 456 700 l 1,6,-1
 310 366 l 1,7,-1
 463 0 l 1,8,-1
 311 0 l 1,9,-1
 192 306 l 1,10,-1
 185 306 l 1,11,-1
 185 0 l 1,12,-1
 48 0 l 1,0,-1
177 -203 m 1,13,-1
 177 -66 l 1,14,-1
 297 -66 l 1,15,-1
 297 -109 l 2,16,17
 297 -185 297 -185 285 -220.5 c 128,-1,18
 273 -256 273 -256 227 -319 c 1,19,-1
 181 -293 l 1,20,21
 210 -244 210 -244 221 -203 c 1,22,-1
 177 -203 l 1,13,-1
EndSplineSet
EndChar

StartChar: Lacute
Encoding: 313 313 232
Width: 413
Flags: MW
HStem: 0 700<48 185 48 393 48 393> 730 169<46 197>
VStem: 14 221<788 817> 48 345<0 116 0 700 0 116>
LayerCount: 2
Fore
SplineSet
48 700 m 1,0,-1
 48 0 l 1,1,-1
 393 0 l 1,2,-1
 393 116 l 1,3,-1
 185 116 l 1,4,-1
 185 700 l 1,5,-1
 48 700 l 1,0,-1
14 817 m 1,6,-1
 197 899 l 1,7,-1
 235 788 l 1,8,-1
 46 730 l 1,9,-1
 14 817 l 1,6,-1
EndSplineSet
EndChar

StartChar: Lcaron
Encoding: 317 317 233
Width: 413
Flags: MW
HStem: 0 700<48 185 48 185 249 352 48 393> 501 199<249 332 48 249>
VStem: 48 345<0 116 0 700> 249 103<501 700 700 700>
LayerCount: 2
Fore
SplineSet
48 0 m 1,0,-1
 48 700 l 1,1,-1
 185 700 l 1,2,-1
 185 116 l 1,3,-1
 393 116 l 1,4,-1
 393 0 l 1,5,-1
 48 0 l 1,0,-1
249 700 m 1,6,-1
 352 700 l 1,7,-1
 332 501 l 1,8,-1
 249 501 l 1,9,-1
 249 700 l 1,6,-1
EndSplineSet
EndChar

StartChar: Lcommaaccent
Encoding: 315 315 234
Width: 413
Flags: MW
HStem: -203 137<165 285 165 209> 0 700<48 185 48 185 48 393>
VStem: 48 345<0 116 0 700> 165 120<-160 -109 -109 -66 -160 -66>
LayerCount: 2
Fore
SplineSet
48 0 m 1,0,-1
 48 700 l 1,1,-1
 185 700 l 1,2,-1
 185 116 l 1,3,-1
 393 116 l 1,4,-1
 393 0 l 1,5,-1
 48 0 l 1,0,-1
165 -203 m 1,6,-1
 165 -66 l 1,7,-1
 285 -66 l 1,8,-1
 285 -109 l 2,9,10
 285 -185 285 -185 273 -220.5 c 128,-1,11
 261 -256 261 -256 215 -319 c 1,12,-1
 169 -293 l 1,13,14
 198 -244 198 -244 209 -203 c 1,15,-1
 165 -203 l 1,6,-1
EndSplineSet
EndChar

StartChar: Ldot
Encoding: 319 319 235
Width: 413
Flags: MW
HStem: 0 700<48 185 48 185 48 393> 268 124<250 362 250 362>
VStem: 48 345<0 116 0 700> 250 112<268 392 268 392>
LayerCount: 2
Fore
SplineSet
48 0 m 1,0,-1
 48 700 l 1,1,-1
 185 700 l 1,2,-1
 185 116 l 1,3,-1
 393 116 l 1,4,-1
 393 0 l 1,5,-1
 48 0 l 1,0,-1
250 392 m 1,6,-1
 362 392 l 1,7,-1
 362 268 l 1,8,-1
 250 268 l 1,9,-1
 250 392 l 1,6,-1
EndSplineSet
EndChar

StartChar: Nacute
Encoding: 323 323 236
Width: 501
Flags: MW
HStem: 0 21G<48 174 48 48 360 453 360 360> 680 20G<48 149 149 149 327 453 453 453> 730 169<201 352>
VStem: 48 126<0 267 0 700> 169 221<788 817> 327 126<423 700 0 700>
LayerCount: 2
Fore
SplineSet
360 0 m 1,0,-1
 173 387 l 1,1,-1
 168 385 l 1,2,-1
 174 267 l 1,3,-1
 174 0 l 1,4,-1
 48 0 l 1,5,-1
 48 700 l 1,6,-1
 149 700 l 1,7,-1
 333 298 l 1,8,-1
 338 300 l 1,9,-1
 327 423 l 1,10,-1
 327 700 l 1,11,-1
 453 700 l 1,12,-1
 453 0 l 1,13,-1
 360 0 l 1,0,-1
169 817 m 1,14,-1
 352 899 l 1,15,-1
 390 788 l 1,16,-1
 201 730 l 1,17,-1
 169 817 l 1,14,-1
EndSplineSet
EndChar

StartChar: Ncaron
Encoding: 327 327 237
Width: 501
Flags: MW
HStem: 0 21G<48 174 48 48 360 453 360 360> 680 20G<48 149 149 149 327 453 453 453> 728 150<193 331 193 331>
VStem: 48 126<0 267 0 700> 100 290<837 839> 327 126<423 700 0 700>
LayerCount: 2
Fore
SplineSet
360 0 m 1,0,-1
 173 387 l 1,1,-1
 168 385 l 1,2,-1
 174 267 l 1,3,-1
 174 0 l 1,4,-1
 48 0 l 1,5,-1
 48 700 l 1,6,-1
 149 700 l 1,7,-1
 333 298 l 1,8,-1
 338 300 l 1,9,-1
 327 423 l 1,10,-1
 327 700 l 1,11,-1
 453 700 l 1,12,-1
 453 0 l 1,13,-1
 360 0 l 1,0,-1
299 728 m 1,14,-1
 193 728 l 1,15,-1
 100 837 l 1,16,-1
 159 877 l 1,17,-1
 245 820 l 1,18,-1
 331 878 l 1,19,-1
 390 839 l 1,20,-1
 299 728 l 1,14,-1
EndSplineSet
EndChar

StartChar: Ncommaaccent
Encoding: 325 325 238
Width: 501
Flags: MW
HStem: -203 137<187 307 187 231> 0 21G<48 174 48 48 360 453 360 360> 680 20G<48 149 149 149 327 453 453 453>
VStem: 48 126<0 267 0 700> 187 120<-160 -109 -109 -66 -160 -66> 327 126<423 700 0 700>
LayerCount: 2
Fore
SplineSet
360 0 m 1,0,-1
 173 387 l 1,1,-1
 168 385 l 1,2,-1
 174 267 l 1,3,-1
 174 0 l 1,4,-1
 48 0 l 1,5,-1
 48 700 l 1,6,-1
 149 700 l 1,7,-1
 333 298 l 1,8,-1
 338 300 l 1,9,-1
 327 423 l 1,10,-1
 327 700 l 1,11,-1
 453 700 l 1,12,-1
 453 0 l 1,13,-1
 360 0 l 1,0,-1
187 -203 m 1,14,-1
 187 -66 l 1,15,-1
 307 -66 l 1,16,-1
 307 -109 l 2,17,18
 307 -185 307 -185 295 -220.5 c 128,-1,19
 283 -256 283 -256 237 -319 c 1,20,-1
 191 -293 l 1,21,22
 220 -244 220 -244 231 -203 c 1,23,-1
 187 -203 l 1,14,-1
EndSplineSet
EndChar

StartChar: Ntilde
Encoding: 209 209 239
Width: 501
Flags: MW
HStem: 0 21G<48 174 48 48 360 453 360 360> 680 20G<48 149 149 149 327 453 453 453> 734 134<186.5 292>
VStem: 48 126<0 267 0 700> 114 262<748 841 841 841> 327 126<423 700 0 700>
LayerCount: 2
Fore
SplineSet
360 0 m 1,0,-1
 173 387 l 1,1,-1
 168 385 l 1,2,-1
 174 267 l 1,3,-1
 174 0 l 1,4,-1
 48 0 l 1,5,-1
 48 700 l 1,6,-1
 149 700 l 1,7,-1
 333 298 l 1,8,-1
 338 300 l 1,9,-1
 327 423 l 1,10,-1
 327 700 l 1,11,-1
 453 700 l 1,12,-1
 453 0 l 1,13,-1
 360 0 l 1,0,-1
292 734 m 1,14,-1
 196 759 l 1,15,16
 175 759 175 759 114 736 c 1,17,-1
 114 841 l 1,18,19
 178 868 178 868 200 868 c 1,20,-1
 297 841 l 1,21,22
 317 841 317 841 376 855 c 1,23,-1
 376 748 l 1,24,25
 315 733 315 733 292 734 c 1,14,-1
EndSplineSet
EndChar

StartChar: Oacute
Encoding: 211 211 240
Width: 542
Flags: MW
HStem: 0 116<235 307 235 374 168 307> 580 120<235 308 235 235> 730 169<207 358>
VStem: 30 145<299 399 299 410> 175 221<788 817> 367 145<299 399>
LayerCount: 2
Fore
SplineSet
175 817 m 1,0,-1
 358 899 l 1,1,-1
 396 788 l 1,2,-1
 207 730 l 1,3,-1
 175 817 l 1,0,-1
374 700 m 1,4,5
 444 643 444 643 478 547 c 128,-1,6
 512 451 512 451 512 340 c 0,7,8
 512 248 512 248 479 157 c 128,-1,9
 446 66 446 66 374 0 c 1,10,-1
 168 0 l 1,11,12
 96 66 96 66 63 157 c 128,-1,13
 30 248 30 248 30 340 c 0,14,15
 30 451 30 451 64 547 c 128,-1,16
 98 643 98 643 168 700 c 1,17,-1
 374 700 l 1,4,5
235 116 m 1,18,-1
 307 116 l 1,19,20
 332 145 332 145 349.5 210.5 c 128,-1,21
 367 276 367 276 367 349 c 128,-1,22
 367 422 367 422 350 486.5 c 128,-1,23
 333 551 333 551 308 580 c 1,24,-1
 235 580 l 1,25,26
 210 551 210 551 192.5 486.5 c 128,-1,27
 175 422 175 422 175 349 c 128,-1,28
 175 276 175 276 192.5 210.5 c 128,-1,29
 210 145 210 145 235 116 c 1,18,-1
EndSplineSet
EndChar

StartChar: Obreve
Encoding: 334 334 241
Width: 542
Flags: MW
HStem: 0 116<235 307 235 374 168 307> 580 120<235 308 235 235> 730 149<124 315 124 229>
VStem: 30 145<299 399 299 410> 124 296<879 879> 367 145<299 399>
LayerCount: 2
Fore
SplineSet
124 879 m 1,0,-1
 216 879 l 1,1,2
 226 840 226 840 252 827 c 1,3,-1
 291 827 l 1,4,5
 317 840 317 840 327 879 c 1,6,-1
 420 879 l 1,7,8
 416 771 416 771 315 730 c 1,9,-1
 229 730 l 1,10,11
 130 770 130 770 124 879 c 1,0,-1
374 700 m 1,12,13
 444 643 444 643 478 547 c 128,-1,14
 512 451 512 451 512 340 c 0,15,16
 512 248 512 248 479 157 c 128,-1,17
 446 66 446 66 374 0 c 1,18,-1
 168 0 l 1,19,20
 96 66 96 66 63 157 c 128,-1,21
 30 248 30 248 30 340 c 0,22,23
 30 451 30 451 64 547 c 128,-1,24
 98 643 98 643 168 700 c 1,25,-1
 374 700 l 1,12,13
235 116 m 1,26,-1
 307 116 l 1,27,28
 332 145 332 145 349.5 210.5 c 128,-1,29
 367 276 367 276 367 349 c 128,-1,30
 367 422 367 422 350 486.5 c 128,-1,31
 333 551 333 551 308 580 c 1,32,-1
 235 580 l 1,33,34
 210 551 210 551 192.5 486.5 c 128,-1,35
 175 422 175 422 175 349 c 128,-1,36
 175 276 175 276 192.5 210.5 c 128,-1,37
 210 145 210 145 235 116 c 1,26,-1
EndSplineSet
EndChar

StartChar: Ocircumflex
Encoding: 212 212 242
Width: 542
Flags: MW
HStem: 0 116<235 307 235 374 168 307> 580 120<235 308 235 235> 728 150<219 357>
VStem: 30 145<299 399 299 410> 126 290<767 769> 367 145<299 399>
LayerCount: 2
Fore
SplineSet
219 878 m 1,0,-1
 325 878 l 1,1,-1
 416 767 l 1,2,-1
 357 728 l 1,3,-1
 271 786 l 1,4,-1
 185 729 l 1,5,-1
 126 769 l 1,6,-1
 219 878 l 1,0,-1
374 700 m 1,7,8
 444 643 444 643 478 547 c 128,-1,9
 512 451 512 451 512 340 c 0,10,11
 512 248 512 248 479 157 c 128,-1,12
 446 66 446 66 374 0 c 1,13,-1
 168 0 l 1,14,15
 96 66 96 66 63 157 c 128,-1,16
 30 248 30 248 30 340 c 0,17,18
 30 451 30 451 64 547 c 128,-1,19
 98 643 98 643 168 700 c 1,20,-1
 374 700 l 1,7,8
235 116 m 1,21,-1
 307 116 l 1,22,23
 332 145 332 145 349.5 210.5 c 128,-1,24
 367 276 367 276 367 349 c 128,-1,25
 367 422 367 422 350 486.5 c 128,-1,26
 333 551 333 551 308 580 c 1,27,-1
 235 580 l 1,28,29
 210 551 210 551 192.5 486.5 c 128,-1,30
 175 422 175 422 175 349 c 128,-1,31
 175 276 175 276 192.5 210.5 c 128,-1,32
 210 145 210 145 235 116 c 1,21,-1
EndSplineSet
EndChar

StartChar: Odieresis
Encoding: 214 214 243
Width: 542
Flags: MW
HStem: 0 116<235 307 235 374 168 307> 580 120<235 308 235 235> 730 135<119 251 119 251 292 424 119 292>
VStem: 30 145<299 399 299 410> 119 132<730 865 730 865> 292 132<730 865 730 865> 367 145<299 399>
LayerCount: 2
Fore
SplineSet
119 730 m 1,0,-1
 119 865 l 1,1,-1
 251 865 l 1,2,-1
 251 730 l 1,3,-1
 119 730 l 1,0,-1
292 730 m 1,4,-1
 292 865 l 1,5,-1
 424 865 l 1,6,-1
 424 730 l 1,7,-1
 292 730 l 1,4,-1
374 700 m 1,8,9
 444 643 444 643 478 547 c 128,-1,10
 512 451 512 451 512 340 c 0,11,12
 512 248 512 248 479 157 c 128,-1,13
 446 66 446 66 374 0 c 1,14,-1
 168 0 l 1,15,16
 96 66 96 66 63 157 c 128,-1,17
 30 248 30 248 30 340 c 0,18,19
 30 451 30 451 64 547 c 128,-1,20
 98 643 98 643 168 700 c 1,21,-1
 374 700 l 1,8,9
235 116 m 1,22,-1
 307 116 l 1,23,24
 332 145 332 145 349.5 210.5 c 128,-1,25
 367 276 367 276 367 349 c 128,-1,26
 367 422 367 422 350 486.5 c 128,-1,27
 333 551 333 551 308 580 c 1,28,-1
 235 580 l 1,29,30
 210 551 210 551 192.5 486.5 c 128,-1,31
 175 422 175 422 175 349 c 128,-1,32
 175 276 175 276 192.5 210.5 c 128,-1,33
 210 145 210 145 235 116 c 1,22,-1
EndSplineSet
EndChar

StartChar: Ograve
Encoding: 210 210 244
Width: 542
Flags: MW
HStem: 0 116<235 307 235 374 168 307> 580 120<235 308 235 235> 730 169<176 327>
VStem: 30 145<299 399 299 410> 137 222<788 817> 367 145<299 399>
LayerCount: 2
Fore
SplineSet
176 899 m 1,0,-1
 359 817 l 1,1,-1
 327 730 l 1,2,-1
 137 788 l 1,3,-1
 176 899 l 1,0,-1
374 700 m 1,4,5
 444 643 444 643 478 547 c 128,-1,6
 512 451 512 451 512 340 c 0,7,8
 512 248 512 248 479 157 c 128,-1,9
 446 66 446 66 374 0 c 1,10,-1
 168 0 l 1,11,12
 96 66 96 66 63 157 c 128,-1,13
 30 248 30 248 30 340 c 0,14,15
 30 451 30 451 64 547 c 128,-1,16
 98 643 98 643 168 700 c 1,17,-1
 374 700 l 1,4,5
235 116 m 1,18,-1
 307 116 l 1,19,20
 332 145 332 145 349.5 210.5 c 128,-1,21
 367 276 367 276 367 349 c 128,-1,22
 367 422 367 422 350 486.5 c 128,-1,23
 333 551 333 551 308 580 c 1,24,-1
 235 580 l 1,25,26
 210 551 210 551 192.5 486.5 c 128,-1,27
 175 422 175 422 175 349 c 128,-1,28
 175 276 175 276 192.5 210.5 c 128,-1,29
 210 145 210 145 235 116 c 1,18,-1
EndSplineSet
EndChar

StartChar: Ohungarumlaut
Encoding: 336 336 245
Width: 542
Flags: MW
HStem: 0 116<235 307 235 374 168 307> 580 120<235 308 235 235> 729 230<246 361>
VStem: 30 145<299 399 299 410> 145 348<789 872> 367 145<299 399>
LayerCount: 2
Fore
SplineSet
290 779 m 1,0,-1
 406 939 l 1,1,-1
 493 872 l 1,2,-1
 361 729 l 1,3,-1
 290 779 l 1,0,-1
145 789 m 1,4,-1
 246 959 l 1,5,-1
 340 900 l 1,6,-1
 221 745 l 1,7,-1
 145 789 l 1,4,-1
374 700 m 1,8,9
 444 643 444 643 478 547 c 128,-1,10
 512 451 512 451 512 340 c 0,11,12
 512 248 512 248 479 157 c 128,-1,13
 446 66 446 66 374 0 c 1,14,-1
 168 0 l 1,15,16
 96 66 96 66 63 157 c 128,-1,17
 30 248 30 248 30 340 c 0,18,19
 30 451 30 451 64 547 c 128,-1,20
 98 643 98 643 168 700 c 1,21,-1
 374 700 l 1,8,9
235 116 m 1,22,-1
 307 116 l 1,23,24
 332 145 332 145 349.5 210.5 c 128,-1,25
 367 276 367 276 367 349 c 128,-1,26
 367 422 367 422 350 486.5 c 128,-1,27
 333 551 333 551 308 580 c 1,28,-1
 235 580 l 1,29,30
 210 551 210 551 192.5 486.5 c 128,-1,31
 175 422 175 422 175 349 c 128,-1,32
 175 276 175 276 192.5 210.5 c 128,-1,33
 210 145 210 145 235 116 c 1,22,-1
EndSplineSet
EndChar

StartChar: Omacron
Encoding: 332 332 246
Width: 542
Flags: MW
HStem: 0 116<235 307 235 374 168 307> 580 120<235 308 235 235> 738 100<145 397 145 397>
VStem: 30 145<299 399 299 410> 145 252<738 838 738 838> 367 145<299 399>
LayerCount: 2
Fore
SplineSet
145 738 m 1,0,-1
 145 838 l 1,1,-1
 397 838 l 1,2,-1
 397 738 l 1,3,-1
 145 738 l 1,0,-1
374 700 m 1,4,5
 444 643 444 643 478 547 c 128,-1,6
 512 451 512 451 512 340 c 0,7,8
 512 248 512 248 479 157 c 128,-1,9
 446 66 446 66 374 0 c 1,10,-1
 168 0 l 1,11,12
 96 66 96 66 63 157 c 128,-1,13
 30 248 30 248 30 340 c 0,14,15
 30 451 30 451 64 547 c 128,-1,16
 98 643 98 643 168 700 c 1,17,-1
 374 700 l 1,4,5
235 116 m 1,18,-1
 307 116 l 1,19,20
 332 145 332 145 349.5 210.5 c 128,-1,21
 367 276 367 276 367 349 c 128,-1,22
 367 422 367 422 350 486.5 c 128,-1,23
 333 551 333 551 308 580 c 1,24,-1
 235 580 l 1,25,26
 210 551 210 551 192.5 486.5 c 128,-1,27
 175 422 175 422 175 349 c 128,-1,28
 175 276 175 276 192.5 210.5 c 128,-1,29
 210 145 210 145 235 116 c 1,18,-1
EndSplineSet
EndChar

StartChar: Otilde
Encoding: 213 213 247
Width: 542
Flags: MW
HStem: 0 116<235 307 235 374 168 307> 580 120<235 308 235 235> 734 134<212.5 318>
VStem: 30 145<299 399 299 410> 140 262<748 841 841 841> 367 145<299 399>
LayerCount: 2
Fore
SplineSet
318 734 m 1,0,-1
 222 759 l 1,1,2
 201 759 201 759 140 736 c 1,3,-1
 140 841 l 1,4,5
 204 868 204 868 226 868 c 1,6,-1
 323 841 l 1,7,8
 343 841 343 841 402 855 c 1,9,-1
 402 748 l 1,10,11
 341 733 341 733 318 734 c 1,0,-1
374 700 m 1,12,13
 444 643 444 643 478 547 c 128,-1,14
 512 451 512 451 512 340 c 0,15,16
 512 248 512 248 479 157 c 128,-1,17
 446 66 446 66 374 0 c 1,18,-1
 168 0 l 1,19,20
 96 66 96 66 63 157 c 128,-1,21
 30 248 30 248 30 340 c 0,22,23
 30 451 30 451 64 547 c 128,-1,24
 98 643 98 643 168 700 c 1,25,-1
 374 700 l 1,12,13
235 116 m 1,26,-1
 307 116 l 1,27,28
 332 145 332 145 349.5 210.5 c 128,-1,29
 367 276 367 276 367 349 c 128,-1,30
 367 422 367 422 350 486.5 c 128,-1,31
 333 551 333 551 308 580 c 1,32,-1
 235 580 l 1,33,34
 210 551 210 551 192.5 486.5 c 128,-1,35
 175 422 175 422 175 349 c 128,-1,36
 175 276 175 276 192.5 210.5 c 128,-1,37
 210 145 210 145 235 116 c 1,26,-1
EndSplineSet
EndChar

StartChar: Racute
Encoding: 340 340 248
Width: 490
Flags: MW
HStem: 367 213<183 275 183 269> 730 169<188 339>
VStem: 156 221<788 817> 183 144<443 504 443 580 443 580>
LayerCount: 2
Fore
SplineSet
314 700 m 1,0,-1
 48 700 l 1,1,-1
 48 0 l 1,2,-1
 183 0 l 1,3,-1
 183 255 l 1,4,-1
 236 255 l 1,5,-1
 321 0 l 1,6,-1
 461 0 l 1,7,-1
 360 287 l 1,8,9
 466 350 466 350 466 484 c 0,10,11
 466 566 466 566 421.5 622.5 c 128,-1,12
 377 679 377 679 314 700 c 1,0,-1
183 367 m 1,13,-1
 183 580 l 1,14,-1
 275 580 l 1,15,16
 292 576 292 576 309.5 545 c 128,-1,17
 327 514 327 514 327 476 c 0,18,19
 327 432 327 432 306.5 401.5 c 128,-1,20
 286 371 286 371 269 367 c 1,21,-1
 183 367 l 1,13,-1
156 817 m 1,22,-1
 339 899 l 1,23,-1
 377 788 l 1,24,-1
 188 730 l 1,25,-1
 156 817 l 1,22,-1
EndSplineSet
EndChar

StartChar: Rcommaaccent
Encoding: 342 342 249
Width: 490
Flags: MW
HStem: -203 137<193 313 193 237> 367 213<183 269 269 269>
VStem: 183 144<367 504 443 504 443 580> 193 120<-160 -109 -109 -66 -160 -66>
LayerCount: 2
Fore
SplineSet
48 700 m 1,0,-1
 314 700 l 1,1,2
 377 679 377 679 421.5 622.5 c 128,-1,3
 466 566 466 566 466 484 c 0,4,5
 466 350 466 350 360 287 c 1,6,-1
 461 0 l 1,7,-1
 321 0 l 1,8,-1
 236 255 l 1,9,-1
 183 255 l 1,10,-1
 183 0 l 1,11,-1
 48 0 l 1,12,-1
 48 700 l 1,0,-1
183 580 m 1,13,-1
 183 367 l 1,14,-1
 269 367 l 1,15,16
 286 371 286 371 306.5 401.5 c 128,-1,17
 327 432 327 432 327 476 c 0,18,19
 327 514 327 514 309.5 545 c 128,-1,20
 292 576 292 576 275 580 c 1,21,-1
 183 580 l 1,13,-1
193 -203 m 1,22,-1
 193 -66 l 1,23,-1
 313 -66 l 1,24,-1
 313 -109 l 2,25,26
 313 -185 313 -185 301 -220.5 c 128,-1,27
 289 -256 289 -256 243 -319 c 1,28,-1
 197 -293 l 1,29,30
 226 -244 226 -244 237 -203 c 1,31,-1
 193 -203 l 1,22,-1
EndSplineSet
EndChar

StartChar: Rcaron
Encoding: 344 344 250
Width: 490
Flags: MW
HStem: 367 213<183 275 183 269> 728 150<170 308 170 308>
VStem: 77 290<837 839> 183 144<443 504 443 580 443 580>
LayerCount: 2
Fore
SplineSet
314 700 m 1,0,-1
 48 700 l 1,1,-1
 48 0 l 1,2,-1
 183 0 l 1,3,-1
 183 255 l 1,4,-1
 236 255 l 1,5,-1
 321 0 l 1,6,-1
 461 0 l 1,7,-1
 360 287 l 1,8,9
 466 350 466 350 466 484 c 0,10,11
 466 566 466 566 421.5 622.5 c 128,-1,12
 377 679 377 679 314 700 c 1,0,-1
183 367 m 1,13,-1
 183 580 l 1,14,-1
 275 580 l 1,15,16
 292 576 292 576 309.5 545 c 128,-1,17
 327 514 327 514 327 476 c 0,18,19
 327 432 327 432 306.5 401.5 c 128,-1,20
 286 371 286 371 269 367 c 1,21,-1
 183 367 l 1,13,-1
276 728 m 1,22,-1
 170 728 l 1,23,-1
 77 837 l 1,24,-1
 136 877 l 1,25,-1
 222 820 l 1,26,-1
 308 878 l 1,27,-1
 367 839 l 1,28,-1
 276 728 l 1,22,-1
EndSplineSet
EndChar

StartChar: Sacute
Encoding: 346 346 251
Width: 388
Flags: MW
HStem: 0 116<34 241 34 299 34 241> 580 120<160 352 160 160> 730 169<142 293>
VStem: 25 341 110 221<788 817>
LayerCount: 2
Fore
SplineSet
110 817 m 1,0,-1
 293 899 l 1,1,-1
 331 788 l 1,2,-1
 142 730 l 1,3,-1
 110 817 l 1,0,-1
112 700 m 1,4,-1
 352 700 l 1,5,-1
 352 580 l 1,6,-1
 160 580 l 1,7,-1
 157 574 l 1,8,-1
 317 282 l 2,9,10
 366 194 366 194 366 148 c 0,11,12
 366 47 366 47 299 0 c 1,13,-1
 34 0 l 1,14,-1
 34 116 l 1,15,-1
 241 116 l 1,16,-1
 244 122 l 1,17,-1
 64 445 l 2,18,19
 25 515 25 515 25 559 c 0,20,21
 25 663 25 663 112 700 c 1,4,-1
EndSplineSet
EndChar

StartChar: Scaron
Encoding: 352 352 252
Width: 388
Flags: MW
HStem: 0 116<34 241 34 299 34 241> 580 120<160 352 160 160> 728 150<152 290 152 290>
VStem: 25 341 59 290<837 839>
LayerCount: 2
Fore
SplineSet
258 728 m 1,0,-1
 152 728 l 1,1,-1
 59 837 l 1,2,-1
 118 877 l 1,3,-1
 204 820 l 1,4,-1
 290 878 l 1,5,-1
 349 839 l 1,6,-1
 258 728 l 1,0,-1
112 700 m 1,7,-1
 352 700 l 1,8,-1
 352 580 l 1,9,-1
 160 580 l 1,10,-1
 157 574 l 1,11,-1
 317 282 l 2,12,13
 366 194 366 194 366 148 c 0,14,15
 366 47 366 47 299 0 c 1,16,-1
 34 0 l 1,17,-1
 34 116 l 1,18,-1
 241 116 l 1,19,-1
 244 122 l 1,20,-1
 64 445 l 2,21,22
 25 515 25 515 25 559 c 0,23,24
 25 663 25 663 112 700 c 1,7,-1
EndSplineSet
EndChar

StartChar: Scedilla
Encoding: 350 350 253
Width: 388
Flags: MW
HStem: -260 81<104 149 104 192 104 149> -132 147 0 116<34 150 34 241 235 241 34 299 235 235> 580 120<160 352 160 160>
VStem: 25 341 159 97
LayerCount: 2
Fore
SplineSet
112 700 m 1,0,-1
 352 700 l 1,1,-1
 352 580 l 1,2,-1
 160 580 l 1,3,-1
 157 574 l 1,4,-1
 317 282 l 2,5,6
 366 194 366 194 366 148 c 0,7,8
 366 47 366 47 299 0 c 1,9,-1
 235 0 l 1,10,-1
 212 -60 l 1,11,12
 227 -73 227 -73 234 -81.5 c 128,-1,13
 241 -90 241 -90 248.5 -109 c 128,-1,14
 256 -128 256 -128 256 -152 c 0,15,16
 256 -184 256 -184 238 -213 c 128,-1,17
 220 -242 220 -242 192 -260 c 1,18,-1
 104 -260 l 1,19,-1
 104 -179 l 1,20,-1
 149 -179 l 1,21,22
 158 -173 158 -173 158.5 -156 c 128,-1,23
 159 -139 159 -139 149 -132 c 1,24,-1
 124 -132 l 1,25,-1
 124 -60 l 1,26,-1
 150 0 l 1,27,-1
 34 0 l 1,28,-1
 34 116 l 1,29,-1
 241 116 l 1,30,-1
 244 122 l 1,31,-1
 64 445 l 2,32,33
 25 515 25 515 25 559 c 0,34,35
 25 663 25 663 112 700 c 1,0,-1
EndSplineSet
EndChar

StartChar: Scircumflex
Encoding: 348 348 254
Width: 388
Flags: MW
HStem: 0 116<34 241 34 299 34 241> 580 120<160 352 160 160> 728 150<154 292>
VStem: 25 341 61 290<767 769>
LayerCount: 2
Fore
SplineSet
154 878 m 1,0,-1
 260 878 l 1,1,-1
 351 767 l 1,2,-1
 292 728 l 1,3,-1
 206 786 l 1,4,-1
 120 729 l 1,5,-1
 61 769 l 1,6,-1
 154 878 l 1,0,-1
112 700 m 1,7,-1
 352 700 l 1,8,-1
 352 580 l 1,9,-1
 160 580 l 1,10,-1
 157 574 l 1,11,-1
 317 282 l 2,12,13
 366 194 366 194 366 148 c 0,14,15
 366 47 366 47 299 0 c 1,16,-1
 34 0 l 1,17,-1
 34 116 l 1,18,-1
 241 116 l 1,19,-1
 244 122 l 1,20,-1
 64 445 l 2,21,22
 25 515 25 515 25 559 c 0,23,24
 25 663 25 663 112 700 c 1,7,-1
EndSplineSet
EndChar

StartChar: Scommaaccent
Encoding: 536 536 255
Width: 388
Flags: MW
HStem: -203 137<128 248 128 172> 0 116<34 241 34 299 34 241> 580 120<160 352 160 160>
VStem: 25 341 128 120<-160 -109 -109 -66 -160 -66>
LayerCount: 2
Fore
SplineSet
128 -203 m 1,0,-1
 128 -66 l 1,1,-1
 248 -66 l 1,2,-1
 248 -109 l 2,3,4
 248 -185 248 -185 236 -220.5 c 128,-1,5
 224 -256 224 -256 178 -319 c 1,6,-1
 132 -293 l 1,7,8
 161 -244 161 -244 172 -203 c 1,9,-1
 128 -203 l 1,0,-1
112 700 m 1,10,-1
 352 700 l 1,11,-1
 352 580 l 1,12,-1
 160 580 l 1,13,-1
 157 574 l 1,14,-1
 317 282 l 2,15,16
 366 194 366 194 366 148 c 0,17,18
 366 47 366 47 299 0 c 1,19,-1
 34 0 l 1,20,-1
 34 116 l 1,21,-1
 241 116 l 1,22,-1
 244 122 l 1,23,-1
 64 445 l 2,24,25
 25 515 25 515 25 559 c 0,26,27
 25 663 25 663 112 700 c 1,10,-1
EndSplineSet
EndChar

StartChar: Tcaron
Encoding: 356 356 256
Width: 458
Flags: MW
HStem: 0 21G<161 297 161 161> 580 120<10 161 10 448 297 297 297 448> 728 150<177 315 177 315>
VStem: 84 290<837 839> 161 136<0 580 0 580>
LayerCount: 2
Fore
SplineSet
161 580 m 1,0,-1
 10 580 l 1,1,-1
 10 700 l 1,2,-1
 448 700 l 1,3,-1
 448 580 l 1,4,-1
 297 580 l 1,5,-1
 297 0 l 1,6,-1
 161 0 l 1,7,-1
 161 580 l 1,0,-1
283 728 m 1,8,-1
 177 728 l 1,9,-1
 84 837 l 1,10,-1
 143 877 l 1,11,-1
 229 820 l 1,12,-1
 315 878 l 1,13,-1
 374 839 l 1,14,-1
 283 728 l 1,8,-1
EndSplineSet
EndChar

StartChar: uni0162
Encoding: 354 354 257
Width: 458
Flags: MW
HStem: -260 81<143 188 143 231 143 188> -132 147 0 21G<161 189 161 161 274 274 274 297> 580 120<10 161 10 448 297 297 297 448>
VStem: 161 136<0 580 0 580> 198 97
LayerCount: 2
Fore
SplineSet
188 -132 m 1,0,-1
 163 -132 l 1,1,-1
 163 -60 l 1,2,-1
 189 0 l 1,3,-1
 161 0 l 1,4,-1
 161 580 l 1,5,-1
 10 580 l 1,6,-1
 10 700 l 1,7,-1
 448 700 l 1,8,-1
 448 580 l 1,9,-1
 297 580 l 1,10,-1
 297 0 l 1,11,-1
 274 0 l 1,12,-1
 251 -60 l 1,13,14
 266 -73 266 -73 273 -81.5 c 128,-1,15
 280 -90 280 -90 287.5 -109 c 128,-1,16
 295 -128 295 -128 295 -152 c 0,17,18
 295 -184 295 -184 277 -213 c 128,-1,19
 259 -242 259 -242 231 -260 c 1,20,-1
 143 -260 l 1,21,-1
 143 -179 l 1,22,-1
 188 -179 l 1,23,24
 197 -173 197 -173 197.5 -156 c 128,-1,25
 198 -139 198 -139 188 -132 c 1,0,-1
EndSplineSet
EndChar

StartChar: uni021A
Encoding: 538 538 258
Width: 458
Flags: MW
HStem: -203 137<167 287 167 211> 0 21G<161 297 161 161> 580 120<10 161 10 448 297 297 297 448>
VStem: 161 136<0 580 0 580> 167 120<-160 -109 -109 -66 -160 -66>
LayerCount: 2
Fore
SplineSet
161 580 m 1,0,-1
 10 580 l 1,1,-1
 10 700 l 1,2,-1
 448 700 l 1,3,-1
 448 580 l 1,4,-1
 297 580 l 1,5,-1
 297 0 l 1,6,-1
 161 0 l 1,7,-1
 161 580 l 1,0,-1
167 -203 m 1,8,-1
 167 -66 l 1,9,-1
 287 -66 l 1,10,-1
 287 -109 l 2,11,12
 287 -185 287 -185 275 -220.5 c 128,-1,13
 263 -256 263 -256 217 -319 c 1,14,-1
 171 -293 l 1,15,16
 200 -244 200 -244 211 -203 c 1,17,-1
 167 -203 l 1,8,-1
EndSplineSet
EndChar

StartChar: Uacute
Encoding: 218 218 259
Width: 526
Flags: MW
HStem: 0 116<221 305 221 374 152 305> 680 20G<43 180 180 180 346 483 483 483> 730 169<209 360>
VStem: 43 137<287 700> 177 221<788 817> 346 137<237 287 287 700>
LayerCount: 2
Fore
SplineSet
221 116 m 1,0,-1
 305 116 l 1,1,2
 327 140 327 140 336.5 164.5 c 128,-1,3
 346 189 346 189 346 237 c 2,4,-1
 346 700 l 1,5,-1
 483 700 l 1,6,-1
 483 287 l 2,7,8
 483 236 483 236 480.5 207.5 c 128,-1,9
 478 179 478 179 468.5 138.5 c 128,-1,10
 459 98 459 98 435.5 65 c 128,-1,11
 412 32 412 32 374 0 c 1,12,-1
 152 0 l 1,13,14
 114 31 114 31 90.5 64 c 128,-1,15
 67 97 67 97 57.5 137.5 c 128,-1,16
 48 178 48 178 45.5 207.5 c 128,-1,17
 43 237 43 237 43 287 c 2,18,-1
 43 700 l 1,19,-1
 180 700 l 1,20,-1
 180 237 l 2,21,22
 180 189 180 189 189.5 164.5 c 128,-1,23
 199 140 199 140 221 116 c 1,0,-1
177 817 m 1,24,-1
 360 899 l 1,25,-1
 398 788 l 1,26,-1
 209 730 l 1,27,-1
 177 817 l 1,24,-1
EndSplineSet
EndChar

StartChar: Ubreve
Encoding: 364 364 260
Width: 526
Flags: MW
HStem: 0 116<221 305 221 374 152 305> 680 20G<43 180 180 180 346 483 483 483> 730 149<116 307 116 221>
VStem: 43 137<287 700> 116 296<879 879> 346 137<237 287 287 700>
LayerCount: 2
Fore
SplineSet
221 116 m 1,0,-1
 305 116 l 1,1,2
 327 140 327 140 336.5 164.5 c 128,-1,3
 346 189 346 189 346 237 c 2,4,-1
 346 700 l 1,5,-1
 483 700 l 1,6,-1
 483 287 l 2,7,8
 483 236 483 236 480.5 207.5 c 128,-1,9
 478 179 478 179 468.5 138.5 c 128,-1,10
 459 98 459 98 435.5 65 c 128,-1,11
 412 32 412 32 374 0 c 1,12,-1
 152 0 l 1,13,14
 114 31 114 31 90.5 64 c 128,-1,15
 67 97 67 97 57.5 137.5 c 128,-1,16
 48 178 48 178 45.5 207.5 c 128,-1,17
 43 237 43 237 43 287 c 2,18,-1
 43 700 l 1,19,-1
 180 700 l 1,20,-1
 180 237 l 2,21,22
 180 189 180 189 189.5 164.5 c 128,-1,23
 199 140 199 140 221 116 c 1,0,-1
116 879 m 1,24,-1
 208 879 l 1,25,26
 218 840 218 840 244 827 c 1,27,-1
 283 827 l 1,28,29
 309 840 309 840 319 879 c 1,30,-1
 412 879 l 1,31,32
 408 771 408 771 307 730 c 1,33,-1
 221 730 l 1,34,35
 122 770 122 770 116 879 c 1,24,-1
EndSplineSet
EndChar

StartChar: Ucircumflex
Encoding: 219 219 261
Width: 526
Flags: MW
HStem: 0 116<221 305 221 374 152 305> 680 20G<43 180 180 180 346 483 483 483> 728 150<211 349>
VStem: 43 137<287 700> 118 290<767 769> 346 137<237 287 287 700>
LayerCount: 2
Fore
SplineSet
221 116 m 1,0,-1
 305 116 l 1,1,2
 327 140 327 140 336.5 164.5 c 128,-1,3
 346 189 346 189 346 237 c 2,4,-1
 346 700 l 1,5,-1
 483 700 l 1,6,-1
 483 287 l 2,7,8
 483 236 483 236 480.5 207.5 c 128,-1,9
 478 179 478 179 468.5 138.5 c 128,-1,10
 459 98 459 98 435.5 65 c 128,-1,11
 412 32 412 32 374 0 c 1,12,-1
 152 0 l 1,13,14
 114 31 114 31 90.5 64 c 128,-1,15
 67 97 67 97 57.5 137.5 c 128,-1,16
 48 178 48 178 45.5 207.5 c 128,-1,17
 43 237 43 237 43 287 c 2,18,-1
 43 700 l 1,19,-1
 180 700 l 1,20,-1
 180 237 l 2,21,22
 180 189 180 189 189.5 164.5 c 128,-1,23
 199 140 199 140 221 116 c 1,0,-1
211 878 m 1,24,-1
 317 878 l 1,25,-1
 408 767 l 1,26,-1
 349 728 l 1,27,-1
 263 786 l 1,28,-1
 177 729 l 1,29,-1
 118 769 l 1,30,-1
 211 878 l 1,24,-1
EndSplineSet
EndChar

StartChar: Udieresis
Encoding: 220 220 262
Width: 526
Flags: MW
HStem: 0 116<221 305 221 374 152 305> 680 20G<43 180 180 180 346 483 483 483> 730 135<111 243 111 243 284 416 111 284>
VStem: 43 137<287 700> 111 132<730 865 730 865> 284 132<730 865 730 865> 346 137<237 287 287 700>
LayerCount: 2
Fore
SplineSet
221 116 m 1,0,-1
 305 116 l 1,1,2
 327 140 327 140 336.5 164.5 c 128,-1,3
 346 189 346 189 346 237 c 2,4,-1
 346 700 l 1,5,-1
 483 700 l 1,6,-1
 483 287 l 2,7,8
 483 236 483 236 480.5 207.5 c 128,-1,9
 478 179 478 179 468.5 138.5 c 128,-1,10
 459 98 459 98 435.5 65 c 128,-1,11
 412 32 412 32 374 0 c 1,12,-1
 152 0 l 1,13,14
 114 31 114 31 90.5 64 c 128,-1,15
 67 97 67 97 57.5 137.5 c 128,-1,16
 48 178 48 178 45.5 207.5 c 128,-1,17
 43 237 43 237 43 287 c 2,18,-1
 43 700 l 1,19,-1
 180 700 l 1,20,-1
 180 237 l 2,21,22
 180 189 180 189 189.5 164.5 c 128,-1,23
 199 140 199 140 221 116 c 1,0,-1
111 730 m 1,24,-1
 111 865 l 1,25,-1
 243 865 l 1,26,-1
 243 730 l 1,27,-1
 111 730 l 1,24,-1
284 730 m 1,28,-1
 284 865 l 1,29,-1
 416 865 l 1,30,-1
 416 730 l 1,31,-1
 284 730 l 1,28,-1
EndSplineSet
EndChar

StartChar: Ugrave
Encoding: 217 217 263
Width: 526
Flags: MW
HStem: 0 116<221 305 221 374 152 305> 680 20G<43 180 180 180 346 483 483 483> 730 169<188 339>
VStem: 43 137<287 700> 149 222<788 817> 346 137<237 287 287 700>
LayerCount: 2
Fore
SplineSet
221 116 m 1,0,-1
 305 116 l 1,1,2
 327 140 327 140 336.5 164.5 c 128,-1,3
 346 189 346 189 346 237 c 2,4,-1
 346 700 l 1,5,-1
 483 700 l 1,6,-1
 483 287 l 2,7,8
 483 236 483 236 480.5 207.5 c 128,-1,9
 478 179 478 179 468.5 138.5 c 128,-1,10
 459 98 459 98 435.5 65 c 128,-1,11
 412 32 412 32 374 0 c 1,12,-1
 152 0 l 1,13,14
 114 31 114 31 90.5 64 c 128,-1,15
 67 97 67 97 57.5 137.5 c 128,-1,16
 48 178 48 178 45.5 207.5 c 128,-1,17
 43 237 43 237 43 287 c 2,18,-1
 43 700 l 1,19,-1
 180 700 l 1,20,-1
 180 237 l 2,21,22
 180 189 180 189 189.5 164.5 c 128,-1,23
 199 140 199 140 221 116 c 1,0,-1
188 899 m 1,24,-1
 371 817 l 1,25,-1
 339 730 l 1,26,-1
 149 788 l 1,27,-1
 188 899 l 1,24,-1
EndSplineSet
EndChar

StartChar: Uhungarumlaut
Encoding: 368 368 264
Width: 526
Flags: MW
HStem: 0 116<221 305 221 374 152 305> 680 20G<43 180 180 180 346 483 483 483> 729 230<217 332>
VStem: 43 137<287 700> 116 348<789 872> 346 137<237 287 287 700>
LayerCount: 2
Fore
SplineSet
221 116 m 1,0,-1
 305 116 l 1,1,2
 327 140 327 140 336.5 164.5 c 128,-1,3
 346 189 346 189 346 237 c 2,4,-1
 346 700 l 1,5,-1
 483 700 l 1,6,-1
 483 287 l 2,7,8
 483 236 483 236 480.5 207.5 c 128,-1,9
 478 179 478 179 468.5 138.5 c 128,-1,10
 459 98 459 98 435.5 65 c 128,-1,11
 412 32 412 32 374 0 c 1,12,-1
 152 0 l 1,13,14
 114 31 114 31 90.5 64 c 128,-1,15
 67 97 67 97 57.5 137.5 c 128,-1,16
 48 178 48 178 45.5 207.5 c 128,-1,17
 43 237 43 237 43 287 c 2,18,-1
 43 700 l 1,19,-1
 180 700 l 1,20,-1
 180 237 l 2,21,22
 180 189 180 189 189.5 164.5 c 128,-1,23
 199 140 199 140 221 116 c 1,0,-1
261 779 m 1,24,-1
 377 939 l 1,25,-1
 464 872 l 1,26,-1
 332 729 l 1,27,-1
 261 779 l 1,24,-1
116 789 m 1,28,-1
 217 959 l 1,29,-1
 311 900 l 1,30,-1
 192 745 l 1,31,-1
 116 789 l 1,28,-1
EndSplineSet
EndChar

StartChar: Umacron
Encoding: 362 362 265
Width: 526
Flags: MW
HStem: 0 116<221 305 221 374 152 305> 680 20G<43 180 180 180 346 483 483 483> 738 100<137 389 137 389>
VStem: 43 137<287 700> 137 252<738 838 738 838> 346 137<237 287 287 700>
LayerCount: 2
Fore
SplineSet
221 116 m 1,0,-1
 305 116 l 1,1,2
 327 140 327 140 336.5 164.5 c 128,-1,3
 346 189 346 189 346 237 c 2,4,-1
 346 700 l 1,5,-1
 483 700 l 1,6,-1
 483 287 l 2,7,8
 483 236 483 236 480.5 207.5 c 128,-1,9
 478 179 478 179 468.5 138.5 c 128,-1,10
 459 98 459 98 435.5 65 c 128,-1,11
 412 32 412 32 374 0 c 1,12,-1
 152 0 l 1,13,14
 114 31 114 31 90.5 64 c 128,-1,15
 67 97 67 97 57.5 137.5 c 128,-1,16
 48 178 48 178 45.5 207.5 c 128,-1,17
 43 237 43 237 43 287 c 2,18,-1
 43 700 l 1,19,-1
 180 700 l 1,20,-1
 180 237 l 2,21,22
 180 189 180 189 189.5 164.5 c 128,-1,23
 199 140 199 140 221 116 c 1,0,-1
137 738 m 1,24,-1
 137 838 l 1,25,-1
 389 838 l 1,26,-1
 389 738 l 1,27,-1
 137 738 l 1,24,-1
EndSplineSet
EndChar

StartChar: Uogonek
Encoding: 370 370 266
Width: 526
Flags: MW
HStem: -227 100<318 318 318 388 235 318> 0 116<221 269 152 305> 680 20G<43 180 180 180 346 483 483 483>
VStem: 43 137<287 700> 182 180 198 190<-174 -139> 346 137<237 287 287 700>
LayerCount: 2
Fore
SplineSet
221 116 m 1,0,-1
 305 116 l 1,1,2
 327 140 327 140 336.5 164.5 c 128,-1,3
 346 189 346 189 346 237 c 2,4,-1
 346 700 l 1,5,-1
 483 700 l 1,6,-1
 483 287 l 2,7,8
 483 182 483 182 466 133.5 c 128,-1,9
 449 85 449 85 393 2 c 0,10,11
 361 -46 361 -46 318 -127 c 1,12,-1
 322 -132 l 1,13,-1
 388 -132 l 1,14,-1
 388 -227 l 1,15,-1
 235 -227 l 1,16,17
 198 -204 198 -204 198 -159 c 0,18,19
 198 -151 198 -151 199 -143 c 128,-1,20
 200 -135 200 -135 203 -125.5 c 128,-1,21
 206 -116 206 -116 208.5 -110 c 128,-1,22
 211 -104 211 -104 216.5 -93 c 128,-1,23
 222 -82 222 -82 224.5 -77 c 128,-1,24
 227 -72 227 -72 235 -58.5 c 128,-1,25
 243 -45 243 -45 246 -40 c 2,26,-1
 269 0 l 1,27,-1
 152 0 l 1,28,29
 114 31 114 31 90.5 64 c 128,-1,30
 67 97 67 97 57.5 137.5 c 128,-1,31
 48 178 48 178 45.5 207.5 c 128,-1,32
 43 237 43 237 43 287 c 2,33,-1
 43 700 l 1,34,-1
 180 700 l 1,35,-1
 180 237 l 2,36,37
 180 189 180 189 189.5 164.5 c 128,-1,38
 199 140 199 140 221 116 c 1,0,-1
EndSplineSet
EndChar

StartChar: Uring
Encoding: 366 366 267
Width: 526
Flags: MW
HStem: 0 116<221 305 221 374 152 305> 680 20G<43 180 180 180 346 483 483 483> 728 73<244 281 244 308 218 281> 899 75<244 281 244 244>
VStem: 43 137<287 700> 138 106<801 877> 302 86<838.5 859> 346 137<237 287 287 700>
LayerCount: 2
Fore
SplineSet
221 116 m 1,0,-1
 305 116 l 1,1,2
 327 140 327 140 336.5 164.5 c 128,-1,3
 346 189 346 189 346 237 c 2,4,-1
 346 700 l 1,5,-1
 483 700 l 1,6,-1
 483 287 l 2,7,8
 483 236 483 236 480.5 207.5 c 128,-1,9
 478 179 478 179 468.5 138.5 c 128,-1,10
 459 98 459 98 435.5 65 c 128,-1,11
 412 32 412 32 374 0 c 1,12,-1
 152 0 l 1,13,14
 114 31 114 31 90.5 64 c 128,-1,15
 67 97 67 97 57.5 137.5 c 128,-1,16
 48 178 48 178 45.5 207.5 c 128,-1,17
 43 237 43 237 43 287 c 2,18,-1
 43 700 l 1,19,-1
 180 700 l 1,20,-1
 180 237 l 2,21,22
 180 189 180 189 189.5 164.5 c 128,-1,23
 199 140 199 140 221 116 c 1,0,-1
218 974 m 1,24,-1
 308 974 l 1,25,26
 388 935 388 935 388 849 c 0,27,28
 388 811 388 811 367 778.5 c 128,-1,29
 346 746 346 746 308 728 c 1,30,-1
 218 728 l 1,31,32
 180 746 180 746 159 778.5 c 128,-1,33
 138 811 138 811 138 849 c 0,34,35
 138 935 138 935 218 974 c 1,24,-1
244 801 m 1,36,-1
 281 801 l 1,37,38
 302 822 302 822 302 849 c 0,39,40
 302 880 302 880 281 899 c 1,41,-1
 244 899 l 1,42,43
 224 879 224 879 224 849 c 0,44,45
 224 821 224 821 244 801 c 1,36,-1
EndSplineSet
EndChar

StartChar: Utilde
Encoding: 360 360 268
Width: 526
Flags: MW
HStem: 0 116<221 305 221 374 152 305> 680 20G<43 180 180 180 346 483 483 483> 734 134<204.5 310>
VStem: 43 137<287 700> 132 262<748 841 841 841> 346 137<237 287 287 700>
LayerCount: 2
Fore
SplineSet
221 116 m 1,0,-1
 305 116 l 1,1,2
 327 140 327 140 336.5 164.5 c 128,-1,3
 346 189 346 189 346 237 c 2,4,-1
 346 700 l 1,5,-1
 483 700 l 1,6,-1
 483 287 l 2,7,8
 483 236 483 236 480.5 207.5 c 128,-1,9
 478 179 478 179 468.5 138.5 c 128,-1,10
 459 98 459 98 435.5 65 c 128,-1,11
 412 32 412 32 374 0 c 1,12,-1
 152 0 l 1,13,14
 114 31 114 31 90.5 64 c 128,-1,15
 67 97 67 97 57.5 137.5 c 128,-1,16
 48 178 48 178 45.5 207.5 c 128,-1,17
 43 237 43 237 43 287 c 2,18,-1
 43 700 l 1,19,-1
 180 700 l 1,20,-1
 180 237 l 2,21,22
 180 189 180 189 189.5 164.5 c 128,-1,23
 199 140 199 140 221 116 c 1,0,-1
310 734 m 1,24,-1
 214 759 l 1,25,26
 193 759 193 759 132 736 c 1,27,-1
 132 841 l 1,28,29
 196 868 196 868 218 868 c 1,30,-1
 315 841 l 1,31,32
 335 841 335 841 394 855 c 1,33,-1
 394 748 l 1,34,35
 333 733 333 733 310 734 c 1,24,-1
EndSplineSet
EndChar

StartChar: Wacute
Encoding: 7810 7810 269
Width: 644
Flags: MW
HStem: 0 21G<107 247 107 107 393 537 393 393> 680 20G<10 144 144 144 266 379 379 379 500 634 634 634> 730 169<258 409>
VStem: 10 624<700 700> 226 221
LayerCount: 2
Fore
SplineSet
393 0 m 1,0,-1
 323 413 l 1,1,-1
 319 413 l 1,2,-1
 247 0 l 1,3,-1
 107 0 l 1,4,-1
 10 700 l 1,5,-1
 144 700 l 1,6,-1
 172 494 l 1,7,-1
 193 262 l 1,8,-1
 198 262 l 1,9,-1
 235 493 l 1,10,-1
 266 700 l 1,11,-1
 379 700 l 1,12,-1
 409 493 l 1,13,-1
 447 262 l 1,14,-1
 452 262 l 1,15,-1
 472 494 l 1,16,-1
 500 700 l 1,17,-1
 634 700 l 1,18,-1
 537 0 l 1,19,-1
 393 0 l 1,0,-1
226 817 m 1,20,-1
 409 899 l 1,21,-1
 447 788 l 1,22,-1
 258 730 l 1,23,-1
 226 817 l 1,20,-1
EndSplineSet
EndChar

StartChar: Wcircumflex
Encoding: 372 372 270
Width: 644
Flags: MW
HStem: 0 21G<107 247 107 107 393 537 393 393> 680 20G<10 144 144 144 266 379 379 379 500 634 634 634> 728 150<270 408>
VStem: 10 624<700 700> 177 290<767 769>
LayerCount: 2
Fore
SplineSet
393 0 m 1,0,-1
 323 413 l 1,1,-1
 319 413 l 1,2,-1
 247 0 l 1,3,-1
 107 0 l 1,4,-1
 10 700 l 1,5,-1
 144 700 l 1,6,-1
 172 494 l 1,7,-1
 193 262 l 1,8,-1
 198 262 l 1,9,-1
 235 493 l 1,10,-1
 266 700 l 1,11,-1
 379 700 l 1,12,-1
 409 493 l 1,13,-1
 447 262 l 1,14,-1
 452 262 l 1,15,-1
 472 494 l 1,16,-1
 500 700 l 1,17,-1
 634 700 l 1,18,-1
 537 0 l 1,19,-1
 393 0 l 1,0,-1
270 878 m 1,20,-1
 376 878 l 1,21,-1
 467 767 l 1,22,-1
 408 728 l 1,23,-1
 322 786 l 1,24,-1
 236 729 l 1,25,-1
 177 769 l 1,26,-1
 270 878 l 1,20,-1
EndSplineSet
EndChar

StartChar: Wdieresis
Encoding: 7812 7812 271
Width: 644
Flags: MW
HStem: 0 21G<107 247 107 107 393 537 393 393> 680 20G<10 144 144 144 266 379 379 379 500 634 634 634> 730 135<170 302 170 302 343 475 170 343>
VStem: 10 624<700 700> 170 132<730 865 730 865> 343 132<730 865 730 865>
LayerCount: 2
Fore
SplineSet
393 0 m 1,0,-1
 323 413 l 1,1,-1
 319 413 l 1,2,-1
 247 0 l 1,3,-1
 107 0 l 1,4,-1
 10 700 l 1,5,-1
 144 700 l 1,6,-1
 172 494 l 1,7,-1
 193 262 l 1,8,-1
 198 262 l 1,9,-1
 235 493 l 1,10,-1
 266 700 l 1,11,-1
 379 700 l 1,12,-1
 409 493 l 1,13,-1
 447 262 l 1,14,-1
 452 262 l 1,15,-1
 472 494 l 1,16,-1
 500 700 l 1,17,-1
 634 700 l 1,18,-1
 537 0 l 1,19,-1
 393 0 l 1,0,-1
170 730 m 1,20,-1
 170 865 l 1,21,-1
 302 865 l 1,22,-1
 302 730 l 1,23,-1
 170 730 l 1,20,-1
343 730 m 1,24,-1
 343 865 l 1,25,-1
 475 865 l 1,26,-1
 475 730 l 1,27,-1
 343 730 l 1,24,-1
EndSplineSet
EndChar

StartChar: Wgrave
Encoding: 7808 7808 272
Width: 644
Flags: MW
HStem: 0 21G<107 247 107 107 393 537 393 393> 680 20G<10 144 144 144 266 379 379 379 500 634 634 634> 730 169<247 398>
VStem: 10 624<700 700> 208 222<788 817>
LayerCount: 2
Fore
SplineSet
393 0 m 1,0,-1
 323 413 l 1,1,-1
 319 413 l 1,2,-1
 247 0 l 1,3,-1
 107 0 l 1,4,-1
 10 700 l 1,5,-1
 144 700 l 1,6,-1
 172 494 l 1,7,-1
 193 262 l 1,8,-1
 198 262 l 1,9,-1
 235 493 l 1,10,-1
 266 700 l 1,11,-1
 379 700 l 1,12,-1
 409 493 l 1,13,-1
 447 262 l 1,14,-1
 452 262 l 1,15,-1
 472 494 l 1,16,-1
 500 700 l 1,17,-1
 634 700 l 1,18,-1
 537 0 l 1,19,-1
 393 0 l 1,0,-1
247 899 m 1,20,-1
 430 817 l 1,21,-1
 398 730 l 1,22,-1
 208 788 l 1,23,-1
 247 899 l 1,20,-1
EndSplineSet
EndChar

StartChar: Yacute
Encoding: 221 221 273
Width: 442
Flags: MW
HStem: 0 21G<148 294 148 148> 680 20G<0 136 136 136 306 442 442 442> 730 169<178 329>
VStem: 146 221<788 817> 148 146<0 233>
LayerCount: 2
Fore
SplineSet
294 0 m 1,0,-1
 148 0 l 1,1,-1
 148 233 l 1,2,-1
 0 700 l 1,3,-1
 136 700 l 1,4,-1
 198 487 l 1,5,-1
 219 364 l 1,6,-1
 223 364 l 1,7,-1
 244 487 l 1,8,-1
 306 700 l 1,9,-1
 442 700 l 1,10,-1
 294 233 l 1,11,-1
 294 0 l 1,0,-1
146 817 m 1,12,-1
 329 899 l 1,13,-1
 367 788 l 1,14,-1
 178 730 l 1,15,-1
 146 817 l 1,12,-1
EndSplineSet
EndChar

StartChar: Ycircumflex
Encoding: 374 374 274
Width: 442
Flags: MW
HStem: 0 21G<148 294 148 148> 680 20G<0 136 136 136 306 442 442 442> 728 150<170 308>
VStem: 77 290<767 769> 148 146<0 233>
LayerCount: 2
Fore
SplineSet
294 0 m 1,0,-1
 148 0 l 1,1,-1
 148 233 l 1,2,-1
 0 700 l 1,3,-1
 136 700 l 1,4,-1
 198 487 l 1,5,-1
 219 364 l 1,6,-1
 223 364 l 1,7,-1
 244 487 l 1,8,-1
 306 700 l 1,9,-1
 442 700 l 1,10,-1
 294 233 l 1,11,-1
 294 0 l 1,0,-1
170 878 m 1,12,-1
 276 878 l 1,13,-1
 367 767 l 1,14,-1
 308 728 l 1,15,-1
 222 786 l 1,16,-1
 136 729 l 1,17,-1
 77 769 l 1,18,-1
 170 878 l 1,12,-1
EndSplineSet
EndChar

StartChar: Ydieresis
Encoding: 376 376 275
Width: 442
Flags: MW
HStem: 0 21G<148 294 148 148> 680 20G<0 136 136 136 306 442 442 442> 730 135<70 202 70 202 243 375 70 243>
VStem: 70 132<730 865 730 865> 148 146<0 233> 243 132<730 865 730 865>
LayerCount: 2
Fore
SplineSet
294 0 m 1,0,-1
 148 0 l 1,1,-1
 148 233 l 1,2,-1
 0 700 l 1,3,-1
 136 700 l 1,4,-1
 198 487 l 1,5,-1
 219 364 l 1,6,-1
 223 364 l 1,7,-1
 244 487 l 1,8,-1
 306 700 l 1,9,-1
 442 700 l 1,10,-1
 294 233 l 1,11,-1
 294 0 l 1,0,-1
70 730 m 1,12,-1
 70 865 l 1,13,-1
 202 865 l 1,14,-1
 202 730 l 1,15,-1
 70 730 l 1,12,-1
243 730 m 1,16,-1
 243 865 l 1,17,-1
 375 865 l 1,18,-1
 375 730 l 1,19,-1
 243 730 l 1,16,-1
EndSplineSet
EndChar

StartChar: Ygrave
Encoding: 7922 7922 276
Width: 442
Flags: MW
HStem: 0 21G<148 294 148 148> 680 20G<0 136 136 136 306 442 442 442> 730 169<117 268>
VStem: 78 222<788 817> 148 146<0 233>
LayerCount: 2
Fore
SplineSet
294 0 m 1,0,-1
 148 0 l 1,1,-1
 148 233 l 1,2,-1
 0 700 l 1,3,-1
 136 700 l 1,4,-1
 198 487 l 1,5,-1
 219 364 l 1,6,-1
 223 364 l 1,7,-1
 244 487 l 1,8,-1
 306 700 l 1,9,-1
 442 700 l 1,10,-1
 294 233 l 1,11,-1
 294 0 l 1,0,-1
117 899 m 1,12,-1
 300 817 l 1,13,-1
 268 730 l 1,14,-1
 78 788 l 1,15,-1
 117 899 l 1,12,-1
EndSplineSet
EndChar

StartChar: Zacute
Encoding: 377 377 277
Width: 432
Flags: MW
HStem: 0 700<24 406 24 407 24 407> 730 169<148 299>
VStem: 24 383<0 114 0 116> 116 221<788 817>
LayerCount: 2
Fore
SplineSet
169 116 m 1,0,-1
 406 583 l 1,1,-1
 406 700 l 1,2,-1
 24 700 l 1,3,-1
 24 580 l 1,4,-1
 260 580 l 1,5,-1
 24 114 l 1,6,-1
 24 0 l 1,7,-1
 407 0 l 1,8,-1
 407 116 l 1,9,-1
 169 116 l 1,0,-1
116 817 m 1,10,-1
 299 899 l 1,11,-1
 337 788 l 1,12,-1
 148 730 l 1,13,-1
 116 817 l 1,10,-1
EndSplineSet
EndChar

StartChar: Zcaron
Encoding: 381 381 278
Width: 432
Flags: MW
HStem: 0 700<24 406 24 407 24 407> 728 150<170 308 170 308>
VStem: 24 383<0 114 0 116> 77 290<837 839>
LayerCount: 2
Fore
SplineSet
169 116 m 1,0,-1
 406 583 l 1,1,-1
 406 700 l 1,2,-1
 24 700 l 1,3,-1
 24 580 l 1,4,-1
 260 580 l 1,5,-1
 24 114 l 1,6,-1
 24 0 l 1,7,-1
 407 0 l 1,8,-1
 407 116 l 1,9,-1
 169 116 l 1,0,-1
276 728 m 1,10,-1
 170 728 l 1,11,-1
 77 837 l 1,12,-1
 136 877 l 1,13,-1
 222 820 l 1,14,-1
 308 878 l 1,15,-1
 367 839 l 1,16,-1
 276 728 l 1,10,-1
EndSplineSet
EndChar

StartChar: Zdotaccent
Encoding: 379 379 279
Width: 432
Flags: MW
HStem: 0 700<24 406 24 407 24 407> 730 135<157 289 157 289>
VStem: 24 383<0 114 0 116> 157 132<730 865 730 865>
LayerCount: 2
Fore
SplineSet
169 116 m 1,0,-1
 406 583 l 1,1,-1
 406 700 l 1,2,-1
 24 700 l 1,3,-1
 24 580 l 1,4,-1
 260 580 l 1,5,-1
 24 114 l 1,6,-1
 24 0 l 1,7,-1
 407 0 l 1,8,-1
 407 116 l 1,9,-1
 169 116 l 1,0,-1
157 865 m 1,10,-1
 289 865 l 1,11,-1
 289 730 l 1,12,-1
 157 730 l 1,13,-1
 157 865 l 1,10,-1
EndSplineSet
EndChar

StartChar: abreve
Encoding: 259 259 281
Width: 458
Flags: MW
HStem: 0 105<114 284 114 284 178 419 178 305> 231 97<177 210 210 223 116 284 177 177> 406 105<69 249 69 317> 548 159<61 254 61 166>
VStem: 29 127<156.5 183 156.5 193> 61 298<707 707> 284 131<126.5 152 152 231 231 231>
LayerCount: 2
Fore
SplineSet
284 231 m 1,0,-1
 177 231 l 1,1,2
 156 205 156 205 156 169 c 0,3,4
 156 127 156 127 178 105 c 1,5,-1
 284 105 l 1,6,-1
 284 231 l 1,0,-1
69 511 m 1,7,-1
 317 511 l 1,8,9
 377 475 377 475 396 428.5 c 128,-1,10
 415 382 415 382 415 302 c 2,11,-1
 415 152 l 2,12,13
 415 69 415 69 419 0 c 1,14,-1
 305 0 l 1,15,-1
 287 36 l 1,16,17
 248 0 248 0 177 0 c 2,18,-1
 114 0 l 1,19,20
 29 56 29 56 29 162 c 0,21,22
 29 267 29 267 116 328 c 1,23,-1
 210 328 l 2,24,25
 249 328 249 328 283 304 c 1,26,-1
 283 354 l 2,27,28
 283 393 283 393 249 406 c 1,29,-1
 69 406 l 1,30,-1
 69 511 l 1,7,-1
61 707 m 1,31,-1
 155 707 l 1,32,33
 162.326741769 664.50489774 162.326741769 664.50489774 173.146514893 652.802307129 c 0,34,35
 178.406496945 647.113147488 178.406496945 647.113147488 186 643 c 1,36,-1
 234 643 l 1,37,38
 243 648 243 648 248 653.5 c 128,-1,39
 253 659 253 659 256.5 670.5 c 128,-1,40
 260 682 260 682 261 685.5 c 128,-1,41
 262 689 262 689 265 707 c 1,42,-1
 359 707 l 1,43,44
 352 588 352 588 254 548 c 1,45,-1
 166 548 l 1,46,47
 68 588 68 588 61 707 c 1,31,-1
EndSplineSet
EndChar

StartChar: adieresis
Encoding: 228 228 283
Width: 458
Flags: MW
HStem: 0 105<114 284 114 284 178 419 178 305> 231 97<177 210 210 223 116 284 177 177> 406 105<69 249 69 317> 565 135<68 200 68 200 241 373 68 241>
VStem: 29 127<156.5 183 156.5 193> 68 132<565 700 565 700> 241 132<565 700 565 700> 284 131<126.5 152 152 231 231 231>
LayerCount: 2
Fore
SplineSet
284 231 m 1,0,-1
 177 231 l 1,1,2
 156 205 156 205 156 169 c 0,3,4
 156 127 156 127 178 105 c 1,5,-1
 284 105 l 1,6,-1
 284 231 l 1,0,-1
69 511 m 1,7,-1
 317 511 l 1,8,9
 377 475 377 475 396 428.5 c 128,-1,10
 415 382 415 382 415 302 c 2,11,-1
 415 152 l 2,12,13
 415 69 415 69 419 0 c 1,14,-1
 305 0 l 1,15,-1
 287 36 l 1,16,17
 248 0 248 0 177 0 c 2,18,-1
 114 0 l 1,19,20
 29 56 29 56 29 162 c 0,21,22
 29 267 29 267 116 328 c 1,23,-1
 210 328 l 2,24,25
 249 328 249 328 283 304 c 1,26,-1
 283 354 l 2,27,28
 283 393 283 393 249 406 c 1,29,-1
 69 406 l 1,30,-1
 69 511 l 1,7,-1
68 565 m 1,31,-1
 68 700 l 1,32,-1
 200 700 l 1,33,-1
 200 565 l 1,34,-1
 68 565 l 1,31,-1
241 565 m 1,35,-1
 241 700 l 1,36,-1
 373 700 l 1,37,-1
 373 565 l 1,38,-1
 241 565 l 1,35,-1
EndSplineSet
EndChar

StartChar: amacron
Encoding: 257 257 285
Width: 458
Flags: MW
HStem: 0 105<114 284 114 284 178 419 178 305> 231 97<177 210 210 223 116 284 177 177> 406 105<69 249 69 317> 569 100<84 336 84 336>
VStem: 29 127<156.5 183 156.5 193> 84 252<569 669 569 669> 284 131<126.5 152 152 231 231 231>
LayerCount: 2
Fore
SplineSet
284 231 m 1,0,-1
 177 231 l 1,1,2
 156 205 156 205 156 169 c 0,3,4
 156 127 156 127 178 105 c 1,5,-1
 284 105 l 1,6,-1
 284 231 l 1,0,-1
69 511 m 1,7,-1
 317 511 l 1,8,9
 377 475 377 475 396 428.5 c 128,-1,10
 415 382 415 382 415 302 c 2,11,-1
 415 152 l 2,12,13
 415 69 415 69 419 0 c 1,14,-1
 305 0 l 1,15,-1
 287 36 l 1,16,17
 248 0 248 0 177 0 c 2,18,-1
 114 0 l 1,19,20
 29 56 29 56 29 162 c 0,21,22
 29 267 29 267 116 328 c 1,23,-1
 210 328 l 2,24,25
 249 328 249 328 283 304 c 1,26,-1
 283 354 l 2,27,28
 283 393 283 393 249 406 c 1,29,-1
 69 406 l 1,30,-1
 69 511 l 1,7,-1
84 569 m 1,31,-1
 84 669 l 1,32,-1
 336 669 l 1,33,-1
 336 569 l 1,34,-1
 84 569 l 1,31,-1
EndSplineSet
EndChar

StartChar: aogonek
Encoding: 261 261 286
Width: 458
Flags: MW
HStem: -227 100<368 420 368 420> 0 105<114 284 114 284> 231 97<177 210 210 223 116 284 177 177> 406 105<69 249 69 317>
VStem: 29 127<156.5 183 156.5 193> 230 190<-174 -139> 284 131<126.5 152 152 231 231 231>
LayerCount: 2
Fore
SplineSet
69 511 m 1,0,-1
 317 511 l 1,1,2
 377 475 377 475 396 428.5 c 128,-1,3
 415 382 415 382 415 302 c 2,4,-1
 415 152 l 2,5,6
 415 69 415 69 419 0 c 1,7,-1
 364 -103 l 2,8,9
 358 -113 358 -113 358 -119 c 0,10,11
 358 -127 358 -127 368 -127 c 2,12,-1
 420 -127 l 1,13,-1
 420 -227 l 1,14,-1
 267 -227 l 1,15,16
 230 -204 230 -204 230 -159 c 0,17,18
 230 -151 230 -151 231 -143 c 128,-1,19
 232 -135 232 -135 235 -125.5 c 128,-1,20
 238 -116 238 -116 240.5 -110 c 128,-1,21
 243 -104 243 -104 248.5 -93 c 128,-1,22
 254 -82 254 -82 256.5 -77 c 128,-1,23
 259 -72 259 -72 267 -58.5 c 128,-1,24
 275 -45 275 -45 278 -40 c 2,25,-1
 303 3 l 1,26,-1
 287 36 l 1,27,28
 248 0 248 0 177 0 c 2,29,-1
 114 0 l 1,30,31
 29 56 29 56 29 162 c 0,32,33
 29 267 29 267 116 328 c 1,34,-1
 210 328 l 2,35,36
 249 328 249 328 283 304 c 1,37,-1
 283 354 l 2,38,39
 283 393 283 393 249 406 c 1,40,-1
 69 406 l 1,41,-1
 69 511 l 1,0,-1
284 231 m 1,42,-1
 177 231 l 1,43,44
 156 205 156 205 156 169 c 0,45,46
 156 127 156 127 178 105 c 1,47,-1
 284 105 l 1,48,-1
 284 231 l 1,42,-1
EndSplineSet
EndChar

StartChar: atilde
Encoding: 227 227 288
Width: 458
Flags: MW
HStem: 0 105<114 284 114 284 178 419 178 305> 231 97<177 210 210 223 116 284 177 177> 406 105<69 249 69 317> 557 129<161.5 267>
VStem: 29 127<156.5 183 156.5 193> 89 262<571 659 659 659> 284 131<126.5 152 152 231 231 231>
LayerCount: 2
Fore
SplineSet
284 231 m 1,0,-1
 177 231 l 1,1,2
 156 205 156 205 156 169 c 0,3,4
 156 127 156 127 178 105 c 1,5,-1
 284 105 l 1,6,-1
 284 231 l 1,0,-1
69 511 m 1,7,-1
 317 511 l 1,8,9
 377 475 377 475 396 428.5 c 128,-1,10
 415 382 415 382 415 302 c 2,11,-1
 415 152 l 2,12,13
 415 69 415 69 419 0 c 1,14,-1
 305 0 l 1,15,-1
 287 36 l 1,16,17
 248 0 248 0 177 0 c 2,18,-1
 114 0 l 1,19,20
 29 56 29 56 29 162 c 0,21,22
 29 267 29 267 116 328 c 1,23,-1
 210 328 l 2,24,25
 249 328 249 328 283 304 c 1,26,-1
 283 354 l 2,27,28
 283 393 283 393 249 406 c 1,29,-1
 69 406 l 1,30,-1
 69 511 l 1,7,-1
267 557 m 1,31,-1
 171 582 l 1,32,33
 150 582 150 582 89 559 c 1,34,-1
 89 659 l 1,35,36
 153 686 153 686 175 686 c 1,37,-1
 272 659 l 1,38,39
 292 659 292 659 351 673 c 1,40,-1
 351 571 l 1,41,42
 290 556 290 556 267 557 c 1,31,-1
EndSplineSet
EndChar

StartChar: ccaron
Encoding: 269 269 290
Width: 390
Flags: MW
HStem: 0 511<155 366 155 366 155 366> 105 301<216 366 216 366> 549 169<175 310 175 192>
VStem: 29 337<0 303.5> 112 279<685 685>
LayerCount: 2
Fore
SplineSet
167 260 m 0,0,1
 167 355 167 355 216 406 c 1,2,-1
 366 406 l 1,3,-1
 366 511 l 1,4,-1
 155 511 l 1,5,6
 29 426 29 426 29 262 c 0,7,8
 29 94 29 94 147 0 c 1,9,-1
 366 0 l 1,10,-1
 366 105 l 1,11,-1
 216 105 l 1,12,13
 193 131 193 131 180 174.5 c 128,-1,14
 167 218 167 218 167 260 c 0,0,1
310 549 m 1,15,-1
 192 549 l 1,16,-1
 112 685 l 1,17,-1
 175 718 l 1,18,-1
 251 641 l 1,19,-1
 327 718 l 1,20,-1
 391 685 l 1,21,-1
 310 549 l 1,15,-1
EndSplineSet
EndChar

StartChar: ccedilla
Encoding: 231 231 291
Width: 390
Flags: MW
HStem: -179 47<181 206 181 206 181 206> 0 511<155 207 147 366 292 292 292 366> 105 301<216 366 216 366>
VStem: 29 337<0 303.5> 161 152<-260 -126 -179 -126>
LayerCount: 2
Fore
SplineSet
206 -132 m 1,0,-1
 181 -132 l 1,1,-1
 181 -60 l 1,2,-1
 207 0 l 1,3,-1
 147 0 l 1,4,5
 29 94 29 94 29 262 c 0,6,7
 29 426 29 426 155 511 c 1,8,-1
 366 511 l 1,9,-1
 366 406 l 1,10,-1
 216 406 l 1,11,12
 167 355 167 355 167 260 c 0,13,14
 167 218 167 218 180 174.5 c 128,-1,15
 193 131 193 131 216 105 c 1,16,-1
 366 105 l 1,17,-1
 366 0 l 1,18,-1
 292 0 l 1,19,-1
 269 -60 l 1,20,21
 284 -73 284 -73 291 -81.5 c 128,-1,22
 298 -90 298 -90 305.5 -109 c 128,-1,23
 313 -128 313 -128 313 -152 c 0,24,25
 313 -184 313 -184 295 -213 c 128,-1,26
 277 -242 277 -242 249 -260 c 1,27,-1
 161 -260 l 1,28,-1
 161 -179 l 1,29,-1
 206 -179 l 1,30,31
 215 -173 215 -173 215.5 -156 c 128,-1,32
 216 -139 216 -139 206 -132 c 1,0,-1
EndSplineSet
EndChar

StartChar: cdotaccent
Encoding: 267 267 293
Width: 390
Flags: MW
HStem: 0 511<155 366 155 366 155 366> 105 301<216 366 216 366> 565 135<191 323 191 323>
VStem: 29 337<0 303.5> 191 132<565 700 565 700>
LayerCount: 2
Fore
SplineSet
167 260 m 0,0,1
 167 355 167 355 216 406 c 1,2,-1
 366 406 l 1,3,-1
 366 511 l 1,4,-1
 155 511 l 1,5,6
 29 426 29 426 29 262 c 0,7,8
 29 94 29 94 147 0 c 1,9,-1
 366 0 l 1,10,-1
 366 105 l 1,11,-1
 216 105 l 1,12,13
 193 131 193 131 180 174.5 c 128,-1,14
 167 218 167 218 167 260 c 0,0,1
191 700 m 1,15,-1
 323 700 l 1,16,-1
 323 565 l 1,17,-1
 191 565 l 1,18,-1
 191 700 l 1,15,-1
EndSplineSet
EndChar

StartChar: dcaron
Encoding: 271 271 294
Width: 557
Flags: MW
HStem: 0 105<200 211 124 297 200 430 200 329> 406 105<201 213 213 231.5 127 297 201 201> 501 199<464 547 547 547> 680 20G<297 430 430 430 464 464 464 567>
VStem: 29 135<221.5 286.5 221.5 321.5> 297 133<105 406 406 406 483 700> 464 103<501 700>
LayerCount: 2
Fore
SplineSet
430 0 m 1,0,-1
 329 0 l 1,1,-1
 311 36 l 1,2,3
 289 16 289 16 269.5 8 c 128,-1,4
 250 0 250 0 211 0 c 2,5,-1
 124 0 l 1,6,7
 80 42 80 42 54.5 110 c 128,-1,8
 29 178 29 178 29 256 c 0,9,10
 29 347 29 347 54.5 406 c 128,-1,11
 80 465 80 465 127 511 c 1,12,-1
 213 511 l 2,13,14
 266 511 266 511 297 483 c 1,15,-1
 297 700 l 1,16,-1
 430 700 l 1,17,-1
 430 0 l 1,0,-1
297 406 m 1,18,-1
 201 406 l 1,19,20
 164 343 164 343 164 253 c 0,21,22
 164 160 164 160 200 105 c 1,23,-1
 297 105 l 1,24,-1
 297 406 l 1,18,-1
567 700 m 1,25,-1
 464 700 l 1,26,-1
 464 501 l 1,27,-1
 547 501 l 1,28,-1
 567 700 l 1,25,-1
EndSplineSet
EndChar

StartChar: ebreve
Encoding: 277 277 296
Width: 454
Flags: MW
HStem: 0 105<221 410 221 410 156 410> 200 94<172 308 165 421 172 172> 406 105<199 274 199 199> 548 159<85 278 85 190>
VStem: 29 136<294 303> 85 298<707 707> 308 122<294 294>
LayerCount: 2
Fore
SplineSet
274 406 m 1,0,-1
 199 406 l 1,1,2
 184 388 184 388 174.5 356 c 128,-1,3
 165 324 165 324 165 294 c 1,4,-1
 308 294 l 1,5,6
 310 324 310 324 300 356.5 c 128,-1,7
 290 389 290 389 274 406 c 1,0,-1
410 105 m 1,8,-1
 410 0 l 1,9,-1
 156 0 l 1,10,11
 86 47 86 47 57.5 116.5 c 128,-1,12
 29 186 29 186 29 257 c 0,13,14
 29 421 29 421 153 511 c 1,15,-1
 315 511 l 1,16,17
 382 462 382 462 406 407 c 128,-1,18
 430 352 430 352 430 281 c 0,19,20
 430 240 430 240 421 200 c 1,21,-1
 172 200 l 1,22,23
 175 177 175 177 189.5 147.5 c 128,-1,24
 204 118 204 118 221 105 c 1,25,-1
 410 105 l 1,8,-1
85 707 m 1,26,-1
 179 707 l 1,27,28
 186.326741769 664.50489774 186.326741769 664.50489774 197.146514893 652.802307129 c 0,29,30
 202.406496945 647.113147488 202.406496945 647.113147488 210 643 c 1,31,-1
 258 643 l 1,32,33
 267 648 267 648 272 653.5 c 128,-1,34
 277 659 277 659 280.5 670.5 c 128,-1,35
 284 682 284 682 285 685.5 c 128,-1,36
 286 689 286 689 289 707 c 1,37,-1
 383 707 l 1,38,39
 376 588 376 588 278 548 c 1,40,-1
 190 548 l 1,41,42
 92 588 92 588 85 707 c 1,26,-1
EndSplineSet
EndChar

StartChar: ecircumflex
Encoding: 234 234 298
Width: 454
Flags: MW
HStem: 0 105<221 410 221 410 156 410> 200 94<172 308 165 421 172 172> 406 105<199 274 199 199> 549 169<157 292 174 309>
VStem: 29 136<294 303> 94 279<582 582> 308 122<294 294>
LayerCount: 2
Fore
SplineSet
274 406 m 1,0,-1
 199 406 l 1,1,2
 184 388 184 388 174.5 356 c 128,-1,3
 165 324 165 324 165 294 c 1,4,-1
 308 294 l 1,5,6
 310 324 310 324 300 356.5 c 128,-1,7
 290 389 290 389 274 406 c 1,0,-1
410 105 m 1,8,-1
 410 0 l 1,9,-1
 156 0 l 1,10,11
 86 47 86 47 57.5 116.5 c 128,-1,12
 29 186 29 186 29 257 c 0,13,14
 29 421 29 421 153 511 c 1,15,-1
 315 511 l 1,16,17
 382 462 382 462 406 407 c 128,-1,18
 430 352 430 352 430 281 c 0,19,20
 430 240 430 240 421 200 c 1,21,-1
 172 200 l 1,22,23
 175 177 175 177 189.5 147.5 c 128,-1,24
 204 118 204 118 221 105 c 1,25,-1
 410 105 l 1,8,-1
174 718 m 1,26,-1
 292 718 l 1,27,-1
 373 582 l 1,28,-1
 309 549 l 1,29,-1
 233 626 l 1,30,-1
 157 549 l 1,31,-1
 94 582 l 1,32,-1
 174 718 l 1,26,-1
EndSplineSet
EndChar

StartChar: edotaccent
Encoding: 279 279 300
Width: 454
Flags: MW
HStem: 0 105<221 410 221 410 156 410> 200 94<172 308 165 421 172 172> 406 105<199 274 199 199> 565 135<167 299 167 299>
VStem: 29 136<294 303> 167 132<565 700 565 700> 308 122<294 294>
LayerCount: 2
Fore
SplineSet
274 406 m 1,0,-1
 199 406 l 1,1,2
 184 388 184 388 174.5 356 c 128,-1,3
 165 324 165 324 165 294 c 1,4,-1
 308 294 l 1,5,6
 310 324 310 324 300 356.5 c 128,-1,7
 290 389 290 389 274 406 c 1,0,-1
410 105 m 1,8,-1
 410 0 l 1,9,-1
 156 0 l 1,10,11
 86 47 86 47 57.5 116.5 c 128,-1,12
 29 186 29 186 29 257 c 0,13,14
 29 421 29 421 153 511 c 1,15,-1
 315 511 l 1,16,17
 382 462 382 462 406 407 c 128,-1,18
 430 352 430 352 430 281 c 0,19,20
 430 240 430 240 421 200 c 1,21,-1
 172 200 l 1,22,23
 175 177 175 177 189.5 147.5 c 128,-1,24
 204 118 204 118 221 105 c 1,25,-1
 410 105 l 1,8,-1
167 700 m 1,26,-1
 299 700 l 1,27,-1
 299 565 l 1,28,-1
 167 565 l 1,29,-1
 167 700 l 1,26,-1
EndSplineSet
EndChar

StartChar: emacron
Encoding: 275 275 302
Width: 454
Flags: MW
HStem: 0 105<221 410 221 410 156 410> 200 94<172 308 165 421 172 172> 406 105<199 274 199 199> 569 100<110 362 110 362>
VStem: 29 136<294 303> 110 252<569 669 569 669> 308 122<294 294>
LayerCount: 2
Fore
SplineSet
274 406 m 1,0,-1
 199 406 l 1,1,2
 184 388 184 388 174.5 356 c 128,-1,3
 165 324 165 324 165 294 c 1,4,-1
 308 294 l 1,5,6
 310 324 310 324 300 356.5 c 128,-1,7
 290 389 290 389 274 406 c 1,0,-1
410 105 m 1,8,-1
 410 0 l 1,9,-1
 156 0 l 1,10,11
 86 47 86 47 57.5 116.5 c 128,-1,12
 29 186 29 186 29 257 c 0,13,14
 29 421 29 421 153 511 c 1,15,-1
 315 511 l 1,16,17
 382 462 382 462 406 407 c 128,-1,18
 430 352 430 352 430 281 c 0,19,20
 430 240 430 240 421 200 c 1,21,-1
 172 200 l 1,22,23
 175 177 175 177 189.5 147.5 c 128,-1,24
 204 118 204 118 221 105 c 1,25,-1
 410 105 l 1,8,-1
110 569 m 1,26,-1
 110 669 l 1,27,-1
 362 669 l 1,28,-1
 362 569 l 1,29,-1
 110 569 l 1,26,-1
EndSplineSet
EndChar

StartChar: eogonek
Encoding: 281 281 303
Width: 454
Flags: MW
HStem: -227 100 0 105<221 295 156 410 221 410> 200 94<172 308 165 421 172 172> 406 105<199 274 199 199>
VStem: 29 136<294 303> 204 190<-174 -139> 308 122<294 294>
LayerCount: 2
Fore
SplineSet
410 105 m 1,0,-1
 410 0 l 1,1,-1
 326 -125 l 1,2,-1
 330 -132 l 1,3,-1
 394 -132 l 1,4,-1
 394 -227 l 1,5,-1
 241 -227 l 1,6,7
 204 -204 204 -204 204 -159 c 0,8,9
 204 -132 204 -132 215 -111 c 128,-1,10
 226 -90 226 -90 255 -52 c 2,11,-1
 295 0 l 1,12,-1
 156 0 l 1,13,14
 86 47 86 47 57.5 116.5 c 128,-1,15
 29 186 29 186 29 257 c 0,16,17
 29 421 29 421 153 511 c 1,18,-1
 315 511 l 1,19,20
 382 462 382 462 406 407 c 128,-1,21
 430 352 430 352 430 281 c 0,22,23
 430 240 430 240 421 200 c 1,24,-1
 172 200 l 1,25,26
 175 177 175 177 189.5 147.5 c 128,-1,27
 204 118 204 118 221 105 c 1,28,-1
 410 105 l 1,0,-1
274 406 m 1,29,-1
 199 406 l 1,30,31
 184 388 184 388 174.5 356 c 128,-1,32
 165 324 165 324 165 294 c 1,33,-1
 308 294 l 1,34,35
 310 324 310 324 300 356.5 c 128,-1,36
 290 389 290 389 274 406 c 1,29,-1
EndSplineSet
EndChar

StartChar: gcircumflex
Encoding: 285 285 305
Width: 469
Flags: MW
HStem: -150 104<105 276 105 333 105 276> 30 101<110 297 110 297> 406 105<200 205 205 233 131 297 200 200> 549 169<178 313 195 330>
VStem: 29 135<237 295 237 321> 115 279<582 582> 297 133<131 406 406 406>
LayerCount: 2
Fore
SplineSet
430 511 m 1,0,-1
 430 53 l 2,1,2
 430 -23 430 -23 410.5 -69 c 128,-1,3
 391 -115 391 -115 333 -150 c 1,4,-1
 105 -150 l 1,5,-1
 105 -46 l 1,6,-1
 276 -46 l 1,7,8
 301 -31 301 -31 301 2 c 2,9,-1
 301 61 l 1,10,11
 264 30 264 30 183 30 c 2,12,-1
 110 30 l 1,13,14
 29 127 29 127 29 255 c 0,15,16
 29 347 29 347 55 405.5 c 128,-1,17
 81 464 81 464 131 511 c 1,18,-1
 205 511 l 2,19,20
 270 511 270 511 308 469 c 1,21,-1
 326 511 l 1,22,-1
 430 511 l 1,0,-1
297 406 m 1,23,-1
 200 406 l 1,24,25
 164 344 164 344 164 268 c 0,26,27
 164 183 164 183 195 131 c 1,28,-1
 297 131 l 1,29,-1
 297 406 l 1,23,-1
195 718 m 1,30,-1
 313 718 l 1,31,-1
 394 582 l 1,32,-1
 330 549 l 1,33,-1
 254 626 l 1,34,-1
 178 549 l 1,35,-1
 115 582 l 1,36,-1
 195 718 l 1,30,-1
EndSplineSet
EndChar

StartChar: gcommaaccent
Encoding: 291 291 307
Width: 469
Flags: MW
HStem: -150 104<105 276 105 333 105 276> 30 101<110 297 110 297> 406 105<200 205 205 233 131 297 200 200> 548 137<265 309 265 309 189 309>
VStem: 29 135<237 295 237 321> 189 120<548 591 591 642> 297 133<131 406 406 406>
LayerCount: 2
Fore
SplineSet
430 511 m 1,0,-1
 430 53 l 2,1,2
 430 -23 430 -23 410.5 -69 c 128,-1,3
 391 -115 391 -115 333 -150 c 1,4,-1
 105 -150 l 1,5,-1
 105 -46 l 1,6,-1
 276 -46 l 1,7,8
 301 -31 301 -31 301 2 c 2,9,-1
 301 61 l 1,10,11
 264 30 264 30 183 30 c 2,12,-1
 110 30 l 1,13,14
 29 127 29 127 29 255 c 0,15,16
 29 347 29 347 55 405.5 c 128,-1,17
 81 464 81 464 131 511 c 1,18,-1
 205 511 l 2,19,20
 270 511 270 511 308 469 c 1,21,-1
 326 511 l 1,22,-1
 430 511 l 1,0,-1
297 406 m 1,23,-1
 200 406 l 1,24,25
 164 344 164 344 164 268 c 0,26,27
 164 183 164 183 195 131 c 1,28,-1
 297 131 l 1,29,-1
 297 406 l 1,23,-1
309 685 m 1,30,-1
 309 548 l 1,31,-1
 189 548 l 1,32,-1
 189 591 l 2,33,34
 189 667 189 667 201 702.5 c 128,-1,35
 213 738 213 738 259 801 c 1,36,-1
 305 775 l 1,37,38
 276 726 276 726 265 685 c 1,39,-1
 309 685 l 1,30,-1
EndSplineSet
EndChar

StartChar: hcircumflex
Encoding: 293 293 308
Width: 486
Flags: MW
HStem: 0 21G<43 176 43 43 314 447 314 314> 406 105<276 288 176 371> 680 20G<43 176 176 176> 728 150<53 191>
VStem: -40 290<767 769> 43 133<0 406 0 475 475 700> 314 133<0 259 0 269 0 300.5>
LayerCount: 2
Fore
SplineSet
276 511 m 2,0,-1
 371 511 l 1,1,2
 415 455 415 455 431 399 c 128,-1,3
 447 343 447 343 447 259 c 2,4,-1
 447 0 l 1,5,-1
 314 0 l 1,6,-1
 314 269 l 2,7,8
 314 364 314 364 288 406 c 1,9,-1
 176 406 l 1,10,-1
 176 0 l 1,11,-1
 43 0 l 1,12,-1
 43 700 l 1,13,-1
 176 700 l 1,14,-1
 176 475 l 1,15,16
 198 495 198 495 217.5 503 c 128,-1,17
 237 511 237 511 276 511 c 2,0,-1
53 878 m 1,18,-1
 159 878 l 1,19,-1
 250 767 l 1,20,-1
 191 728 l 1,21,-1
 105 786 l 1,22,-1
 19 729 l 1,23,-1
 -40 769 l 1,24,-1
 53 878 l 1,18,-1
EndSplineSet
EndChar

StartChar: iogonek
Encoding: 303 303 309
Width: 218
Flags: MW
HStem: -227 100<110 110 110 180 27 110> 0 21G<43 43 43 61 175 175> 491 20G<43 175 175 175>
VStem: -10 190<-174 -139> 43 132<0 511 0 511 565 700>
LayerCount: 2
Fore
SplineSet
43 0 m 1,0,-1
 43 511 l 1,1,-1
 175 511 l 1,2,-1
 175 0 l 1,3,-1
 110 -127 l 1,4,-1
 114 -132 l 1,5,-1
 180 -132 l 1,6,-1
 180 -227 l 1,7,-1
 27 -227 l 1,8,9
 -10 -204 -10 -204 -10 -159 c 0,10,11
 -10 -151 -10 -151 -9 -143 c 128,-1,12
 -8 -135 -8 -135 -5 -125.5 c 128,-1,13
 -2 -116 -2 -116 0.5 -110 c 128,-1,14
 3 -104 3 -104 8.5 -93 c 128,-1,15
 14 -82 14 -82 16.5 -77 c 128,-1,16
 19 -72 19 -72 27 -58.5 c 128,-1,17
 35 -45 35 -45 38 -40 c 2,18,-1
 61 0 l 1,19,-1
 43 0 l 1,0,-1
43 700 m 1,20,-1
 175 700 l 1,21,-1
 175 565 l 1,22,-1
 43 565 l 1,23,-1
 43 700 l 1,20,-1
EndSplineSet
EndChar

StartChar: kcommaaccent
Encoding: 311 311 310
Width: 426
Flags: MW
HStem: -203 137<156 276 156 200> 0 700<43 176 43 176 43 283 43 415>
VStem: 156 120<-160 -109 -109 -66 -160 -66> 176 14<329 700 329 329>
LayerCount: 2
Fore
SplineSet
43 0 m 1,0,-1
 43 700 l 1,1,-1
 176 700 l 1,2,-1
 176 329 l 1,3,-1
 190 329 l 1,4,-1
 284 511 l 1,5,-1
 414 511 l 1,6,-1
 296 288 l 1,7,-1
 415 0 l 1,8,-1
 283 0 l 1,9,-1
 191 224 l 1,10,-1
 176 224 l 1,11,-1
 176 0 l 1,12,-1
 43 0 l 1,0,-1
156 -203 m 1,13,-1
 156 -66 l 1,14,-1
 276 -66 l 1,15,-1
 276 -109 l 2,16,17
 276 -185 276 -185 264 -220.5 c 128,-1,18
 252 -256 252 -256 206 -319 c 1,19,-1
 160 -293 l 1,20,21
 189 -244 189 -244 200 -203 c 1,22,-1
 156 -203 l 1,13,-1
EndSplineSet
EndChar

StartChar: lacute
Encoding: 314 314 311
Width: 218
Flags: MW
HStem: 0 21G<43 175 43 43> 680 20G<43 175 175 175> 730 169<61 212>
VStem: 29 221<788 817> 43 132<0 700 0 700>
LayerCount: 2
Fore
SplineSet
175 700 m 1,0,-1
 175 0 l 1,1,-1
 43 0 l 1,2,-1
 43 700 l 1,3,-1
 175 700 l 1,0,-1
29 817 m 1,4,-1
 212 899 l 1,5,-1
 250 788 l 1,6,-1
 61 730 l 1,7,-1
 29 817 l 1,4,-1
EndSplineSet
EndChar

StartChar: lcaron
Encoding: 318 318 312
Width: 304
Flags: MW
HStem: 0 21G<43 175 43 43> 501 199<211 294 294 294> 680 20G<43 175 175 175 211 211 211 314>
VStem: 43 132<0 700 0 700> 211 103<501 700>
LayerCount: 2
Fore
SplineSet
175 700 m 1,0,-1
 175 0 l 1,1,-1
 43 0 l 1,2,-1
 43 700 l 1,3,-1
 175 700 l 1,0,-1
314 700 m 1,4,-1
 211 700 l 1,5,-1
 211 501 l 1,6,-1
 294 501 l 1,7,-1
 314 700 l 1,4,-1
EndSplineSet
EndChar

StartChar: lcommaaccent
Encoding: 316 316 313
Width: 218
Flags: MW
HStem: -203 137<45 165 45 89> 0 21G<43 175 43 43> 680 20G<43 175 175 175>
VStem: 43 132<0 700 0 700> 45 120<-160 -109 -109 -66 -160 -66>
LayerCount: 2
Fore
SplineSet
175 700 m 1,0,-1
 175 0 l 1,1,-1
 43 0 l 1,2,-1
 43 700 l 1,3,-1
 175 700 l 1,0,-1
45 -203 m 1,4,-1
 45 -66 l 1,5,-1
 165 -66 l 1,6,-1
 165 -109 l 2,7,8
 165 -185 165 -185 153 -220.5 c 128,-1,9
 141 -256 141 -256 95 -319 c 1,10,-1
 49 -293 l 1,11,12
 78 -244 78 -244 89 -203 c 1,13,-1
 45 -203 l 1,4,-1
EndSplineSet
EndChar

StartChar: ldot
Encoding: 320 320 314
Width: 328
Flags: MW
HStem: 0 21G<43 175 43 43> 295 124<211 323 211 323> 680 20G<43 175 175 175>
VStem: 43 132<0 700 0 700> 211 112<295 419 295 419>
LayerCount: 2
Fore
SplineSet
175 700 m 1,0,-1
 175 0 l 1,1,-1
 43 0 l 1,2,-1
 43 700 l 1,3,-1
 175 700 l 1,0,-1
211 419 m 1,4,-1
 323 419 l 1,5,-1
 323 295 l 1,6,-1
 211 295 l 1,7,-1
 211 419 l 1,4,-1
EndSplineSet
EndChar

StartChar: napostrophe
Encoding: 329 329 316
Width: 572
Flags: MW
HStem: 0 21G<129 262 129 129 400 533 400 400> 406 105<351 374 129 262> 539 123<-8 116 -8 41>
VStem: -8 124<579 630 630 662 579 662> 129 133<0 406 0 511 0 511> 400 133<0 259 0 269 0 300.5>
LayerCount: 2
Fore
SplineSet
351 511 m 2,0,-1
 457 511 l 1,1,2
 501 455 501 455 517 399 c 128,-1,3
 533 343 533 343 533 259 c 2,4,-1
 533 0 l 1,5,-1
 400 0 l 1,6,-1
 400 269 l 2,7,8
 400 364 400 364 374 406 c 1,9,-1
 262 406 l 1,10,-1
 262 0 l 1,11,-1
 129 0 l 1,12,-1
 129 511 l 1,13,-1
 233 511 l 1,14,-1
 251 475 l 1,15,16
 273 495 273 495 292.5 503 c 128,-1,17
 312 511 312 511 351 511 c 2,0,-1
-8 539 m 1,18,-1
 -8 662 l 1,19,-1
 116 662 l 1,20,-1
 116 630 l 2,21,22
 116 557 116 557 103.5 520 c 128,-1,23
 91 483 91 483 51 429 c 1,24,-1
 3 455 l 1,25,26
 32 500 32 500 41 539 c 1,27,-1
 -8 539 l 1,18,-1
EndSplineSet
EndChar

StartChar: ncaron
Encoding: 328 328 317
Width: 486
Flags: MW
HStem: 0 21G<43 176 43 43 314 447 314 314> 406 105<265 288 43 176> 549 169<160 295 160 177>
VStem: 43 133<0 406 0 511 0 511> 97 279<685 685> 314 133<0 259 0 269 0 300.5>
LayerCount: 2
Fore
SplineSet
265 511 m 2,0,-1
 371 511 l 1,1,2
 415 455 415 455 431 399 c 128,-1,3
 447 343 447 343 447 259 c 2,4,-1
 447 0 l 1,5,-1
 314 0 l 1,6,-1
 314 269 l 2,7,8
 314 364 314 364 288 406 c 1,9,-1
 176 406 l 1,10,-1
 176 0 l 1,11,-1
 43 0 l 1,12,-1
 43 511 l 1,13,-1
 147 511 l 1,14,-1
 165 475 l 1,15,16
 187 495 187 495 206.5 503 c 128,-1,17
 226 511 226 511 265 511 c 2,0,-1
295 549 m 1,18,-1
 177 549 l 1,19,-1
 97 685 l 1,20,-1
 160 718 l 1,21,-1
 236 641 l 1,22,-1
 312 718 l 1,23,-1
 376 685 l 1,24,-1
 295 549 l 1,18,-1
EndSplineSet
EndChar

StartChar: ncommaaccent
Encoding: 326 326 318
Width: 486
Flags: MW
HStem: -203 137<181 301 181 225> 0 21G<43 176 43 43 314 447 314 314> 406 105<265 288 43 176>
VStem: 43 133<0 406 0 511 0 511> 181 120<-160 -109 -109 -66 -160 -66> 314 133<0 259 0 269 0 300.5>
LayerCount: 2
Fore
SplineSet
265 511 m 2,0,-1
 371 511 l 1,1,2
 415 455 415 455 431 399 c 128,-1,3
 447 343 447 343 447 259 c 2,4,-1
 447 0 l 1,5,-1
 314 0 l 1,6,-1
 314 269 l 2,7,8
 314 364 314 364 288 406 c 1,9,-1
 176 406 l 1,10,-1
 176 0 l 1,11,-1
 43 0 l 1,12,-1
 43 511 l 1,13,-1
 147 511 l 1,14,-1
 165 475 l 1,15,16
 187 495 187 495 206.5 503 c 128,-1,17
 226 511 226 511 265 511 c 2,0,-1
181 -203 m 1,18,-1
 181 -66 l 1,19,-1
 301 -66 l 1,20,-1
 301 -109 l 2,21,22
 301 -185 301 -185 289 -220.5 c 128,-1,23
 277 -256 277 -256 231 -319 c 1,24,-1
 185 -293 l 1,25,26
 214 -244 214 -244 225 -203 c 1,27,-1
 181 -203 l 1,18,-1
EndSplineSet
EndChar

StartChar: ntilde
Encoding: 241 241 319
Width: 486
Flags: MW
HStem: 0 21G<43 176 43 43 314 447 314 314> 406 105<265 288 43 176> 557 129<167.5 273>
VStem: 43 133<0 406 0 511 0 511> 95 262<571 659 659 659> 314 133<0 259 0 269 0 300.5>
LayerCount: 2
Fore
SplineSet
265 511 m 2,0,-1
 371 511 l 1,1,2
 415 455 415 455 431 399 c 128,-1,3
 447 343 447 343 447 259 c 2,4,-1
 447 0 l 1,5,-1
 314 0 l 1,6,-1
 314 269 l 2,7,8
 314 364 314 364 288 406 c 1,9,-1
 176 406 l 1,10,-1
 176 0 l 1,11,-1
 43 0 l 1,12,-1
 43 511 l 1,13,-1
 147 511 l 1,14,-1
 165 475 l 1,15,16
 187 495 187 495 206.5 503 c 128,-1,17
 226 511 226 511 265 511 c 2,0,-1
273 557 m 1,18,-1
 177 582 l 1,19,20
 156 582 156 582 95 559 c 1,21,-1
 95 659 l 1,22,23
 159 686 159 686 181 686 c 1,24,-1
 278 659 l 1,25,26
 298 659 298 659 357 673 c 1,27,-1
 357 571 l 1,28,29
 296 556 296 556 273 557 c 1,18,-1
EndSplineSet
EndChar

StartChar: obreve
Encoding: 335 335 321
Width: 476
Flags: MW
HStem: 0 511<129 347 129 129> 548 159<85 278 85 190>
VStem: 85 298<707 707> 164 148<229.5 289>
LayerCount: 2
Fore
SplineSet
347 0 m 1,0,-1
 129 0 l 1,1,2
 29 93 29 93 29 254 c 0,3,4
 29 335 29 335 51.5 395 c 128,-1,5
 74 455 74 455 123 511 c 1,6,-1
 357 511 l 1,7,8
 409 451 409 451 428 394.5 c 128,-1,9
 447 338 447 338 447 254 c 0,10,11
 447 93 447 93 347 0 c 1,0,-1
200 105 m 1,12,-1
 276 105 l 1,13,14
 312 175 312 175 312 258 c 0,15,16
 312 353 312 353 275 406 c 1,17,-1
 200 406 l 1,18,19
 164 355 164 355 164 258 c 0,20,21
 164 168 164 168 200 105 c 1,12,-1
85 707 m 1,22,-1
 179 707 l 1,23,24
 186.326741769 664.50489774 186.326741769 664.50489774 197.146514893 652.802307129 c 0,25,26
 202.406496945 647.113147488 202.406496945 647.113147488 210 643 c 1,27,-1
 258 643 l 1,28,29
 267 648 267 648 272 653.5 c 128,-1,30
 277 659 277 659 280.5 670.5 c 128,-1,31
 284 682 284 682 285 685.5 c 128,-1,32
 286 689 286 689 289 707 c 1,33,-1
 383 707 l 1,34,35
 376 588 376 588 278 548 c 1,36,-1
 190 548 l 1,37,38
 92 588 92 588 85 707 c 1,22,-1
EndSplineSet
EndChar

StartChar: odieresis
Encoding: 246 246 323
Width: 476
Flags: MW
HStem: 0 511<129 347 347 347> 565 135<82 214 82 214 255 387 82 255>
VStem: 82 132<565 700 565 700> 164 148<229.5 289> 255 132<565 700 565 700>
LayerCount: 2
Fore
SplineSet
129 0 m 1,0,-1
 347 0 l 1,1,2
 447 93 447 93 447 254 c 0,3,4
 447 338 447 338 428 394.5 c 128,-1,5
 409 451 409 451 357 511 c 1,6,-1
 123 511 l 1,7,8
 74 455 74 455 51.5 395 c 128,-1,9
 29 335 29 335 29 254 c 0,10,11
 29 93 29 93 129 0 c 1,0,-1
276 105 m 1,12,-1
 200 105 l 1,13,14
 164 168 164 168 164 258 c 0,15,16
 164 355 164 355 200 406 c 1,17,-1
 275 406 l 1,18,19
 312 353 312 353 312 258 c 0,20,21
 312 175 312 175 276 105 c 1,12,-1
82 565 m 1,22,-1
 82 700 l 1,23,-1
 214 700 l 1,24,-1
 214 565 l 1,25,-1
 82 565 l 1,22,-1
255 565 m 1,26,-1
 255 700 l 1,27,-1
 387 700 l 1,28,-1
 387 565 l 1,29,-1
 255 565 l 1,26,-1
EndSplineSet
EndChar

